M48
; DRILL file {KiCad 6.0.11-2627ca5db0~126~ubuntu22.04.1} date Di 25 Feb 2025 14:04:30
; FORMAT={-:-/ absolute / inch / decimal}
; #@! TF.CreationDate,2025-02-25T14:04:30+01:00
; #@! TF.GenerationSoftware,Kicad,Pcbnew,6.0.11-2627ca5db0~126~ubuntu22.04.1
; #@! TF.FileFunction,Plated,1,2,PTH
FMAT,2
INCH
; #@! TA.AperFunction,Plated,PTH,ViaDrill
T1C0.0157
; #@! TA.AperFunction,Plated,PTH,ComponentDrill
T2C0.0354
; #@! TA.AperFunction,Plated,PTH,ComponentDrill
T3C0.0600
%
G90
G05
T1
X3.44Y-3.54
X3.44Y-3.74
X3.53Y-3.99
X3.535Y-3.37
X3.54Y-3.47
X3.615Y-3.495
X3.6665Y-3.6882
X3.725Y-3.46
X3.79Y-3.485
X3.825Y-3.485
X3.835Y-3.37
X3.84Y-3.29
T2
X3.24Y-3.49
X3.24Y-3.59
X3.24Y-3.69
X3.24Y-3.79
X3.24Y-3.89
X3.24Y-3.99
X3.24Y-4.09
X3.24Y-4.19
X3.24Y-4.29
X3.24Y-4.39
T3
X3.722Y-3.937
X3.785Y-3.785
X3.937Y-3.722
X3.937Y-4.117
X4.089Y-3.785
X4.152Y-3.937
T0
M30
