%TF.GenerationSoftware,KiCad,Pcbnew,6.0.11-2627ca5db0~126~ubuntu22.04.1*%
%TF.CreationDate,2025-02-25T14:04:31+01:00*%
%TF.ProjectId,MidiBreakOut,4d696469-4272-4656-916b-4f75742e6b69,rev?*%
%TF.SameCoordinates,Original*%
%TF.FileFunction,Legend,Bot*%
%TF.FilePolarity,Positive*%
%FSLAX46Y46*%
G04 Gerber Fmt 4.6, Leading zero omitted, Abs format (unit mm)*
G04 Created by KiCad (PCBNEW 6.0.11-2627ca5db0~126~ubuntu22.04.1) date 2025-02-25 14:04:31*
%MOMM*%
%LPD*%
G01*
G04 APERTURE LIST*
%ADD10C,0.100000*%
%ADD11C,0.150000*%
%ADD12C,0.300000*%
%ADD13C,0.120000*%
G04 APERTURE END LIST*
D10*
X118461904Y-106561904D02*
X119261904Y-106828571D01*
X118461904Y-107095238D01*
X119261904Y-107780952D02*
X119261904Y-107323809D01*
X119261904Y-107552380D02*
X118461904Y-107552380D01*
X118576190Y-107476190D01*
X118652380Y-107400000D01*
X118690476Y-107323809D01*
X119185714Y-108123809D02*
X119223809Y-108161904D01*
X119261904Y-108123809D01*
X119223809Y-108085714D01*
X119185714Y-108123809D01*
X119261904Y-108123809D01*
X118461904Y-108657142D02*
X118461904Y-108733333D01*
X118500000Y-108809523D01*
X118538095Y-108847619D01*
X118614285Y-108885714D01*
X118766666Y-108923809D01*
X118957142Y-108923809D01*
X119109523Y-108885714D01*
X119185714Y-108847619D01*
X119223809Y-108809523D01*
X119261904Y-108733333D01*
X119261904Y-108657142D01*
X119223809Y-108580952D01*
X119185714Y-108542857D01*
X119109523Y-108504761D01*
X118957142Y-108466666D01*
X118766666Y-108466666D01*
X118614285Y-108504761D01*
X118538095Y-108542857D01*
X118500000Y-108580952D01*
X118461904Y-108657142D01*
X119223809Y-109304761D02*
X119261904Y-109304761D01*
X119338095Y-109266666D01*
X119376190Y-109228571D01*
X118538095Y-110219047D02*
X118500000Y-110257142D01*
X118461904Y-110333333D01*
X118461904Y-110523809D01*
X118500000Y-110600000D01*
X118538095Y-110638095D01*
X118614285Y-110676190D01*
X118690476Y-110676190D01*
X118804761Y-110638095D01*
X119261904Y-110180952D01*
X119261904Y-110676190D01*
X118461904Y-111171428D02*
X118461904Y-111247619D01*
X118500000Y-111323809D01*
X118538095Y-111361904D01*
X118614285Y-111400000D01*
X118766666Y-111438095D01*
X118957142Y-111438095D01*
X119109523Y-111400000D01*
X119185714Y-111361904D01*
X119223809Y-111323809D01*
X119261904Y-111247619D01*
X119261904Y-111171428D01*
X119223809Y-111095238D01*
X119185714Y-111057142D01*
X119109523Y-111019047D01*
X118957142Y-110980952D01*
X118766666Y-110980952D01*
X118614285Y-111019047D01*
X118538095Y-111057142D01*
X118500000Y-111095238D01*
X118461904Y-111171428D01*
X118538095Y-111742857D02*
X118500000Y-111780952D01*
X118461904Y-111857142D01*
X118461904Y-112047619D01*
X118500000Y-112123809D01*
X118538095Y-112161904D01*
X118614285Y-112200000D01*
X118690476Y-112200000D01*
X118804761Y-112161904D01*
X119261904Y-111704761D01*
X119261904Y-112200000D01*
X118461904Y-112923809D02*
X118461904Y-112542857D01*
X118842857Y-112504761D01*
X118804761Y-112542857D01*
X118766666Y-112619047D01*
X118766666Y-112809523D01*
X118804761Y-112885714D01*
X118842857Y-112923809D01*
X118919047Y-112961904D01*
X119109523Y-112961904D01*
X119185714Y-112923809D01*
X119223809Y-112885714D01*
X119261904Y-112809523D01*
X119261904Y-112619047D01*
X119223809Y-112542857D01*
X119185714Y-112504761D01*
D11*
X109085714Y-115152380D02*
X108895238Y-115152380D01*
X108800000Y-115200000D01*
X108704761Y-115295238D01*
X108657142Y-115485714D01*
X108657142Y-115819047D01*
X108704761Y-116009523D01*
X108800000Y-116104761D01*
X108895238Y-116152380D01*
X109085714Y-116152380D01*
X109180952Y-116104761D01*
X109276190Y-116009523D01*
X109323809Y-115819047D01*
X109323809Y-115485714D01*
X109276190Y-115295238D01*
X109180952Y-115200000D01*
X109085714Y-115152380D01*
X108228571Y-115485714D02*
X108228571Y-116485714D01*
X108228571Y-115533333D02*
X108133333Y-115485714D01*
X107942857Y-115485714D01*
X107847619Y-115533333D01*
X107800000Y-115580952D01*
X107752380Y-115676190D01*
X107752380Y-115961904D01*
X107800000Y-116057142D01*
X107847619Y-116104761D01*
X107942857Y-116152380D01*
X108133333Y-116152380D01*
X108228571Y-116104761D01*
X106942857Y-116104761D02*
X107038095Y-116152380D01*
X107228571Y-116152380D01*
X107323809Y-116104761D01*
X107371428Y-116009523D01*
X107371428Y-115628571D01*
X107323809Y-115533333D01*
X107228571Y-115485714D01*
X107038095Y-115485714D01*
X106942857Y-115533333D01*
X106895238Y-115628571D01*
X106895238Y-115723809D01*
X107371428Y-115819047D01*
X106466666Y-115485714D02*
X106466666Y-116152380D01*
X106466666Y-115580952D02*
X106419047Y-115533333D01*
X106323809Y-115485714D01*
X106180952Y-115485714D01*
X106085714Y-115533333D01*
X106038095Y-115628571D01*
X106038095Y-116152380D01*
X105704761Y-115152380D02*
X105133333Y-115152380D01*
X105419047Y-116152380D02*
X105419047Y-115152380D01*
X104800000Y-116152380D02*
X104800000Y-115152380D01*
X104371428Y-116152380D02*
X104371428Y-115628571D01*
X104419047Y-115533333D01*
X104514285Y-115485714D01*
X104657142Y-115485714D01*
X104752380Y-115533333D01*
X104800000Y-115580952D01*
X103514285Y-116104761D02*
X103609523Y-116152380D01*
X103800000Y-116152380D01*
X103895238Y-116104761D01*
X103942857Y-116009523D01*
X103942857Y-115628571D01*
X103895238Y-115533333D01*
X103800000Y-115485714D01*
X103609523Y-115485714D01*
X103514285Y-115533333D01*
X103466666Y-115628571D01*
X103466666Y-115723809D01*
X103942857Y-115819047D01*
X103038095Y-116152380D02*
X103038095Y-115485714D01*
X103038095Y-115676190D02*
X102990476Y-115580952D01*
X102942857Y-115533333D01*
X102847619Y-115485714D01*
X102752380Y-115485714D01*
X102038095Y-116104761D02*
X102133333Y-116152380D01*
X102323809Y-116152380D01*
X102419047Y-116104761D01*
X102466666Y-116009523D01*
X102466666Y-115628571D01*
X102419047Y-115533333D01*
X102323809Y-115485714D01*
X102133333Y-115485714D01*
X102038095Y-115533333D01*
X101990476Y-115628571D01*
X101990476Y-115723809D01*
X102466666Y-115819047D01*
X101561904Y-116152380D02*
X101561904Y-115485714D01*
X101561904Y-115580952D02*
X101514285Y-115533333D01*
X101419047Y-115485714D01*
X101276190Y-115485714D01*
X101180952Y-115533333D01*
X101133333Y-115628571D01*
X101133333Y-116152380D01*
X101133333Y-115628571D02*
X101085714Y-115533333D01*
X100990476Y-115485714D01*
X100847619Y-115485714D01*
X100752380Y-115533333D01*
X100704761Y-115628571D01*
X100704761Y-116152380D01*
X100228571Y-116152380D02*
X100228571Y-115485714D01*
X100228571Y-115152380D02*
X100276190Y-115200000D01*
X100228571Y-115247619D01*
X100180952Y-115200000D01*
X100228571Y-115152380D01*
X100228571Y-115247619D01*
X99752380Y-115485714D02*
X99752380Y-116152380D01*
X99752380Y-115580952D02*
X99704761Y-115533333D01*
X99609523Y-115485714D01*
X99466666Y-115485714D01*
X99371428Y-115533333D01*
X99323809Y-115628571D01*
X99323809Y-116152380D01*
X98228571Y-115152380D02*
X97895238Y-116152380D01*
X97561904Y-115152380D01*
X96800000Y-115485714D02*
X96800000Y-116152380D01*
X97038095Y-115104761D02*
X97276190Y-115819047D01*
X96657142Y-115819047D01*
X96276190Y-116057142D02*
X96228571Y-116104761D01*
X96276190Y-116152380D01*
X96323809Y-116104761D01*
X96276190Y-116057142D01*
X96276190Y-116152380D01*
X95323809Y-115152380D02*
X95800000Y-115152380D01*
X95847619Y-115628571D01*
X95800000Y-115580952D01*
X95704761Y-115533333D01*
X95466666Y-115533333D01*
X95371428Y-115580952D01*
X95323809Y-115628571D01*
X95276190Y-115723809D01*
X95276190Y-115961904D01*
X95323809Y-116057142D01*
X95371428Y-116104761D01*
X95466666Y-116152380D01*
X95704761Y-116152380D01*
X95800000Y-116104761D01*
X95847619Y-116057142D01*
%TO.C,X6*%
X87366666Y-106852380D02*
X87700000Y-106376190D01*
X87938095Y-106852380D02*
X87938095Y-105852380D01*
X87557142Y-105852380D01*
X87461904Y-105900000D01*
X87414285Y-105947619D01*
X87366666Y-106042857D01*
X87366666Y-106185714D01*
X87414285Y-106280952D01*
X87461904Y-106328571D01*
X87557142Y-106376190D01*
X87938095Y-106376190D01*
X87033333Y-105852380D02*
X86366666Y-106852380D01*
X86366666Y-105852380D02*
X87033333Y-106852380D01*
X85985714Y-106852380D02*
X85985714Y-105852380D01*
X85747619Y-105852380D01*
X85604761Y-105900000D01*
X85509523Y-105995238D01*
X85461904Y-106090476D01*
X85414285Y-106280952D01*
X85414285Y-106423809D01*
X85461904Y-106614285D01*
X85509523Y-106709523D01*
X85604761Y-106804761D01*
X85747619Y-106852380D01*
X85985714Y-106852380D01*
%TO.C,X9*%
X82154523Y-92779380D02*
X81487857Y-93779380D01*
X81487857Y-92779380D02*
X82154523Y-93779380D01*
X81059285Y-93779380D02*
X80868809Y-93779380D01*
X80773571Y-93731761D01*
X80725952Y-93684142D01*
X80630714Y-93541285D01*
X80583095Y-93350809D01*
X80583095Y-92969857D01*
X80630714Y-92874619D01*
X80678333Y-92827000D01*
X80773571Y-92779380D01*
X80964047Y-92779380D01*
X81059285Y-92827000D01*
X81106904Y-92874619D01*
X81154523Y-92969857D01*
X81154523Y-93207952D01*
X81106904Y-93303190D01*
X81059285Y-93350809D01*
X80964047Y-93398428D01*
X80773571Y-93398428D01*
X80678333Y-93350809D01*
X80630714Y-93303190D01*
X80583095Y-93207952D01*
X87461904Y-90686000D02*
X87557142Y-90638380D01*
X87700000Y-90638380D01*
X87842857Y-90686000D01*
X87938095Y-90781238D01*
X87985714Y-90876476D01*
X88033333Y-91066952D01*
X88033333Y-91209809D01*
X87985714Y-91400285D01*
X87938095Y-91495523D01*
X87842857Y-91590761D01*
X87700000Y-91638380D01*
X87604761Y-91638380D01*
X87461904Y-91590761D01*
X87414285Y-91543142D01*
X87414285Y-91209809D01*
X87604761Y-91209809D01*
X86985714Y-91638380D02*
X86985714Y-90638380D01*
X86414285Y-91638380D01*
X86414285Y-90638380D01*
X85938095Y-91638380D02*
X85938095Y-90638380D01*
X85700000Y-90638380D01*
X85557142Y-90686000D01*
X85461904Y-90781238D01*
X85414285Y-90876476D01*
X85366666Y-91066952D01*
X85366666Y-91209809D01*
X85414285Y-91400285D01*
X85461904Y-91495523D01*
X85557142Y-91590761D01*
X85700000Y-91638380D01*
X85938095Y-91638380D01*
D12*
%TO.C,X11*%
X126259428Y-98665428D02*
X125243428Y-100189428D01*
X125243428Y-98665428D02*
X126259428Y-100189428D01*
X123864571Y-100189428D02*
X124735428Y-100189428D01*
X124300000Y-100189428D02*
X124300000Y-98665428D01*
X124445142Y-98883142D01*
X124590285Y-99028285D01*
X124735428Y-99100857D01*
X122413142Y-100189428D02*
X123284000Y-100189428D01*
X122848571Y-100189428D02*
X122848571Y-98665428D01*
X122993714Y-98883142D01*
X123138857Y-99028285D01*
X123284000Y-99100857D01*
D11*
%TO.C,X3*%
X87195238Y-96623142D02*
X87242857Y-96670761D01*
X87385714Y-96718380D01*
X87480952Y-96718380D01*
X87623809Y-96670761D01*
X87719047Y-96575523D01*
X87766666Y-96480285D01*
X87814285Y-96289809D01*
X87814285Y-96146952D01*
X87766666Y-95956476D01*
X87719047Y-95861238D01*
X87623809Y-95766000D01*
X87480952Y-95718380D01*
X87385714Y-95718380D01*
X87242857Y-95766000D01*
X87195238Y-95813619D01*
X86909523Y-95718380D02*
X86576190Y-96718380D01*
X86242857Y-95718380D01*
X85385714Y-96718380D02*
X85957142Y-96718380D01*
X85671428Y-96718380D02*
X85671428Y-95718380D01*
X85766666Y-95861238D01*
X85861904Y-95956476D01*
X85957142Y-96004095D01*
%TO.C,X10*%
X87461904Y-111000000D02*
X87557142Y-110952380D01*
X87700000Y-110952380D01*
X87842857Y-111000000D01*
X87938095Y-111095238D01*
X87985714Y-111190476D01*
X88033333Y-111380952D01*
X88033333Y-111523809D01*
X87985714Y-111714285D01*
X87938095Y-111809523D01*
X87842857Y-111904761D01*
X87700000Y-111952380D01*
X87604761Y-111952380D01*
X87461904Y-111904761D01*
X87414285Y-111857142D01*
X87414285Y-111523809D01*
X87604761Y-111523809D01*
X86985714Y-111952380D02*
X86985714Y-110952380D01*
X86414285Y-111952380D01*
X86414285Y-110952380D01*
X85938095Y-111952380D02*
X85938095Y-110952380D01*
X85700000Y-110952380D01*
X85557142Y-111000000D01*
X85461904Y-111095238D01*
X85414285Y-111190476D01*
X85366666Y-111380952D01*
X85366666Y-111523809D01*
X85414285Y-111714285D01*
X85461904Y-111809523D01*
X85557142Y-111904761D01*
X85700000Y-111952380D01*
X85938095Y-111952380D01*
%TO.C,X8*%
X89052380Y-109418380D02*
X89385714Y-108942190D01*
X89623809Y-109418380D02*
X89623809Y-108418380D01*
X89242857Y-108418380D01*
X89147619Y-108466000D01*
X89100000Y-108513619D01*
X89052380Y-108608857D01*
X89052380Y-108751714D01*
X89100000Y-108846952D01*
X89147619Y-108894571D01*
X89242857Y-108942190D01*
X89623809Y-108942190D01*
X88623809Y-108894571D02*
X88290476Y-108894571D01*
X88147619Y-109418380D02*
X88623809Y-109418380D01*
X88623809Y-108418380D01*
X88147619Y-108418380D01*
X87766666Y-109370761D02*
X87623809Y-109418380D01*
X87385714Y-109418380D01*
X87290476Y-109370761D01*
X87242857Y-109323142D01*
X87195238Y-109227904D01*
X87195238Y-109132666D01*
X87242857Y-109037428D01*
X87290476Y-108989809D01*
X87385714Y-108942190D01*
X87576190Y-108894571D01*
X87671428Y-108846952D01*
X87719047Y-108799333D01*
X87766666Y-108704095D01*
X87766666Y-108608857D01*
X87719047Y-108513619D01*
X87671428Y-108466000D01*
X87576190Y-108418380D01*
X87338095Y-108418380D01*
X87195238Y-108466000D01*
X86766666Y-108894571D02*
X86433333Y-108894571D01*
X86290476Y-109418380D02*
X86766666Y-109418380D01*
X86766666Y-108418380D01*
X86290476Y-108418380D01*
X86004761Y-108418380D02*
X85433333Y-108418380D01*
X85719047Y-109418380D02*
X85719047Y-108418380D01*
%TO.C,R1*%
X98337666Y-89226380D02*
X98671000Y-88750190D01*
X98909095Y-89226380D02*
X98909095Y-88226380D01*
X98528142Y-88226380D01*
X98432904Y-88274000D01*
X98385285Y-88321619D01*
X98337666Y-88416857D01*
X98337666Y-88559714D01*
X98385285Y-88654952D01*
X98432904Y-88702571D01*
X98528142Y-88750190D01*
X98909095Y-88750190D01*
X97385285Y-89226380D02*
X97956714Y-89226380D01*
X97671000Y-89226380D02*
X97671000Y-88226380D01*
X97766238Y-88369238D01*
X97861476Y-88464476D01*
X97956714Y-88512095D01*
%TO.C,X4*%
X87861904Y-103338380D02*
X87290476Y-103338380D01*
X87576190Y-104338380D02*
X87576190Y-103338380D01*
X87052380Y-103338380D02*
X86385714Y-104338380D01*
X86385714Y-103338380D02*
X87052380Y-104338380D01*
X86004761Y-104338380D02*
X86004761Y-103338380D01*
X85766666Y-103338380D01*
X85623809Y-103386000D01*
X85528571Y-103481238D01*
X85480952Y-103576476D01*
X85433333Y-103766952D01*
X85433333Y-103909809D01*
X85480952Y-104100285D01*
X85528571Y-104195523D01*
X85623809Y-104290761D01*
X85766666Y-104338380D01*
X86004761Y-104338380D01*
%TO.C,X7*%
X88000000Y-100846000D02*
X88095238Y-100798380D01*
X88238095Y-100798380D01*
X88380952Y-100846000D01*
X88476190Y-100941238D01*
X88523809Y-101036476D01*
X88571428Y-101226952D01*
X88571428Y-101369809D01*
X88523809Y-101560285D01*
X88476190Y-101655523D01*
X88380952Y-101750761D01*
X88238095Y-101798380D01*
X88142857Y-101798380D01*
X88000000Y-101750761D01*
X87952380Y-101703142D01*
X87952380Y-101369809D01*
X88142857Y-101369809D01*
X87571428Y-101512666D02*
X87095238Y-101512666D01*
X87666666Y-101798380D02*
X87333333Y-100798380D01*
X87000000Y-101798380D01*
X86809523Y-100798380D02*
X86238095Y-100798380D01*
X86523809Y-101798380D02*
X86523809Y-100798380D01*
X85904761Y-101274571D02*
X85571428Y-101274571D01*
X85428571Y-101798380D02*
X85904761Y-101798380D01*
X85904761Y-100798380D01*
X85428571Y-100798380D01*
%TO.C,R2*%
X94596666Y-89272380D02*
X94930000Y-88796190D01*
X95168095Y-89272380D02*
X95168095Y-88272380D01*
X94787142Y-88272380D01*
X94691904Y-88320000D01*
X94644285Y-88367619D01*
X94596666Y-88462857D01*
X94596666Y-88605714D01*
X94644285Y-88700952D01*
X94691904Y-88748571D01*
X94787142Y-88796190D01*
X95168095Y-88796190D01*
X94215714Y-88367619D02*
X94168095Y-88320000D01*
X94072857Y-88272380D01*
X93834761Y-88272380D01*
X93739523Y-88320000D01*
X93691904Y-88367619D01*
X93644285Y-88462857D01*
X93644285Y-88558095D01*
X93691904Y-88700952D01*
X94263333Y-89272380D01*
X93644285Y-89272380D01*
%TO.C,X5*%
X87195238Y-99163142D02*
X87242857Y-99210761D01*
X87385714Y-99258380D01*
X87480952Y-99258380D01*
X87623809Y-99210761D01*
X87719047Y-99115523D01*
X87766666Y-99020285D01*
X87814285Y-98829809D01*
X87814285Y-98686952D01*
X87766666Y-98496476D01*
X87719047Y-98401238D01*
X87623809Y-98306000D01*
X87480952Y-98258380D01*
X87385714Y-98258380D01*
X87242857Y-98306000D01*
X87195238Y-98353619D01*
X86909523Y-98258380D02*
X86576190Y-99258380D01*
X86242857Y-98258380D01*
X85957142Y-98353619D02*
X85909523Y-98306000D01*
X85814285Y-98258380D01*
X85576190Y-98258380D01*
X85480952Y-98306000D01*
X85433333Y-98353619D01*
X85385714Y-98448857D01*
X85385714Y-98544095D01*
X85433333Y-98686952D01*
X86004761Y-99258380D01*
X85385714Y-99258380D01*
%TO.C,X1*%
X89399809Y-93892666D02*
X88923619Y-93892666D01*
X89495047Y-94178380D02*
X89161714Y-93178380D01*
X88828380Y-94178380D01*
X88495047Y-93178380D02*
X88495047Y-93987904D01*
X88447428Y-94083142D01*
X88399809Y-94130761D01*
X88304571Y-94178380D01*
X88114095Y-94178380D01*
X88018857Y-94130761D01*
X87971238Y-94083142D01*
X87923619Y-93987904D01*
X87923619Y-93178380D01*
X87447428Y-94178380D02*
X87447428Y-93178380D01*
X87209333Y-93178380D01*
X87066476Y-93226000D01*
X86971238Y-93321238D01*
X86923619Y-93416476D01*
X86876000Y-93606952D01*
X86876000Y-93749809D01*
X86923619Y-93940285D01*
X86971238Y-94035523D01*
X87066476Y-94130761D01*
X87209333Y-94178380D01*
X87447428Y-94178380D01*
X86447428Y-94178380D02*
X86447428Y-93178380D01*
X85780761Y-93178380D02*
X85590285Y-93178380D01*
X85495047Y-93226000D01*
X85399809Y-93321238D01*
X85352190Y-93511714D01*
X85352190Y-93845047D01*
X85399809Y-94035523D01*
X85495047Y-94130761D01*
X85590285Y-94178380D01*
X85780761Y-94178380D01*
X85876000Y-94130761D01*
X85971238Y-94035523D01*
X86018857Y-93845047D01*
X86018857Y-93511714D01*
X85971238Y-93321238D01*
X85876000Y-93226000D01*
X85780761Y-93178380D01*
%TO.C,X2*%
X88085714Y-88717428D02*
X87323809Y-88717428D01*
X87704761Y-89098380D02*
X87704761Y-88336476D01*
X86371428Y-88098380D02*
X86847619Y-88098380D01*
X86895238Y-88574571D01*
X86847619Y-88526952D01*
X86752380Y-88479333D01*
X86514285Y-88479333D01*
X86419047Y-88526952D01*
X86371428Y-88574571D01*
X86323809Y-88669809D01*
X86323809Y-88907904D01*
X86371428Y-89003142D01*
X86419047Y-89050761D01*
X86514285Y-89098380D01*
X86752380Y-89098380D01*
X86847619Y-89050761D01*
X86895238Y-89003142D01*
X86038095Y-88098380D02*
X85704761Y-89098380D01*
X85371428Y-88098380D01*
D13*
%TO.C,J2*%
X86118666Y-85286904D02*
X86118666Y-85858333D01*
X86156761Y-85972619D01*
X86232952Y-86048809D01*
X86347238Y-86086904D01*
X86423428Y-86086904D01*
X85775809Y-85363095D02*
X85737714Y-85325000D01*
X85661523Y-85286904D01*
X85471047Y-85286904D01*
X85394857Y-85325000D01*
X85356761Y-85363095D01*
X85318666Y-85439285D01*
X85318666Y-85515476D01*
X85356761Y-85629761D01*
X85813904Y-86086904D01*
X85318666Y-86086904D01*
%TO.C,X11*%
G36*
X112916406Y-113400237D02*
G01*
X113016005Y-113414740D01*
X113039232Y-113438898D01*
X113002021Y-113457506D01*
X112899991Y-113474677D01*
X112761104Y-113481302D01*
X112648374Y-113476867D01*
X112547765Y-113461537D01*
X112509182Y-113438898D01*
X112542897Y-113418203D01*
X112642294Y-113402437D01*
X112787311Y-113396494D01*
X112916406Y-113400237D01*
G37*
G36*
X98845063Y-113230658D02*
G01*
X98943964Y-113246060D01*
X98982304Y-113269282D01*
X98961514Y-113286733D01*
X98876802Y-113304715D01*
X98749082Y-113311686D01*
X98653101Y-113307906D01*
X98554200Y-113292504D01*
X98515860Y-113269282D01*
X98536650Y-113251831D01*
X98621362Y-113233849D01*
X98749082Y-113226878D01*
X98845063Y-113230658D01*
G37*
G36*
X114193031Y-113570614D02*
G01*
X114293930Y-113585927D01*
X114332555Y-113608514D01*
X114305530Y-113627664D01*
X114213651Y-113644481D01*
X114078130Y-113650918D01*
X113963230Y-113646414D01*
X113862331Y-113631101D01*
X113823706Y-113608514D01*
X113850731Y-113589364D01*
X113942610Y-113572547D01*
X114078130Y-113566110D01*
X114193031Y-113570614D01*
G37*
G36*
X100201991Y-113569890D02*
G01*
X100300892Y-113585292D01*
X100339232Y-113608514D01*
X100318443Y-113625965D01*
X100233731Y-113643947D01*
X100106010Y-113650918D01*
X100010029Y-113647138D01*
X99911128Y-113631736D01*
X99872788Y-113608514D01*
X99893578Y-113591063D01*
X99978290Y-113573081D01*
X100106010Y-113566110D01*
X100201991Y-113569890D01*
G37*
G36*
X106944228Y-113569890D02*
G01*
X107043130Y-113585292D01*
X107081469Y-113608514D01*
X107060680Y-113625965D01*
X106975968Y-113643947D01*
X106848247Y-113650918D01*
X106752266Y-113647138D01*
X106653365Y-113631736D01*
X106615025Y-113608514D01*
X106635815Y-113591063D01*
X106720527Y-113573081D01*
X106848247Y-113566110D01*
X106944228Y-113569890D01*
G37*
G36*
X114332555Y-112802838D02*
G01*
X113823706Y-112802838D01*
X113823706Y-111869950D01*
X114332555Y-111869950D01*
X114332555Y-112802838D01*
G37*
G36*
X113042555Y-113228092D02*
G01*
X113198460Y-113234393D01*
X113274051Y-113247981D01*
X113272454Y-113269282D01*
X113208028Y-113289152D01*
X113093818Y-113303100D01*
X112953418Y-113310144D01*
X112808972Y-113310284D01*
X112682623Y-113303520D01*
X112596514Y-113289853D01*
X112572788Y-113269282D01*
X112584380Y-113261283D01*
X112663892Y-113243809D01*
X112798645Y-113231812D01*
X112967528Y-113227527D01*
X113042555Y-113228092D01*
G37*
G36*
X105498570Y-113701807D02*
G01*
X105586279Y-113709256D01*
X105704800Y-113733433D01*
X105756528Y-113767529D01*
X105743116Y-113797485D01*
X105666613Y-113815145D01*
X105516055Y-113820534D01*
X105466849Y-113820221D01*
X105339742Y-113812848D01*
X105275725Y-113792463D01*
X105258097Y-113754812D01*
X105258992Y-113743122D01*
X105284495Y-113711237D01*
X105358422Y-113698773D01*
X105498570Y-113701807D01*
G37*
G36*
X103826202Y-112941722D02*
G01*
X103827217Y-112941849D01*
X103861090Y-112950494D01*
X103819171Y-112956766D01*
X103710351Y-112959314D01*
X103598810Y-112957160D01*
X103548356Y-112950991D01*
X103571778Y-112942155D01*
X103687916Y-112934798D01*
X103826202Y-112941722D01*
G37*
G36*
X103337031Y-113227027D02*
G01*
X103592362Y-113230816D01*
X103783021Y-113239401D01*
X103902320Y-113252363D01*
X103943573Y-113269282D01*
X103939538Y-113274842D01*
X103873265Y-113290386D01*
X103730581Y-113301963D01*
X103517842Y-113309191D01*
X103241404Y-113311686D01*
X103168294Y-113311553D01*
X102899175Y-113307976D01*
X102707347Y-113299635D01*
X102595280Y-113286686D01*
X102565443Y-113269282D01*
X102573891Y-113263500D01*
X102651676Y-113248427D01*
X102800208Y-113236877D01*
X103009011Y-113229483D01*
X103267611Y-113226878D01*
X103337031Y-113227027D01*
G37*
G36*
X97508005Y-113111338D02*
G01*
X97509020Y-113111465D01*
X97542893Y-113120110D01*
X97500974Y-113126382D01*
X97392154Y-113128930D01*
X97280613Y-113126776D01*
X97230159Y-113120607D01*
X97253581Y-113111771D01*
X97369719Y-113104414D01*
X97508005Y-113111338D01*
G37*
G36*
X113218170Y-113110849D02*
G01*
X113260859Y-113115550D01*
X113256636Y-113121399D01*
X113180258Y-113125448D01*
X113039232Y-113127018D01*
X112937359Y-113126404D01*
X112833382Y-113123203D01*
X112796887Y-113117869D01*
X112836534Y-113111084D01*
X112876613Y-113108161D01*
X113048433Y-113104433D01*
X113218170Y-113110849D01*
G37*
G36*
X103467661Y-88897579D02*
G01*
X103479396Y-89523038D01*
X100676197Y-89523038D01*
X100687932Y-88897579D01*
X100699666Y-88272120D01*
X103455927Y-88272120D01*
X103467661Y-88897579D01*
G37*
G36*
X101265502Y-113228169D02*
G01*
X101423305Y-113235797D01*
X101538559Y-113250246D01*
X101590151Y-113269282D01*
X101568752Y-113289152D01*
X101484745Y-113303100D01*
X101359598Y-113310144D01*
X101215455Y-113310284D01*
X101074460Y-113303520D01*
X100958755Y-113289853D01*
X100890484Y-113269282D01*
X100881289Y-113260832D01*
X100906660Y-113242311D01*
X101010326Y-113231352D01*
X101195411Y-113227527D01*
X101265502Y-113228169D01*
G37*
G36*
X111542772Y-113700320D02*
G01*
X111602682Y-113717356D01*
X111618698Y-113754812D01*
X111617471Y-113767348D01*
X111588530Y-113799733D01*
X111508520Y-113816043D01*
X111360740Y-113820534D01*
X111336396Y-113820359D01*
X111186574Y-113807950D01*
X111117045Y-113781745D01*
X111126611Y-113749890D01*
X111214070Y-113720529D01*
X111378225Y-113701807D01*
X111421172Y-113699780D01*
X111542772Y-113700320D01*
G37*
G36*
X110645738Y-94979993D02*
G01*
X110701342Y-95032946D01*
X110801108Y-95140266D01*
X110938448Y-95294112D01*
X111106772Y-95486645D01*
X111299492Y-95710023D01*
X111510020Y-95956408D01*
X111731767Y-96217958D01*
X111958144Y-96486834D01*
X112182564Y-96755195D01*
X112398437Y-97015202D01*
X112599176Y-97259014D01*
X112778190Y-97478791D01*
X112928893Y-97666692D01*
X113044695Y-97814879D01*
X113119007Y-97915510D01*
X113145242Y-97960745D01*
X113142534Y-97978282D01*
X113107225Y-97996772D01*
X113090909Y-97981427D01*
X113024865Y-97908046D01*
X112914284Y-97780308D01*
X112764869Y-97604950D01*
X112582324Y-97388711D01*
X112372353Y-97138332D01*
X112140660Y-96860549D01*
X111892948Y-96562103D01*
X111737098Y-96373916D01*
X111496772Y-96083837D01*
X111275293Y-95816644D01*
X111078532Y-95579410D01*
X110912360Y-95379211D01*
X110782647Y-95223122D01*
X110695264Y-95118217D01*
X110656083Y-95071572D01*
X110626202Y-95023878D01*
X110636944Y-94975947D01*
X110645738Y-94979993D01*
G37*
G36*
X106987060Y-113698821D02*
G01*
X107060531Y-113718570D01*
X107081469Y-113756928D01*
X107061305Y-113794786D01*
X106988894Y-113814824D01*
X106848247Y-113820534D01*
X106709434Y-113815035D01*
X106635964Y-113795286D01*
X106615025Y-113756928D01*
X106635190Y-113719070D01*
X106707601Y-113699032D01*
X106848247Y-113693322D01*
X106987060Y-113698821D01*
G37*
G36*
X111353917Y-94909617D02*
G01*
X111403249Y-94956694D01*
X111497622Y-95058612D01*
X111630450Y-95207576D01*
X111795145Y-95395790D01*
X111985117Y-95615460D01*
X112193780Y-95858789D01*
X112414546Y-96117982D01*
X112640826Y-96385243D01*
X112866033Y-96652777D01*
X113083579Y-96912789D01*
X113286875Y-97157483D01*
X113469335Y-97379063D01*
X113624369Y-97569734D01*
X113745391Y-97721700D01*
X113825811Y-97827167D01*
X113859043Y-97878337D01*
X113864876Y-97898395D01*
X113860281Y-97919998D01*
X113827678Y-97903611D01*
X113763902Y-97845740D01*
X113665790Y-97742889D01*
X113530178Y-97591563D01*
X113353903Y-97388267D01*
X113133800Y-97129506D01*
X112866706Y-96811785D01*
X112549456Y-96431609D01*
X112361275Y-96204638D01*
X112114168Y-95903696D01*
X111893263Y-95631228D01*
X111703323Y-95393281D01*
X111549111Y-95195897D01*
X111435390Y-95045122D01*
X111366924Y-94946999D01*
X111348475Y-94907574D01*
X111353917Y-94909617D01*
G37*
G36*
X101556637Y-113570614D02*
G01*
X101657536Y-113585927D01*
X101696161Y-113608514D01*
X101669136Y-113627664D01*
X101577257Y-113644481D01*
X101441736Y-113650918D01*
X101326836Y-113646414D01*
X101225937Y-113631101D01*
X101187312Y-113608514D01*
X101214337Y-113589364D01*
X101306216Y-113572547D01*
X101441736Y-113566110D01*
X101556637Y-113570614D01*
G37*
G36*
X110569435Y-92675041D02*
G01*
X110806796Y-92781154D01*
X111015782Y-92950462D01*
X111182871Y-93182360D01*
X111218430Y-93270204D01*
X111254189Y-93467695D01*
X111256150Y-93691756D01*
X111225068Y-93910035D01*
X111161698Y-94090181D01*
X111049635Y-94253576D01*
X110855609Y-94433818D01*
X110633277Y-94557112D01*
X110538941Y-94579746D01*
X110381489Y-94596407D01*
X110210592Y-94598606D01*
X110137190Y-94594987D01*
X109984557Y-94575989D01*
X109866134Y-94534822D01*
X109745332Y-94460638D01*
X109695164Y-94422338D01*
X109553402Y-94290117D01*
X109436076Y-94150869D01*
X109420827Y-94128958D01*
X109360128Y-94029855D01*
X109326013Y-93935138D01*
X109311019Y-93815110D01*
X109307680Y-93640074D01*
X109307685Y-93630349D01*
X109312041Y-93454445D01*
X109329746Y-93329556D01*
X109368502Y-93223519D01*
X109436013Y-93104167D01*
X109606672Y-92894648D01*
X109822319Y-92741927D01*
X110063675Y-92654822D01*
X110317221Y-92632729D01*
X110569435Y-92675041D01*
G37*
G36*
X111625047Y-94159727D02*
G01*
X111683182Y-94220603D01*
X111784563Y-94335371D01*
X111922672Y-94496111D01*
X112090989Y-94694899D01*
X112282994Y-94923814D01*
X112492169Y-95174932D01*
X112711994Y-95440333D01*
X112935950Y-95712093D01*
X113157516Y-95982290D01*
X113370175Y-96243002D01*
X113567406Y-96486307D01*
X113742690Y-96704282D01*
X113889507Y-96889005D01*
X114001339Y-97032553D01*
X114071666Y-97127005D01*
X114093969Y-97164438D01*
X114090775Y-97169331D01*
X114057060Y-97198163D01*
X114048805Y-97191575D01*
X113994755Y-97132842D01*
X113896775Y-97019783D01*
X113761407Y-96860347D01*
X113595193Y-96662483D01*
X113404677Y-96434141D01*
X113196402Y-96183270D01*
X112976910Y-95917818D01*
X112752743Y-95645734D01*
X112530446Y-95374968D01*
X112316561Y-95113469D01*
X112117630Y-94869185D01*
X111940197Y-94650066D01*
X111790804Y-94464061D01*
X111675994Y-94319119D01*
X111602309Y-94223189D01*
X111576294Y-94184219D01*
X111578443Y-94169873D01*
X111615111Y-94152142D01*
X111625047Y-94159727D01*
G37*
G36*
X109540902Y-87996494D02*
G01*
X106742237Y-87996494D01*
X106742237Y-86766778D01*
X109540902Y-86766778D01*
X109540902Y-87996494D01*
G37*
G36*
X111479174Y-113570614D02*
G01*
X111580074Y-113585927D01*
X111618698Y-113608514D01*
X111591673Y-113627664D01*
X111499795Y-113644481D01*
X111364274Y-113650918D01*
X111249374Y-113646414D01*
X111148474Y-113631101D01*
X111109850Y-113608514D01*
X111136875Y-113589364D01*
X111228753Y-113572547D01*
X111364274Y-113566110D01*
X111479174Y-113570614D01*
G37*
G36*
X103943573Y-112802838D02*
G01*
X103477129Y-112802838D01*
X103477129Y-111869950D01*
X103943573Y-111869950D01*
X103943573Y-112802838D01*
G37*
G36*
X103333803Y-113396728D02*
G01*
X103590997Y-113400711D01*
X103782615Y-113409325D01*
X103902269Y-113422183D01*
X103943573Y-113438898D01*
X103939714Y-113444346D01*
X103873998Y-113459934D01*
X103731867Y-113471547D01*
X103519708Y-113478799D01*
X103243907Y-113481302D01*
X103154011Y-113481068D01*
X102896816Y-113477085D01*
X102705199Y-113468471D01*
X102585545Y-113455613D01*
X102544241Y-113438898D01*
X102548100Y-113433450D01*
X102613816Y-113417862D01*
X102755947Y-113406249D01*
X102968106Y-113398997D01*
X103243907Y-113396494D01*
X103333803Y-113396728D01*
G37*
G36*
X112551586Y-89523038D02*
G01*
X109795326Y-89523038D01*
X109795326Y-88250918D01*
X112551586Y-88250918D01*
X112551586Y-89523038D01*
G37*
G36*
X111121397Y-112941850D02*
G01*
X111135157Y-112943804D01*
X111146458Y-112951412D01*
X111085221Y-112956671D01*
X110961436Y-112958539D01*
X110925208Y-112958363D01*
X110820773Y-112955335D01*
X110784444Y-112949370D01*
X110824569Y-112941507D01*
X110830236Y-112940935D01*
X110981172Y-112934730D01*
X111121397Y-112941850D01*
G37*
G36*
X86515526Y-82521427D02*
G01*
X85020785Y-82534503D01*
X84907287Y-82535498D01*
X84533079Y-82538969D01*
X84231741Y-82542533D01*
X83993853Y-82546840D01*
X83809996Y-82552541D01*
X83670750Y-82560288D01*
X83566697Y-82570732D01*
X83488417Y-82584524D01*
X83426491Y-82602316D01*
X83371500Y-82624758D01*
X83314024Y-82652502D01*
X83241131Y-82691717D01*
X82995821Y-82873950D01*
X82795137Y-83102783D01*
X82659133Y-83356650D01*
X82571524Y-83590807D01*
X82582340Y-100051997D01*
X82593156Y-116513188D01*
X82707043Y-116729026D01*
X82789190Y-116863672D01*
X83012283Y-117109410D01*
X83304602Y-117308003D01*
X83483640Y-117403673D01*
X116516361Y-117403673D01*
X116728381Y-117290848D01*
X116865945Y-117207667D01*
X117114539Y-116987202D01*
X117306865Y-116704006D01*
X117406845Y-116513188D01*
X117417661Y-100051997D01*
X117428477Y-83590807D01*
X117337919Y-83348769D01*
X117324231Y-83314083D01*
X117172569Y-83052807D01*
X116954810Y-82826959D01*
X116685977Y-82652577D01*
X116473957Y-82547579D01*
X108470201Y-82536437D01*
X100466444Y-82525296D01*
X100466444Y-79429963D01*
X109911937Y-79441025D01*
X119357429Y-79452087D01*
X119633055Y-79583898D01*
X119936595Y-79771367D01*
X120194529Y-80022040D01*
X120387655Y-80321084D01*
X120502337Y-80554591D01*
X120502337Y-119396661D01*
X120406118Y-119605303D01*
X120288205Y-119820736D01*
X120060984Y-120099202D01*
X119780577Y-120313226D01*
X119451310Y-120458945D01*
X119435954Y-120462038D01*
X119392978Y-120466393D01*
X119323916Y-120470502D01*
X119226671Y-120474369D01*
X119099146Y-120477999D01*
X118939242Y-120481398D01*
X118744864Y-120484571D01*
X118513913Y-120487523D01*
X118244294Y-120490260D01*
X117933907Y-120492785D01*
X117580657Y-120495105D01*
X117182446Y-120497225D01*
X116737177Y-120499150D01*
X116242752Y-120500885D01*
X115697075Y-120502435D01*
X115098048Y-120503805D01*
X114443574Y-120505001D01*
X113731555Y-120506028D01*
X112959896Y-120506891D01*
X112126497Y-120507594D01*
X111229263Y-120508144D01*
X110266095Y-120508545D01*
X109234898Y-120508803D01*
X108133573Y-120508923D01*
X106960023Y-120508909D01*
X105712151Y-120508767D01*
X104387860Y-120508503D01*
X102985053Y-120508121D01*
X101501633Y-120507626D01*
X99935501Y-120507025D01*
X80598381Y-120499165D01*
X80317610Y-120360941D01*
X80028586Y-120179633D01*
X79792171Y-119938921D01*
X79609405Y-119634972D01*
X79497663Y-119396661D01*
X79497663Y-80554591D01*
X79612346Y-80321084D01*
X79800155Y-80028543D01*
X80056700Y-79776609D01*
X80366945Y-79583898D01*
X80642571Y-79452087D01*
X83579049Y-79440103D01*
X86515526Y-79428119D01*
X86515526Y-82521427D01*
G37*
G36*
X112551586Y-86512354D02*
G01*
X109795326Y-86512354D01*
X109795326Y-85240233D01*
X112551586Y-85240233D01*
X112551586Y-86512354D01*
G37*
G36*
X112551586Y-87996494D02*
G01*
X109795326Y-87996494D01*
X109795326Y-86766778D01*
X112551586Y-86766778D01*
X112551586Y-87996494D01*
G37*
G36*
X96151077Y-112941722D02*
G01*
X96152092Y-112941849D01*
X96185965Y-112950494D01*
X96144046Y-112956766D01*
X96035226Y-112959314D01*
X95923684Y-112957160D01*
X95873231Y-112950991D01*
X95896653Y-112942155D01*
X96012791Y-112934798D01*
X96151077Y-112941722D01*
G37*
G36*
X96387273Y-113347537D02*
G01*
X96378264Y-113608409D01*
X96366191Y-113800780D01*
X96349271Y-113939697D01*
X96325722Y-114040208D01*
X96293760Y-114117362D01*
X96134474Y-114351487D01*
X95908832Y-114545274D01*
X95632662Y-114671398D01*
X95523560Y-114694336D01*
X95388565Y-114707373D01*
X95250752Y-114711018D01*
X95250752Y-114377087D01*
X95293156Y-114377087D01*
X95293160Y-114385308D01*
X95294705Y-114527621D01*
X95298498Y-114627447D01*
X95303757Y-114663627D01*
X95316821Y-114660421D01*
X95392018Y-114646124D01*
X95509291Y-114625666D01*
X95638949Y-114597489D01*
X95871588Y-114500597D01*
X96064779Y-114343769D01*
X96147145Y-114247468D01*
X96216275Y-114133574D01*
X96263388Y-113999200D01*
X96292306Y-113828332D01*
X96306852Y-113604953D01*
X96310852Y-113313048D01*
X96310852Y-112718030D01*
X95764032Y-112718030D01*
X95738398Y-113163272D01*
X95293156Y-113188906D01*
X95293156Y-113735726D01*
X95505176Y-113735726D01*
X95535956Y-113735874D01*
X95650080Y-113743123D01*
X95703775Y-113766674D01*
X95717196Y-113813962D01*
X95679857Y-113915571D01*
X95576962Y-114003514D01*
X95428186Y-114058553D01*
X95293156Y-114085559D01*
X95293156Y-114377087D01*
X95250752Y-114377087D01*
X95250752Y-114036397D01*
X95396394Y-114009074D01*
X95400263Y-114008325D01*
X95522586Y-113965154D01*
X95614986Y-113901143D01*
X95649159Y-113860098D01*
X95650485Y-113832907D01*
X95595254Y-113822324D01*
X95469344Y-113820534D01*
X95250752Y-113820534D01*
X95250752Y-113099666D01*
X95674792Y-113099666D01*
X95674792Y-112675626D01*
X96404722Y-112675626D01*
X96388180Y-113313048D01*
X96387940Y-113322287D01*
X96387273Y-113347537D01*
G37*
G36*
X98845063Y-113569890D02*
G01*
X98943964Y-113585292D01*
X98982304Y-113608514D01*
X98961514Y-113625965D01*
X98876802Y-113643947D01*
X98749082Y-113650918D01*
X98653101Y-113647138D01*
X98554200Y-113631736D01*
X98515860Y-113608514D01*
X98536650Y-113591063D01*
X98621362Y-113573081D01*
X98749082Y-113566110D01*
X98845063Y-113569890D01*
G37*
G36*
X103477129Y-87996494D02*
G01*
X100678464Y-87996494D01*
X100678464Y-86766778D01*
X103477129Y-86766778D01*
X103477129Y-87996494D01*
G37*
G36*
X109339483Y-113110585D02*
G01*
X109393304Y-113113917D01*
X109407954Y-113118407D01*
X109348386Y-113121989D01*
X109220964Y-113124361D01*
X109032054Y-113125219D01*
X108900125Y-113124833D01*
X108751315Y-113122937D01*
X108668219Y-113119728D01*
X108657201Y-113115510D01*
X108724625Y-113110585D01*
X108884776Y-113105758D01*
X109123806Y-113105008D01*
X109339483Y-113110585D01*
G37*
G36*
X114409440Y-113135015D02*
G01*
X114406947Y-113452728D01*
X114399860Y-113707331D01*
X114388388Y-113891621D01*
X114372738Y-113998397D01*
X114348304Y-114066639D01*
X114245776Y-114239359D01*
X114098966Y-114409525D01*
X113931516Y-114552024D01*
X113767073Y-114641740D01*
X113756116Y-114645572D01*
X113466256Y-114707303D01*
X113193328Y-114686126D01*
X112936066Y-114581748D01*
X112693201Y-114393878D01*
X112605499Y-114303202D01*
X112488222Y-114146084D01*
X112423777Y-113990483D01*
X112397251Y-113862190D01*
X112394046Y-113683789D01*
X112440948Y-113683789D01*
X112485299Y-113966002D01*
X112581304Y-114175862D01*
X112747262Y-114377220D01*
X112957332Y-114532713D01*
X113190624Y-114622887D01*
X113275258Y-114641123D01*
X113373292Y-114658972D01*
X113447870Y-114660124D01*
X113534282Y-114643472D01*
X113667817Y-114607908D01*
X113857486Y-114527740D01*
X114061436Y-114367363D01*
X114104757Y-114323741D01*
X114186664Y-114229744D01*
X114250268Y-114130826D01*
X114297847Y-114015579D01*
X114331673Y-113872595D01*
X114354023Y-113690467D01*
X114367170Y-113457787D01*
X114373391Y-113163148D01*
X114374959Y-112795141D01*
X114374959Y-111827546D01*
X113781302Y-111827546D01*
X113781302Y-113827058D01*
X113657352Y-113951008D01*
X113545859Y-114037116D01*
X113399666Y-114074958D01*
X113287262Y-114052641D01*
X113152585Y-113965536D01*
X113055393Y-113834025D01*
X113018030Y-113681164D01*
X113036062Y-113578674D01*
X113109267Y-113447083D01*
X113218528Y-113349719D01*
X113341843Y-113311686D01*
X113366725Y-113311117D01*
X113408813Y-113299018D01*
X113431344Y-113257022D01*
X113440403Y-113166829D01*
X113442070Y-113010139D01*
X113442070Y-112708591D01*
X113283055Y-112738399D01*
X113279521Y-112739072D01*
X113124920Y-112780395D01*
X112975626Y-112837059D01*
X112827212Y-112905911D01*
X113420868Y-112961649D01*
X113081636Y-112956901D01*
X112742404Y-112952154D01*
X112609873Y-113150006D01*
X112600407Y-113164349D01*
X112478974Y-113418814D01*
X112440948Y-113683789D01*
X112394046Y-113683789D01*
X112392114Y-113576284D01*
X112458457Y-113311332D01*
X112588737Y-113078703D01*
X112775410Y-112889765D01*
X113010930Y-112755888D01*
X113287756Y-112688441D01*
X113526878Y-112663761D01*
X113526878Y-113008925D01*
X113526553Y-113099837D01*
X113522281Y-113236369D01*
X113509806Y-113313012D01*
X113485083Y-113346631D01*
X113444066Y-113354090D01*
X113338487Y-113370181D01*
X113198959Y-113441574D01*
X113107514Y-113551579D01*
X113066339Y-113674464D01*
X113081099Y-113776062D01*
X113159733Y-113888843D01*
X113203778Y-113931998D01*
X113342382Y-113998998D01*
X113490609Y-113992490D01*
X113624643Y-113911321D01*
X113630004Y-113905908D01*
X113658043Y-113872940D01*
X113679741Y-113831339D01*
X113696206Y-113770226D01*
X113708550Y-113678719D01*
X113717881Y-113545939D01*
X113725309Y-113361004D01*
X113731945Y-113113034D01*
X113738898Y-112791149D01*
X113760100Y-111763940D01*
X114396161Y-111763940D01*
X114407519Y-112795141D01*
X114407523Y-112795480D01*
X114409440Y-113135015D01*
G37*
G36*
X108767601Y-113400274D02*
G01*
X108866502Y-113415676D01*
X108904842Y-113438898D01*
X108884052Y-113456349D01*
X108799340Y-113474331D01*
X108671620Y-113481302D01*
X108575639Y-113477522D01*
X108476737Y-113462120D01*
X108438398Y-113438898D01*
X108459187Y-113421447D01*
X108543899Y-113403465D01*
X108671620Y-113396494D01*
X108767601Y-113400274D01*
G37*
G36*
X114079024Y-113862979D02*
G01*
X114213854Y-113870393D01*
X114275633Y-113900671D01*
X114274748Y-113968274D01*
X114221584Y-114087665D01*
X114209781Y-114110399D01*
X114045327Y-114337315D01*
X113831278Y-114495684D01*
X113569282Y-114584253D01*
X113528451Y-114590892D01*
X113256772Y-114587928D01*
X112997108Y-114507744D01*
X112770081Y-114356225D01*
X112753529Y-114340097D01*
X112672949Y-114239406D01*
X112593666Y-114113524D01*
X112533228Y-113992661D01*
X112509182Y-113907031D01*
X112526056Y-113889859D01*
X112608150Y-113870361D01*
X112739142Y-113862938D01*
X112786535Y-113863352D01*
X112915643Y-113875236D01*
X113006813Y-113913196D01*
X113096315Y-113990150D01*
X113145525Y-114035740D01*
X113257690Y-114100298D01*
X113399666Y-114117362D01*
X113465406Y-114114748D01*
X113589176Y-114080365D01*
X113703018Y-113990150D01*
X113729754Y-113964162D01*
X113816084Y-113899314D01*
X113914140Y-113869879D01*
X114060190Y-113862938D01*
X114079024Y-113862979D01*
G37*
G36*
X100899485Y-113105344D02*
G01*
X101134307Y-113110497D01*
X101148419Y-113111057D01*
X101216400Y-113115355D01*
X101206082Y-113119082D01*
X101123259Y-113122017D01*
X100973725Y-113123940D01*
X100763272Y-113124630D01*
X100734182Y-113124619D01*
X100530939Y-113123765D01*
X100389329Y-113121705D01*
X100315147Y-113118660D01*
X100314185Y-113114850D01*
X100392237Y-113110497D01*
X100399106Y-113110240D01*
X100635815Y-113105259D01*
X100899485Y-113105344D01*
G37*
G36*
X101440695Y-113862939D02*
G01*
X101568639Y-113865073D01*
X101631402Y-113878320D01*
X101647283Y-113913029D01*
X101634584Y-113979549D01*
X101615187Y-114040814D01*
X101508465Y-114222363D01*
X101345624Y-114385809D01*
X101147995Y-114512659D01*
X100936913Y-114584416D01*
X100903033Y-114589840D01*
X100642197Y-114587399D01*
X100394800Y-114513292D01*
X100177043Y-114377257D01*
X100005128Y-114189029D01*
X99895256Y-113958347D01*
X99893116Y-113951008D01*
X99885277Y-113901615D01*
X99909766Y-113875300D01*
X99984072Y-113864822D01*
X100125686Y-113862938D01*
X100277207Y-113868598D01*
X100369474Y-113889078D01*
X100409308Y-113928112D01*
X100432379Y-113965370D01*
X100528910Y-114039870D01*
X100664168Y-114095504D01*
X100806832Y-114117362D01*
X100926086Y-114092011D01*
X101066624Y-113990150D01*
X101098902Y-113958988D01*
X101183490Y-113897314D01*
X101281500Y-113869454D01*
X101428393Y-113862938D01*
X101440695Y-113862939D01*
G37*
G36*
X98864934Y-112941722D02*
G01*
X98865948Y-112941849D01*
X98899821Y-112950494D01*
X98857902Y-112956766D01*
X98749082Y-112959314D01*
X98637541Y-112957160D01*
X98587087Y-112950991D01*
X98610510Y-112942155D01*
X98726648Y-112934798D01*
X98864934Y-112941722D01*
G37*
G36*
X106221981Y-112773452D02*
G01*
X106229272Y-112775551D01*
X106235550Y-112788457D01*
X106169783Y-112794571D01*
X106159741Y-112794629D01*
X106093360Y-112788944D01*
X106094769Y-112775023D01*
X106129612Y-112767244D01*
X106221981Y-112773452D01*
G37*
G36*
X97488135Y-113230658D02*
G01*
X97587036Y-113246060D01*
X97625376Y-113269282D01*
X97604586Y-113286733D01*
X97519874Y-113304715D01*
X97392154Y-113311686D01*
X97296173Y-113307906D01*
X97197272Y-113292504D01*
X97158932Y-113269282D01*
X97179722Y-113251831D01*
X97264434Y-113233849D01*
X97392154Y-113226878D01*
X97488135Y-113230658D01*
G37*
G36*
X114147079Y-113230299D02*
G01*
X114257520Y-113245694D01*
X114311353Y-113269282D01*
X114303649Y-113287763D01*
X114226810Y-113305435D01*
X114080633Y-113311686D01*
X113963556Y-113307113D01*
X113862371Y-113291817D01*
X113823706Y-113269282D01*
X113843688Y-113252069D01*
X113927488Y-113233920D01*
X114054426Y-113226878D01*
X114147079Y-113230299D01*
G37*
G36*
X100405535Y-113228112D02*
G01*
X100561690Y-113234443D01*
X100637503Y-113248026D01*
X100636060Y-113269282D01*
X100608320Y-113280847D01*
X100510108Y-113298403D01*
X100375601Y-113308166D01*
X100228947Y-113310136D01*
X100094296Y-113304311D01*
X99995796Y-113290693D01*
X99957596Y-113269282D01*
X99960780Y-113263111D01*
X100021641Y-113244177D01*
X100149007Y-113231781D01*
X100328631Y-113227527D01*
X100405535Y-113228112D01*
G37*
G36*
X98864934Y-112772106D02*
G01*
X98865948Y-112772233D01*
X98899821Y-112780878D01*
X98857902Y-112787150D01*
X98749082Y-112789698D01*
X98637541Y-112787544D01*
X98587087Y-112781375D01*
X98610510Y-112772539D01*
X98726648Y-112765182D01*
X98864934Y-112772106D01*
G37*
G36*
X98906378Y-113700320D02*
G01*
X98966288Y-113717356D01*
X98982304Y-113754812D01*
X98981078Y-113767348D01*
X98952136Y-113799733D01*
X98872126Y-113816043D01*
X98724346Y-113820534D01*
X98700002Y-113820359D01*
X98550180Y-113807950D01*
X98480651Y-113781745D01*
X98490217Y-113749890D01*
X98577676Y-113720529D01*
X98741831Y-113701807D01*
X98784778Y-113699780D01*
X98906378Y-113700320D01*
G37*
G36*
X97530967Y-113698821D02*
G01*
X97604438Y-113718570D01*
X97625376Y-113756928D01*
X97605211Y-113794786D01*
X97532801Y-113814824D01*
X97392154Y-113820534D01*
X97253341Y-113815035D01*
X97179870Y-113795286D01*
X97158932Y-113756928D01*
X97179096Y-113719070D01*
X97251507Y-113699032D01*
X97392154Y-113693322D01*
X97530967Y-113698821D01*
G37*
G36*
X114193031Y-113400998D02*
G01*
X114293930Y-113416311D01*
X114332555Y-113438898D01*
X114305530Y-113458048D01*
X114213651Y-113474865D01*
X114078130Y-113481302D01*
X113963230Y-113476798D01*
X113862331Y-113461485D01*
X113823706Y-113438898D01*
X113850731Y-113419748D01*
X113942610Y-113402931D01*
X114078130Y-113396494D01*
X114193031Y-113400998D01*
G37*
G36*
X105707724Y-113400237D02*
G01*
X105807324Y-113414740D01*
X105830551Y-113438898D01*
X105793340Y-113457506D01*
X105691309Y-113474677D01*
X105552423Y-113481302D01*
X105439693Y-113476867D01*
X105339084Y-113461537D01*
X105300501Y-113438898D01*
X105334215Y-113418203D01*
X105433613Y-113402437D01*
X105578630Y-113396494D01*
X105707724Y-113400237D01*
G37*
G36*
X97488135Y-113400274D02*
G01*
X97587036Y-113415676D01*
X97625376Y-113438898D01*
X97604586Y-113456349D01*
X97519874Y-113474331D01*
X97392154Y-113481302D01*
X97296173Y-113477522D01*
X97197272Y-113462120D01*
X97158932Y-113438898D01*
X97179722Y-113421447D01*
X97264434Y-113403465D01*
X97392154Y-113396494D01*
X97488135Y-113400274D01*
G37*
G36*
X109540902Y-85848024D02*
G01*
X109540626Y-85933026D01*
X109537435Y-86142213D01*
X109531234Y-86314411D01*
X109522730Y-86433680D01*
X109512632Y-86484084D01*
X109493954Y-86488196D01*
X109400836Y-86494714D01*
X109239241Y-86500511D01*
X109019430Y-86505382D01*
X108751663Y-86509117D01*
X108446200Y-86511510D01*
X108113300Y-86512354D01*
X106742237Y-86512354D01*
X106742237Y-85240233D01*
X109540902Y-85240233D01*
X109540902Y-85848024D01*
G37*
G36*
X105833874Y-113228092D02*
G01*
X105989778Y-113234393D01*
X106065370Y-113247981D01*
X106063773Y-113269282D01*
X105999347Y-113289152D01*
X105885137Y-113303100D01*
X105744737Y-113310144D01*
X105600291Y-113310284D01*
X105473942Y-113303520D01*
X105387833Y-113289853D01*
X105364107Y-113269282D01*
X105375699Y-113261283D01*
X105455211Y-113243809D01*
X105589964Y-113231812D01*
X105758847Y-113227527D01*
X105833874Y-113228092D01*
G37*
G36*
X100836672Y-112773452D02*
G01*
X100843963Y-112775551D01*
X100850241Y-112788457D01*
X100784474Y-112794571D01*
X100774432Y-112794629D01*
X100708051Y-112788944D01*
X100709460Y-112775023D01*
X100744303Y-112767244D01*
X100836672Y-112773452D01*
G37*
G36*
X106487813Y-87996494D02*
G01*
X103731553Y-87996494D01*
X103731553Y-86766778D01*
X106487813Y-86766778D01*
X106487813Y-87996494D01*
G37*
G36*
X108873984Y-112772234D02*
G01*
X108887745Y-112774188D01*
X108899046Y-112781796D01*
X108837809Y-112787055D01*
X108714024Y-112788923D01*
X108677795Y-112788747D01*
X108573361Y-112785719D01*
X108537032Y-112779754D01*
X108577156Y-112771891D01*
X108582823Y-112771319D01*
X108733759Y-112765114D01*
X108873984Y-112772234D01*
G37*
G36*
X105762889Y-114204479D02*
G01*
X105763464Y-114247970D01*
X105761733Y-114407118D01*
X105754517Y-114528331D01*
X105743028Y-114588200D01*
X105718299Y-114602727D01*
X105627123Y-114617380D01*
X105498129Y-114617694D01*
X105279299Y-114605008D01*
X105254795Y-113862938D01*
X105756682Y-113862938D01*
X105762889Y-114204479D01*
G37*
G36*
X113385532Y-112774568D02*
G01*
X113392166Y-112787323D01*
X113357262Y-112802838D01*
X113334814Y-112799778D01*
X113328993Y-112774568D01*
X113335208Y-112769494D01*
X113385532Y-112774568D01*
G37*
G36*
X111025042Y-114711018D02*
G01*
X111025042Y-114147999D01*
X111024694Y-114041255D01*
X111018689Y-113801304D01*
X111001523Y-113629115D01*
X110968428Y-113512290D01*
X110914638Y-113438428D01*
X110835385Y-113395132D01*
X110725901Y-113370004D01*
X110558598Y-113343251D01*
X110558598Y-113014858D01*
X110643406Y-113014858D01*
X110643568Y-113084641D01*
X110647481Y-113211648D01*
X110661446Y-113279524D01*
X110691759Y-113306721D01*
X110744718Y-113311686D01*
X110839257Y-113332936D01*
X110946137Y-113392609D01*
X110947716Y-113393888D01*
X110987435Y-113431262D01*
X111015597Y-113478019D01*
X111034940Y-113549239D01*
X111048203Y-113660001D01*
X111058126Y-113825386D01*
X111067446Y-114060472D01*
X111088648Y-114647412D01*
X111668962Y-114672668D01*
X111653739Y-114045182D01*
X111653343Y-114029043D01*
X111644946Y-113771241D01*
X111633292Y-113581883D01*
X111616506Y-113445449D01*
X111592713Y-113346422D01*
X111560041Y-113269282D01*
X111538805Y-113230819D01*
X111386604Y-113023831D01*
X111206551Y-112873085D01*
X111012447Y-112787740D01*
X110818095Y-112776953D01*
X110756094Y-112785465D01*
X110714771Y-112784165D01*
X110749416Y-112762414D01*
X110789951Y-112743406D01*
X110805080Y-112726080D01*
X110738815Y-112721010D01*
X110719955Y-112720801D01*
X110677602Y-112730816D01*
X110654666Y-112771033D01*
X110645236Y-112859648D01*
X110643406Y-113014858D01*
X110558598Y-113014858D01*
X110558598Y-112675626D01*
X110738815Y-112676040D01*
X110904905Y-112699660D01*
X111106489Y-112768104D01*
X111295507Y-112865903D01*
X111435849Y-112977443D01*
X111514641Y-113072189D01*
X111591968Y-113200382D01*
X111645643Y-113350104D01*
X111679448Y-113537065D01*
X111697164Y-113776979D01*
X111702575Y-114085559D01*
X111703449Y-114672668D01*
X111703506Y-114711018D01*
X111025042Y-114711018D01*
G37*
G36*
X109896333Y-113721169D02*
G01*
X109852205Y-114013663D01*
X109736190Y-114261364D01*
X109547783Y-114465042D01*
X109286478Y-114625471D01*
X109129341Y-114679178D01*
X108869505Y-114703478D01*
X108605231Y-114661610D01*
X108363044Y-114555583D01*
X108292395Y-114507356D01*
X108095131Y-114310132D01*
X107959071Y-114067214D01*
X107911182Y-113862938D01*
X107929550Y-113862938D01*
X108188977Y-113862938D01*
X108284233Y-113864404D01*
X108407191Y-113878665D01*
X108498847Y-113917005D01*
X108593290Y-113990150D01*
X108600810Y-113996639D01*
X108767311Y-114092090D01*
X108941031Y-114113690D01*
X109103407Y-114062859D01*
X109235877Y-113941017D01*
X109238562Y-113937332D01*
X109294253Y-113892252D01*
X109389335Y-113869329D01*
X109546164Y-113862938D01*
X109559584Y-113862943D01*
X109694175Y-113865305D01*
X109762922Y-113877061D01*
X109783434Y-113905610D01*
X109773325Y-113958347D01*
X109741125Y-114040843D01*
X109630616Y-114215185D01*
X109480696Y-114375577D01*
X109317522Y-114491426D01*
X109211722Y-114535384D01*
X108988555Y-114583231D01*
X108757525Y-114587799D01*
X108557225Y-114546301D01*
X108551139Y-114543925D01*
X108404029Y-114458062D01*
X108254095Y-114327739D01*
X108127948Y-114179618D01*
X108052200Y-114040358D01*
X108039297Y-114004314D01*
X108005346Y-113936949D01*
X107983751Y-113933977D01*
X107982897Y-113984725D01*
X108023580Y-114095780D01*
X108102195Y-114226424D01*
X108204057Y-114353564D01*
X108314485Y-114454109D01*
X108362444Y-114485587D01*
X108529129Y-114568375D01*
X108697056Y-114623157D01*
X108732085Y-114630680D01*
X108847876Y-114654079D01*
X108923616Y-114661251D01*
X108994484Y-114652708D01*
X109095660Y-114628963D01*
X109123213Y-114621874D01*
X109378716Y-114513965D01*
X109581487Y-114351384D01*
X109728265Y-114147290D01*
X109815790Y-113914841D01*
X109840799Y-113667196D01*
X109800033Y-113417514D01*
X109690229Y-113178954D01*
X109508127Y-112964675D01*
X109351839Y-112846959D01*
X109180365Y-112771045D01*
X108971696Y-112730435D01*
X108703423Y-112718266D01*
X108395994Y-112718030D01*
X108395994Y-113566110D01*
X108650418Y-113566110D01*
X108765318Y-113570614D01*
X108866218Y-113585927D01*
X108904842Y-113608514D01*
X108900517Y-113618019D01*
X108841440Y-113641513D01*
X108735226Y-113650918D01*
X108697205Y-113651999D01*
X108603228Y-113666768D01*
X108565610Y-113693322D01*
X108574365Y-113705994D01*
X108642628Y-113727304D01*
X108756428Y-113735726D01*
X108947246Y-113735726D01*
X108947246Y-113523706D01*
X108949719Y-113447363D01*
X108963002Y-113349832D01*
X108983931Y-113311686D01*
X108986449Y-113311858D01*
X109045771Y-113339357D01*
X109132345Y-113399572D01*
X109146953Y-113410672D01*
X109215994Y-113449958D01*
X109244074Y-113441976D01*
X109276940Y-113418655D01*
X109368380Y-113402883D01*
X109491206Y-113396862D01*
X109618029Y-113400752D01*
X109721465Y-113414710D01*
X109774124Y-113438898D01*
X109763396Y-113458476D01*
X109680952Y-113475358D01*
X109528737Y-113481302D01*
X109257144Y-113481302D01*
X109261210Y-113675769D01*
X109259469Y-113720546D01*
X109256472Y-113797654D01*
X109223303Y-113890582D01*
X109146300Y-113972597D01*
X109135692Y-113981389D01*
X109024792Y-114047757D01*
X108921573Y-114074958D01*
X108861418Y-114069101D01*
X108730261Y-114027534D01*
X108615418Y-113960619D01*
X108550877Y-113885708D01*
X108548355Y-113879975D01*
X108519483Y-113856111D01*
X108618089Y-113856111D01*
X108634319Y-113903329D01*
X108733120Y-113967859D01*
X108733623Y-113968119D01*
X108836354Y-114015613D01*
X108907885Y-114025200D01*
X108989650Y-114002471D01*
X109060585Y-113964833D01*
X109157274Y-113856812D01*
X109204419Y-113720546D01*
X109195531Y-113581883D01*
X109124124Y-113466672D01*
X109058567Y-113414424D01*
X109014566Y-113409647D01*
X108994450Y-113471331D01*
X108989650Y-113608514D01*
X108989650Y-113820534D01*
X108798832Y-113820534D01*
X108683618Y-113828021D01*
X108618089Y-113856111D01*
X108519483Y-113856111D01*
X108505557Y-113844601D01*
X108411190Y-113825963D01*
X108248910Y-113820534D01*
X108184409Y-113820042D01*
X108055839Y-113812359D01*
X107990290Y-113792532D01*
X107971954Y-113756928D01*
X107975032Y-113738642D01*
X108023630Y-113703825D01*
X108141570Y-113693322D01*
X108417196Y-113693322D01*
X108425861Y-113704782D01*
X108485807Y-113735726D01*
X108500065Y-113732459D01*
X108502004Y-113693322D01*
X108493338Y-113681862D01*
X108433392Y-113650918D01*
X108419134Y-113654185D01*
X108417196Y-113693322D01*
X108141570Y-113693322D01*
X108179591Y-113692241D01*
X108273567Y-113677471D01*
X108311186Y-113650918D01*
X108302430Y-113638246D01*
X108234167Y-113616936D01*
X108120368Y-113608514D01*
X108048380Y-113609233D01*
X107967019Y-113620452D01*
X107935081Y-113657501D01*
X107929550Y-113735726D01*
X107929550Y-113862938D01*
X107911182Y-113862938D01*
X107895828Y-113797446D01*
X107876644Y-113566110D01*
X108311186Y-113566110D01*
X108311186Y-112675626D01*
X108715386Y-112675626D01*
X108849165Y-112677555D01*
X109088272Y-112697308D01*
X109275128Y-112743738D01*
X109430817Y-112823388D01*
X109576421Y-112942800D01*
X109608439Y-112974354D01*
X109775925Y-113187647D01*
X109869052Y-113420297D01*
X109894138Y-113667196D01*
X109896792Y-113693322D01*
X109896333Y-113721169D01*
G37*
G36*
X97508005Y-112941722D02*
G01*
X97509020Y-112941849D01*
X97542893Y-112950494D01*
X97500974Y-112956766D01*
X97392154Y-112959314D01*
X97280613Y-112957160D01*
X97230159Y-112950991D01*
X97253581Y-112942155D01*
X97369719Y-112934798D01*
X97508005Y-112941722D01*
G37*
G36*
X95936033Y-113567495D02*
G01*
X96113483Y-113575380D01*
X96227900Y-113589381D01*
X96268448Y-113608514D01*
X96253212Y-113620698D01*
X96166481Y-113636830D01*
X96012466Y-113647232D01*
X95802004Y-113650918D01*
X95667974Y-113649533D01*
X95490524Y-113641648D01*
X95376107Y-113627647D01*
X95335560Y-113608514D01*
X95350796Y-113596329D01*
X95437526Y-113580198D01*
X95591541Y-113569796D01*
X95802004Y-113566110D01*
X95936033Y-113567495D01*
G37*
G36*
X106939082Y-113401634D02*
G01*
X107042491Y-113416788D01*
X107081469Y-113438898D01*
X107055120Y-113457873D01*
X106964045Y-113474808D01*
X106829548Y-113481302D01*
X106716326Y-113476974D01*
X106604801Y-113461586D01*
X106551419Y-113438898D01*
X106563589Y-113418863D01*
X106648486Y-113402311D01*
X106803341Y-113396494D01*
X106939082Y-113401634D01*
G37*
G36*
X103826202Y-113111338D02*
G01*
X103827217Y-113111465D01*
X103861090Y-113120110D01*
X103819171Y-113126382D01*
X103710351Y-113128930D01*
X103598810Y-113126776D01*
X103548356Y-113120607D01*
X103571778Y-113111771D01*
X103687916Y-113104414D01*
X103826202Y-113111338D01*
G37*
G36*
X103477129Y-85848024D02*
G01*
X103476848Y-85932938D01*
X103473593Y-86142223D01*
X103467265Y-86314577D01*
X103458587Y-86434042D01*
X103448282Y-86484662D01*
X103430983Y-86488576D01*
X103339726Y-86494573D01*
X103179798Y-86499264D01*
X102961508Y-86502516D01*
X102695164Y-86504198D01*
X102391075Y-86504180D01*
X102059551Y-86502330D01*
X100699666Y-86491152D01*
X100687932Y-85865693D01*
X100676197Y-85240233D01*
X103477129Y-85240233D01*
X103477129Y-85848024D01*
G37*
G36*
X95936033Y-113228263D02*
G01*
X96113483Y-113236148D01*
X96227900Y-113250149D01*
X96268448Y-113269282D01*
X96253212Y-113281466D01*
X96166481Y-113297598D01*
X96012466Y-113308000D01*
X95802004Y-113311686D01*
X95667974Y-113310301D01*
X95490524Y-113302416D01*
X95376107Y-113288415D01*
X95335560Y-113269282D01*
X95350796Y-113257097D01*
X95437526Y-113240966D01*
X95591541Y-113230564D01*
X95802004Y-113226878D01*
X95936033Y-113228263D01*
G37*
G36*
X96020246Y-113871206D02*
G01*
X96253018Y-113884140D01*
X96218974Y-114014784D01*
X96213849Y-114031856D01*
X96141898Y-114165352D01*
X96023073Y-114309099D01*
X95881721Y-114437124D01*
X95742188Y-114523451D01*
X95615617Y-114562793D01*
X95473373Y-114582146D01*
X95335560Y-114583806D01*
X95335560Y-114355885D01*
X95337404Y-114241361D01*
X95350972Y-114161308D01*
X95387815Y-114123085D01*
X95459458Y-114103183D01*
X95461678Y-114102725D01*
X95578268Y-114052557D01*
X95685415Y-113968338D01*
X95717278Y-113935801D01*
X95787394Y-113887114D01*
X95877759Y-113868665D01*
X96020246Y-113871206D01*
G37*
G36*
X107115360Y-114096868D02*
G01*
X106964395Y-114330815D01*
X106941945Y-114356360D01*
X106716058Y-114548869D01*
X106445684Y-114671398D01*
X106336581Y-114694336D01*
X106201586Y-114707373D01*
X106063773Y-114711018D01*
X106063773Y-114041992D01*
X106206366Y-114015242D01*
X106354893Y-113957161D01*
X106459160Y-113851568D01*
X106503319Y-113719513D01*
X106481168Y-113580338D01*
X106386506Y-113453389D01*
X106380341Y-113448161D01*
X106233822Y-113367628D01*
X106090691Y-113370983D01*
X105955836Y-113458172D01*
X105950316Y-113463717D01*
X105910069Y-113509133D01*
X105882592Y-113560112D01*
X105865453Y-113632504D01*
X105856221Y-113742156D01*
X105852465Y-113904918D01*
X105851753Y-114136637D01*
X105851753Y-114711018D01*
X105173289Y-114711018D01*
X105173352Y-114668614D01*
X105207915Y-114668614D01*
X105480363Y-114668614D01*
X105613589Y-114665178D01*
X105726931Y-114654965D01*
X105781080Y-114640345D01*
X105782709Y-114637812D01*
X105793114Y-114576032D01*
X105801578Y-114448846D01*
X105807268Y-114273180D01*
X105809349Y-114065963D01*
X105810013Y-113855071D01*
X105813847Y-113693570D01*
X105823479Y-113585296D01*
X105841536Y-113513843D01*
X105870645Y-113462803D01*
X105913432Y-113415768D01*
X106009096Y-113345649D01*
X106167239Y-113305314D01*
X106326244Y-113337853D01*
X106462842Y-113442151D01*
X106499681Y-113490407D01*
X106567126Y-113649052D01*
X106550101Y-113803337D01*
X106448671Y-113951008D01*
X106441817Y-113957732D01*
X106324992Y-114042319D01*
X106215449Y-114074958D01*
X106195238Y-114075143D01*
X106144869Y-114083925D01*
X106118305Y-114119973D01*
X106107942Y-114202467D01*
X106106177Y-114350584D01*
X106106177Y-114626210D01*
X106466611Y-114611954D01*
X106307596Y-114595320D01*
X106148581Y-114578687D01*
X106148581Y-114368883D01*
X106150333Y-114266734D01*
X106167324Y-114184920D01*
X106217658Y-114136071D01*
X106319434Y-114090718D01*
X106358294Y-114073614D01*
X106468136Y-114007875D01*
X106532946Y-113942647D01*
X106541872Y-113927886D01*
X106590612Y-113887893D01*
X106679798Y-113868199D01*
X106831395Y-113862938D01*
X106847354Y-113862945D01*
X106981150Y-113865343D01*
X107049236Y-113877136D01*
X107069115Y-113905684D01*
X107058290Y-113958347D01*
X107010863Y-114077615D01*
X106864993Y-114291031D01*
X106663692Y-114461737D01*
X106638615Y-114477811D01*
X106539166Y-114547225D01*
X106507123Y-114580646D01*
X106543406Y-114574193D01*
X106648934Y-114523986D01*
X106778557Y-114434223D01*
X106935360Y-114270917D01*
X107059667Y-114079465D01*
X107114493Y-113902250D01*
X107131808Y-113685771D01*
X107111522Y-113468114D01*
X107053907Y-113286657D01*
X106975459Y-113131284D01*
X106233389Y-113127921D01*
X105491319Y-113124557D01*
X106201586Y-113111110D01*
X106484590Y-113103633D01*
X106691513Y-113092601D01*
X106826436Y-113076882D01*
X106895770Y-113055303D01*
X106905925Y-113026688D01*
X106863312Y-112989863D01*
X106856166Y-112987027D01*
X106779562Y-112976249D01*
X106639532Y-112967354D01*
X106453241Y-112961199D01*
X106237853Y-112958640D01*
X105660935Y-112957417D01*
X106212187Y-112933133D01*
X106763439Y-112908848D01*
X106615025Y-112825469D01*
X106597127Y-112815835D01*
X106382251Y-112747668D01*
X106138706Y-112738463D01*
X105891453Y-112783892D01*
X105665457Y-112879625D01*
X105485678Y-113021332D01*
X105471182Y-113037435D01*
X105384100Y-113145488D01*
X105321007Y-113255208D01*
X105277630Y-113383214D01*
X105249701Y-113546128D01*
X105232946Y-113760568D01*
X105223097Y-114043155D01*
X105207915Y-114668614D01*
X105173352Y-114668614D01*
X105174220Y-114085559D01*
X105177489Y-113839382D01*
X105192130Y-113585496D01*
X105222013Y-113388072D01*
X105270923Y-113231396D01*
X105342639Y-113099758D01*
X105440946Y-112977443D01*
X105532701Y-112896301D01*
X105731511Y-112782770D01*
X105961724Y-112705340D01*
X106190985Y-112676971D01*
X106404839Y-112699096D01*
X106656014Y-112788228D01*
X106866745Y-112934413D01*
X107031365Y-113125528D01*
X107144205Y-113349453D01*
X107199597Y-113594066D01*
X107196799Y-113685771D01*
X107191871Y-113847245D01*
X107115360Y-114096868D01*
G37*
G36*
X112838562Y-113569782D02*
G01*
X112937309Y-113585184D01*
X112975626Y-113608514D01*
X112947920Y-113627837D01*
X112855240Y-113644537D01*
X112718700Y-113650918D01*
X112608673Y-113647761D01*
X112510547Y-113633277D01*
X112487980Y-113608514D01*
X112516878Y-113591874D01*
X112612108Y-113573325D01*
X112744907Y-113566110D01*
X112838562Y-113569782D01*
G37*
G36*
X111618698Y-114216305D02*
G01*
X111618324Y-114272152D01*
X111612910Y-114429573D01*
X111602401Y-114546125D01*
X111588524Y-114599846D01*
X111564558Y-114609571D01*
X111473202Y-114619176D01*
X111344701Y-114617514D01*
X111131052Y-114605008D01*
X111116668Y-113862938D01*
X111618698Y-113862938D01*
X111618698Y-114216305D01*
G37*
G36*
X101698115Y-114095716D02*
G01*
X101560880Y-114330254D01*
X101364019Y-114519208D01*
X101113192Y-114650518D01*
X100881858Y-114705400D01*
X100623787Y-114701175D01*
X100387293Y-114632262D01*
X100178891Y-114508916D01*
X100005093Y-114341388D01*
X99872411Y-114139933D01*
X99787360Y-113914803D01*
X99758339Y-113690819D01*
X99830384Y-113690819D01*
X99855375Y-113925788D01*
X99953512Y-114180677D01*
X100122950Y-114391428D01*
X100360434Y-114552749D01*
X100585808Y-114626589D01*
X100850135Y-114638964D01*
X101112519Y-114583501D01*
X101348759Y-114462411D01*
X101513659Y-114303987D01*
X101643760Y-114082459D01*
X101714897Y-113831959D01*
X101721217Y-113573989D01*
X101656871Y-113330052D01*
X101635696Y-113284150D01*
X101482702Y-113041676D01*
X101290019Y-112872978D01*
X101052068Y-112774385D01*
X100763272Y-112742229D01*
X100649739Y-112745596D01*
X100441475Y-112781888D01*
X100266840Y-112868370D01*
X100094797Y-113017837D01*
X100075585Y-113037855D01*
X99932196Y-113228453D01*
X99854045Y-113436987D01*
X99830384Y-113690819D01*
X99758339Y-113690819D01*
X99756451Y-113676251D01*
X99786198Y-113434531D01*
X99883114Y-113199895D01*
X100053711Y-112982598D01*
X100272082Y-112811227D01*
X100531704Y-112701667D01*
X100813538Y-112673840D01*
X101118787Y-112727457D01*
X101164013Y-112743555D01*
X101337627Y-112844994D01*
X101506467Y-112994630D01*
X101645361Y-113167292D01*
X101729137Y-113337808D01*
X101771072Y-113538134D01*
X101770947Y-113573989D01*
X101770066Y-113827656D01*
X101698115Y-114095716D01*
G37*
G36*
X109658085Y-113569890D02*
G01*
X109756986Y-113585292D01*
X109795326Y-113608514D01*
X109774536Y-113625965D01*
X109689824Y-113643947D01*
X109562104Y-113650918D01*
X109466123Y-113647138D01*
X109367222Y-113631736D01*
X109328882Y-113608514D01*
X109349672Y-113591063D01*
X109434383Y-113573081D01*
X109562104Y-113566110D01*
X109658085Y-113569890D01*
G37*
G36*
X115604675Y-91049582D02*
G01*
X112806010Y-91049582D01*
X112806010Y-89777462D01*
X115604675Y-89777462D01*
X115604675Y-91049582D01*
G37*
G36*
X109393528Y-113227796D02*
G01*
X109560136Y-113234460D01*
X109670548Y-113248823D01*
X109710518Y-113269282D01*
X109700674Y-113280847D01*
X109629628Y-113298403D01*
X109510228Y-113308166D01*
X109366621Y-113310136D01*
X109222957Y-113304311D01*
X109103385Y-113290693D01*
X109032054Y-113269282D01*
X109022806Y-113260678D01*
X109048964Y-113242247D01*
X109153494Y-113231337D01*
X109339483Y-113227527D01*
X109393528Y-113227796D01*
G37*
G36*
X100244823Y-113698821D02*
G01*
X100318294Y-113718570D01*
X100339232Y-113756928D01*
X100319068Y-113794786D01*
X100246657Y-113814824D01*
X100106010Y-113820534D01*
X99967197Y-113815035D01*
X99893726Y-113795286D01*
X99872788Y-113756928D01*
X99892953Y-113719070D01*
X99965363Y-113699032D01*
X100106010Y-113693322D01*
X100244823Y-113698821D01*
G37*
G36*
X111225182Y-113110849D02*
G01*
X111267871Y-113115550D01*
X111263647Y-113121399D01*
X111187270Y-113125448D01*
X111046244Y-113127018D01*
X110944370Y-113126404D01*
X110840394Y-113123203D01*
X110803898Y-113117869D01*
X110843546Y-113111084D01*
X110883625Y-113108161D01*
X111055445Y-113104433D01*
X111225182Y-113110849D01*
G37*
G36*
X111433907Y-113401634D02*
G01*
X111537316Y-113416788D01*
X111576294Y-113438898D01*
X111549944Y-113457873D01*
X111458870Y-113474808D01*
X111324373Y-113481302D01*
X111211150Y-113476974D01*
X111099626Y-113461586D01*
X111046244Y-113438898D01*
X111058414Y-113418863D01*
X111143311Y-113402311D01*
X111298165Y-113396494D01*
X111433907Y-113401634D01*
G37*
G36*
X114194742Y-88260940D02*
G01*
X115583473Y-88272120D01*
X115595207Y-88897579D01*
X115606942Y-89523038D01*
X112806010Y-89523038D01*
X112806010Y-88249759D01*
X114194742Y-88260940D01*
G37*
G36*
X101620234Y-113700320D02*
G01*
X101680145Y-113717356D01*
X101696161Y-113754812D01*
X101694934Y-113767348D01*
X101665992Y-113799733D01*
X101585982Y-113816043D01*
X101438203Y-113820534D01*
X101413859Y-113820359D01*
X101264036Y-113807950D01*
X101194508Y-113781745D01*
X101204073Y-113749890D01*
X101291533Y-113720529D01*
X101455688Y-113701807D01*
X101498634Y-113699780D01*
X101620234Y-113700320D01*
G37*
G36*
X114215944Y-113111395D02*
G01*
X114224238Y-113112495D01*
X114246498Y-113120599D01*
X114194627Y-113126326D01*
X114078130Y-113128497D01*
X114060689Y-113128462D01*
X113951606Y-113125791D01*
X113908313Y-113119709D01*
X113940317Y-113111395D01*
X114067253Y-113104377D01*
X114215944Y-113111395D01*
G37*
G36*
X103477129Y-91049582D02*
G01*
X100678464Y-91049582D01*
X100678464Y-89777462D01*
X103477129Y-89777462D01*
X103477129Y-91049582D01*
G37*
G36*
X101072262Y-113931318D02*
G01*
X100954090Y-114023742D01*
X100813454Y-114071737D01*
X100652117Y-114049502D01*
X100500278Y-113945699D01*
X100420353Y-113854248D01*
X100387733Y-113767305D01*
X100393495Y-113648871D01*
X100394991Y-113637720D01*
X100458337Y-113637720D01*
X100461677Y-113781192D01*
X100533584Y-113905024D01*
X100563011Y-113931250D01*
X100703792Y-114001495D01*
X100848171Y-114004011D01*
X100976108Y-113946609D01*
X101067566Y-113837099D01*
X101102504Y-113683290D01*
X101090236Y-113609585D01*
X101020457Y-113485726D01*
X100911350Y-113391520D01*
X100788766Y-113354090D01*
X100782238Y-113354267D01*
X100675900Y-113385260D01*
X100567752Y-113453389D01*
X100521499Y-113501912D01*
X100458337Y-113637720D01*
X100394991Y-113637720D01*
X100415970Y-113481302D01*
X100141877Y-113481302D01*
X100016430Y-113477669D01*
X99917097Y-113463167D01*
X99893990Y-113438898D01*
X99940959Y-113415102D01*
X100041860Y-113400093D01*
X100167997Y-113396089D01*
X100291991Y-113402709D01*
X100386465Y-113419569D01*
X100424040Y-113446290D01*
X100424524Y-113450779D01*
X100456193Y-113452862D01*
X100522182Y-113403886D01*
X100526651Y-113399784D01*
X100662855Y-113328641D01*
X100828168Y-113314477D01*
X100987400Y-113360570D01*
X101066614Y-113382856D01*
X101204811Y-113397889D01*
X101366248Y-113400129D01*
X101496360Y-113399090D01*
X101614787Y-113411205D01*
X101653757Y-113439671D01*
X101638246Y-113460073D01*
X101551455Y-113476316D01*
X101385270Y-113474319D01*
X101116783Y-113460100D01*
X101132130Y-113650918D01*
X101131193Y-113683290D01*
X101127424Y-113813495D01*
X101072262Y-113931318D01*
G37*
G36*
X98912757Y-114021953D02*
G01*
X98840340Y-114163602D01*
X98664986Y-114370931D01*
X98439293Y-114517546D01*
X98176628Y-114593075D01*
X98116181Y-114598488D01*
X97875596Y-114574162D01*
X97644229Y-114486068D01*
X97440591Y-114346124D01*
X97283196Y-114166245D01*
X97190553Y-113958347D01*
X97182890Y-113905420D01*
X97205592Y-113876691D01*
X97276906Y-113865094D01*
X97414921Y-113862938D01*
X97568436Y-113869566D01*
X97663033Y-113893659D01*
X97718380Y-113941017D01*
X97723801Y-113948495D01*
X97858137Y-114066948D01*
X98021485Y-114114322D01*
X98195283Y-114089195D01*
X98360967Y-113990150D01*
X98386750Y-113968024D01*
X98484683Y-113901136D01*
X98590333Y-113870361D01*
X98741915Y-113862938D01*
X98977977Y-113862938D01*
X98912757Y-114021953D01*
G37*
G36*
X112766874Y-113693634D02*
G01*
X112893981Y-113701008D01*
X112957999Y-113721393D01*
X112975626Y-113759044D01*
X112974731Y-113770734D01*
X112949229Y-113802619D01*
X112875301Y-113815083D01*
X112735153Y-113812049D01*
X112710566Y-113810575D01*
X112555899Y-113790083D01*
X112478076Y-113759967D01*
X112478297Y-113728372D01*
X112557761Y-113703442D01*
X112717669Y-113693322D01*
X112766874Y-113693634D01*
G37*
G36*
X115604675Y-85848024D02*
G01*
X115604399Y-85933026D01*
X115601208Y-86142213D01*
X115595007Y-86314411D01*
X115586503Y-86433680D01*
X115576405Y-86484084D01*
X115557727Y-86488196D01*
X115464609Y-86494714D01*
X115303014Y-86500511D01*
X115083203Y-86505382D01*
X114815436Y-86509117D01*
X114509973Y-86511510D01*
X114177073Y-86512354D01*
X112806010Y-86512354D01*
X112806010Y-85240233D01*
X115604675Y-85240233D01*
X115604675Y-85848024D01*
G37*
G36*
X95936033Y-113397879D02*
G01*
X96113483Y-113405764D01*
X96227900Y-113419765D01*
X96268448Y-113438898D01*
X96253212Y-113451082D01*
X96166481Y-113467214D01*
X96012466Y-113477616D01*
X95802004Y-113481302D01*
X95667974Y-113479917D01*
X95490524Y-113472032D01*
X95376107Y-113458031D01*
X95335560Y-113438898D01*
X95350796Y-113426713D01*
X95437526Y-113410582D01*
X95591541Y-113400180D01*
X95802004Y-113396494D01*
X95936033Y-113397879D01*
G37*
G36*
X106487813Y-86512354D02*
G01*
X103731553Y-86512354D01*
X103731553Y-85240233D01*
X106487813Y-85240233D01*
X106487813Y-86512354D01*
G37*
G36*
X96151077Y-112772106D02*
G01*
X96152092Y-112772233D01*
X96185965Y-112780878D01*
X96144046Y-112787150D01*
X96035226Y-112789698D01*
X95923684Y-112787544D01*
X95873231Y-112781375D01*
X95896653Y-112772539D01*
X96012791Y-112765182D01*
X96151077Y-112772106D01*
G37*
G36*
X105627421Y-113570614D02*
G01*
X105728321Y-113585927D01*
X105766945Y-113608514D01*
X105739920Y-113627664D01*
X105648042Y-113644481D01*
X105512521Y-113650918D01*
X105397621Y-113646414D01*
X105296721Y-113631101D01*
X105258097Y-113608514D01*
X105285122Y-113589364D01*
X105377000Y-113572547D01*
X105512521Y-113566110D01*
X105627421Y-113570614D01*
G37*
G36*
X103759888Y-113696690D02*
G01*
X103871928Y-113705643D01*
X103928160Y-113724841D01*
X103943573Y-113756928D01*
X103936807Y-113778754D01*
X103899504Y-113799419D01*
X103817612Y-113811571D01*
X103677748Y-113816899D01*
X103466528Y-113817090D01*
X103375931Y-113816342D01*
X103203335Y-113813467D01*
X103101302Y-113807731D01*
X103059644Y-113797339D01*
X103068171Y-113780493D01*
X103116695Y-113755397D01*
X103116870Y-113755316D01*
X103228325Y-113725012D01*
X103396545Y-113703816D01*
X103593740Y-113695235D01*
X103759888Y-113696690D01*
G37*
G36*
X109212271Y-112941058D02*
G01*
X109241032Y-112942924D01*
X109274263Y-112948110D01*
X109231806Y-112952296D01*
X109120516Y-112955094D01*
X108947246Y-112956113D01*
X108883607Y-112955997D01*
X108730042Y-112954348D01*
X108640720Y-112951049D01*
X108622494Y-112946489D01*
X108682221Y-112941058D01*
X108790359Y-112936784D01*
X109010642Y-112935151D01*
X109212271Y-112941058D01*
G37*
G36*
X98864934Y-113111338D02*
G01*
X98865948Y-113111465D01*
X98899821Y-113120110D01*
X98857902Y-113126382D01*
X98749082Y-113128930D01*
X98637541Y-113126776D01*
X98587087Y-113120607D01*
X98610510Y-113111771D01*
X98726648Y-113104414D01*
X98864934Y-113111338D01*
G37*
G36*
X109700917Y-113698821D02*
G01*
X109774388Y-113718570D01*
X109795326Y-113756928D01*
X109775161Y-113794786D01*
X109702751Y-113814824D01*
X109562104Y-113820534D01*
X109423291Y-113815035D01*
X109349820Y-113795286D01*
X109328882Y-113756928D01*
X109349046Y-113719070D01*
X109421457Y-113699032D01*
X109562104Y-113693322D01*
X109700917Y-113698821D01*
G37*
G36*
X106487813Y-89523038D02*
G01*
X103731553Y-89523038D01*
X103731553Y-88250918D01*
X106487813Y-88250918D01*
X106487813Y-89523038D01*
G37*
G36*
X97508005Y-112772106D02*
G01*
X97509020Y-112772233D01*
X97542893Y-112780878D01*
X97500974Y-112787150D01*
X97392154Y-112789698D01*
X97280613Y-112787544D01*
X97230159Y-112781375D01*
X97253581Y-112772539D01*
X97369719Y-112765182D01*
X97508005Y-112772106D01*
G37*
G36*
X114215944Y-112941779D02*
G01*
X114224238Y-112942879D01*
X114246498Y-112950983D01*
X114194627Y-112956710D01*
X114078130Y-112958881D01*
X114060689Y-112958846D01*
X113951606Y-112956175D01*
X113908313Y-112950093D01*
X113940317Y-112941779D01*
X114067253Y-112934761D01*
X114215944Y-112941779D01*
G37*
G36*
X99083220Y-113563629D02*
G01*
X99077841Y-113744053D01*
X99067008Y-113874494D01*
X99048461Y-113972445D01*
X99019942Y-114055402D01*
X98979190Y-114140856D01*
X98856195Y-114325947D01*
X98648878Y-114519216D01*
X98404444Y-114648762D01*
X98132628Y-114704399D01*
X97862380Y-114683650D01*
X97609602Y-114592891D01*
X97388097Y-114439252D01*
X97211665Y-114229862D01*
X97094108Y-113971853D01*
X97060235Y-113798274D01*
X97038939Y-113544140D01*
X97033805Y-113313048D01*
X97116528Y-113313048D01*
X97119586Y-113574615D01*
X97132696Y-113805162D01*
X97159728Y-113981338D01*
X97204506Y-114119166D01*
X97270855Y-114234668D01*
X97362600Y-114343867D01*
X97368557Y-114350041D01*
X97491673Y-114454842D01*
X97626371Y-114541247D01*
X97666493Y-114560218D01*
X97872030Y-114623010D01*
X98093615Y-114648082D01*
X98288651Y-114629742D01*
X98440530Y-114576324D01*
X98669675Y-114431473D01*
X98854719Y-114231591D01*
X98976448Y-113994423D01*
X98978828Y-113986628D01*
X98996733Y-113881076D01*
X99011312Y-113714636D01*
X99021118Y-113508574D01*
X99024708Y-113284156D01*
X99024708Y-112718030D01*
X98473456Y-112718030D01*
X98473456Y-113199348D01*
X98473208Y-113267569D01*
X98465027Y-113529124D01*
X98442831Y-113721822D01*
X98403298Y-113858249D01*
X98343109Y-113950993D01*
X98258944Y-114012640D01*
X98123725Y-114063102D01*
X97959890Y-114059004D01*
X97807958Y-113972722D01*
X97790543Y-113957644D01*
X97747925Y-113915434D01*
X97718748Y-113866771D01*
X97699945Y-113795989D01*
X97688447Y-113687421D01*
X97681186Y-113525399D01*
X97675095Y-113294258D01*
X97661209Y-112718030D01*
X97116528Y-112718030D01*
X97116528Y-113313048D01*
X97033805Y-113313048D01*
X97031720Y-113219182D01*
X97031720Y-112675626D01*
X97752588Y-112675626D01*
X97752588Y-113243382D01*
X97753004Y-113350219D01*
X97760020Y-113596943D01*
X97779273Y-113774049D01*
X97815362Y-113892576D01*
X97872883Y-113963568D01*
X97956436Y-113998066D01*
X98070618Y-114007112D01*
X98116400Y-114006051D01*
X98218690Y-113989000D01*
X98292101Y-113942523D01*
X98341217Y-113855586D01*
X98370624Y-113717154D01*
X98384906Y-113516193D01*
X98388648Y-113241667D01*
X98388648Y-112672196D01*
X99088314Y-112696828D01*
X99085552Y-113284156D01*
X99085390Y-113318500D01*
X99083220Y-113563629D01*
G37*
G36*
X96151077Y-113111338D02*
G01*
X96152092Y-113111465D01*
X96185965Y-113120110D01*
X96144046Y-113126382D01*
X96035226Y-113128930D01*
X95923684Y-113126776D01*
X95873231Y-113120607D01*
X95896653Y-113111771D01*
X96012791Y-113104414D01*
X96151077Y-113111338D01*
G37*
G36*
X101049499Y-112941009D02*
G01*
X101091513Y-112943667D01*
X101115225Y-112948481D01*
X101064026Y-112952343D01*
X100944509Y-112954911D01*
X100763272Y-112955843D01*
X100665346Y-112955603D01*
X100514146Y-112953810D01*
X100427966Y-112950553D01*
X100413400Y-112946172D01*
X100477045Y-112941009D01*
X100610763Y-112936420D01*
X100840697Y-112935272D01*
X101049499Y-112941009D01*
G37*
G36*
X106679672Y-113227796D02*
G01*
X106846279Y-113234460D01*
X106956691Y-113248823D01*
X106996661Y-113269282D01*
X106986817Y-113280847D01*
X106915772Y-113298403D01*
X106796371Y-113308166D01*
X106652765Y-113310136D01*
X106509101Y-113304311D01*
X106389529Y-113290693D01*
X106318197Y-113269282D01*
X106308950Y-113260678D01*
X106335107Y-113242247D01*
X106439637Y-113231337D01*
X106625626Y-113227527D01*
X106679672Y-113227796D01*
G37*
G36*
X111188040Y-113228169D02*
G01*
X111345843Y-113235797D01*
X111461097Y-113250246D01*
X111512688Y-113269282D01*
X111491290Y-113289152D01*
X111407282Y-113303100D01*
X111282135Y-113310144D01*
X111137993Y-113310284D01*
X110996997Y-113303520D01*
X110881293Y-113289853D01*
X110813022Y-113269282D01*
X110803827Y-113260832D01*
X110829198Y-113242311D01*
X110932864Y-113231352D01*
X111117948Y-113227527D01*
X111188040Y-113228169D01*
G37*
G36*
X97488135Y-113569890D02*
G01*
X97587036Y-113585292D01*
X97625376Y-113608514D01*
X97604586Y-113625965D01*
X97519874Y-113643947D01*
X97392154Y-113650918D01*
X97296173Y-113647138D01*
X97197272Y-113631736D01*
X97158932Y-113608514D01*
X97179722Y-113591063D01*
X97264434Y-113573081D01*
X97392154Y-113566110D01*
X97488135Y-113569890D01*
G37*
G36*
X115604675Y-87996494D02*
G01*
X112806010Y-87996494D01*
X112806010Y-86766778D01*
X115604675Y-86766778D01*
X115604675Y-87996494D01*
G37*
G36*
X103349917Y-114711018D02*
G01*
X103349917Y-114492426D01*
X103348776Y-114377166D01*
X103339875Y-114314136D01*
X103315000Y-114309674D01*
X103265938Y-114349834D01*
X103265761Y-114349994D01*
X103198693Y-114445547D01*
X103155209Y-114568426D01*
X103128458Y-114711018D01*
X102459433Y-114711018D01*
X102459669Y-114594407D01*
X102473911Y-114444382D01*
X102549477Y-114196735D01*
X102676988Y-113979549D01*
X102802661Y-113820534D01*
X102459433Y-113820534D01*
X102459433Y-113735726D01*
X102501837Y-113735726D01*
X102713857Y-113735726D01*
X102790192Y-113738086D01*
X102887728Y-113750763D01*
X102925877Y-113770738D01*
X102925149Y-113775441D01*
X102889183Y-113831023D01*
X102815740Y-113908551D01*
X102714812Y-114025094D01*
X102625243Y-114172437D01*
X102568041Y-114316087D01*
X102557145Y-114428047D01*
X102565550Y-114467420D01*
X102574941Y-114478348D01*
X102580870Y-114408381D01*
X102594550Y-114346957D01*
X102647102Y-114223514D01*
X102724458Y-114090351D01*
X102862271Y-113884140D01*
X103404591Y-113872260D01*
X103946912Y-113860379D01*
X103934641Y-114232694D01*
X103922371Y-114605008D01*
X103477129Y-114630642D01*
X103477129Y-114395204D01*
X103476326Y-114318138D01*
X103467301Y-114216958D01*
X103442672Y-114170765D01*
X103395583Y-114159766D01*
X103374015Y-114162455D01*
X103277731Y-114211504D01*
X103173843Y-114302793D01*
X103087885Y-114410789D01*
X103045390Y-114509959D01*
X103043146Y-114523489D01*
X103017794Y-114576578D01*
X102953429Y-114604327D01*
X102827173Y-114618067D01*
X102794124Y-114619614D01*
X102647406Y-114610342D01*
X102555252Y-114575663D01*
X102541016Y-114564119D01*
X102502753Y-114542896D01*
X102508921Y-114583806D01*
X102546793Y-114621197D01*
X102643945Y-114646173D01*
X102812645Y-114659951D01*
X102887055Y-114663118D01*
X103006631Y-114664568D01*
X103068614Y-114652479D01*
X103091927Y-114620250D01*
X103095493Y-114561280D01*
X103116035Y-114482280D01*
X103175256Y-114382318D01*
X103253955Y-114290974D01*
X103332648Y-114230484D01*
X103391852Y-114223082D01*
X103406313Y-114244357D01*
X103426714Y-114332565D01*
X103434725Y-114459097D01*
X103434725Y-114668614D01*
X103985977Y-114668614D01*
X103985977Y-111827546D01*
X103436878Y-111827546D01*
X103425201Y-112495409D01*
X103413523Y-113163272D01*
X102957680Y-113175307D01*
X102501837Y-113187343D01*
X102501837Y-113735726D01*
X102459433Y-113735726D01*
X102459433Y-113099666D01*
X103347763Y-113099666D01*
X103371119Y-111763940D01*
X104028381Y-111739170D01*
X104028381Y-114711018D01*
X103349917Y-114711018D01*
G37*
G36*
X98845063Y-113400274D02*
G01*
X98943964Y-113415676D01*
X98982304Y-113438898D01*
X98961514Y-113456349D01*
X98876802Y-113474331D01*
X98749082Y-113481302D01*
X98653101Y-113477522D01*
X98554200Y-113462120D01*
X98515860Y-113438898D01*
X98536650Y-113421447D01*
X98621362Y-113403465D01*
X98749082Y-113396494D01*
X98845063Y-113400274D01*
G37*
G36*
X108767601Y-113230658D02*
G01*
X108866502Y-113246060D01*
X108904842Y-113269282D01*
X108884052Y-113286733D01*
X108799340Y-113304715D01*
X108671620Y-113311686D01*
X108575639Y-113307906D01*
X108476737Y-113292504D01*
X108438398Y-113269282D01*
X108459187Y-113251831D01*
X108543899Y-113233849D01*
X108671620Y-113226878D01*
X108767601Y-113230658D01*
G37*
G36*
X114117712Y-113694526D02*
G01*
X114254245Y-113710849D01*
X114317868Y-113744544D01*
X114303132Y-113793417D01*
X114275697Y-113803738D01*
X114181561Y-113815824D01*
X114049861Y-113820534D01*
X113920246Y-113815502D01*
X113845185Y-113795806D01*
X113823706Y-113756928D01*
X113843058Y-113719553D01*
X113914630Y-113699146D01*
X114054426Y-113693322D01*
X114117712Y-113694526D01*
G37*
G36*
X96172688Y-113698522D02*
G01*
X96247168Y-113718239D01*
X96268448Y-113756928D01*
X96268010Y-113764114D01*
X96241541Y-113798135D01*
X96162649Y-113815604D01*
X96015354Y-113820534D01*
X95944276Y-113819924D01*
X95834679Y-113812406D01*
X95787335Y-113792852D01*
X95786669Y-113756928D01*
X95807303Y-113730068D01*
X95888647Y-113701943D01*
X96039762Y-113693322D01*
X96172688Y-113698522D01*
G37*
G36*
X103333803Y-113566344D02*
G01*
X103590997Y-113570327D01*
X103782615Y-113578941D01*
X103902269Y-113591799D01*
X103943573Y-113608514D01*
X103939714Y-113613962D01*
X103873998Y-113629550D01*
X103731867Y-113641163D01*
X103519708Y-113648415D01*
X103243907Y-113650918D01*
X103154011Y-113650684D01*
X102896816Y-113646701D01*
X102705199Y-113638087D01*
X102585545Y-113625229D01*
X102544241Y-113608514D01*
X102548100Y-113603066D01*
X102613816Y-113587478D01*
X102755947Y-113575865D01*
X102968106Y-113568613D01*
X103243907Y-113566110D01*
X103333803Y-113566344D01*
G37*
%TO.C,R1*%
X98398064Y-89689000D02*
X97943936Y-89689000D01*
X98398064Y-91159000D02*
X97943936Y-91159000D01*
%TO.C,R2*%
X94157436Y-91159000D02*
X94611564Y-91159000D01*
X94157436Y-89689000D02*
X94611564Y-89689000D01*
%TO.C,J2*%
X90300000Y-80410000D02*
X90300000Y-80900000D01*
X94200000Y-80900000D02*
X94200000Y-81700000D01*
D11*
X92800000Y-80900000D02*
X92800000Y-81700000D01*
X87150000Y-80900000D02*
X99850000Y-80900000D01*
X99850000Y-80900000D02*
X99850000Y-86100000D01*
X99850000Y-86100000D02*
X87150000Y-86100000D01*
X87150000Y-86100000D02*
X87150000Y-80900000D01*
X88000000Y-81700000D02*
X99000000Y-81700000D01*
X99000000Y-81700000D02*
X99000000Y-85300000D01*
X99000000Y-85300000D02*
X88000000Y-85300000D01*
X88000000Y-85300000D02*
X88000000Y-81700000D01*
%TD*%
M02*
