%TF.GenerationSoftware,KiCad,Pcbnew,6.0.11-2627ca5db0~126~ubuntu22.04.1*%
%TF.CreationDate,2025-02-25T14:04:31+01:00*%
%TF.ProjectId,MidiBreakOut,4d696469-4272-4656-916b-4f75742e6b69,rev?*%
%TF.SameCoordinates,Original*%
%TF.FileFunction,Legend,Top*%
%TF.FilePolarity,Positive*%
%FSLAX46Y46*%
G04 Gerber Fmt 4.6, Leading zero omitted, Abs format (unit mm)*
G04 Created by KiCad (PCBNEW 6.0.11-2627ca5db0~126~ubuntu22.04.1) date 2025-02-25 14:04:31*
%MOMM*%
%LPD*%
G01*
G04 APERTURE LIST*
%ADD10C,0.150000*%
%ADD11C,0.152400*%
G04 APERTURE END LIST*
D10*
X86007619Y-109422380D02*
X85674285Y-108946190D01*
X85436190Y-109422380D02*
X85436190Y-108422380D01*
X85817142Y-108422380D01*
X85912380Y-108470000D01*
X85960000Y-108517619D01*
X86007619Y-108612857D01*
X86007619Y-108755714D01*
X85960000Y-108850952D01*
X85912380Y-108898571D01*
X85817142Y-108946190D01*
X85436190Y-108946190D01*
X86436190Y-108898571D02*
X86769523Y-108898571D01*
X86912380Y-109422380D02*
X86436190Y-109422380D01*
X86436190Y-108422380D01*
X86912380Y-108422380D01*
X87293333Y-109374761D02*
X87436190Y-109422380D01*
X87674285Y-109422380D01*
X87769523Y-109374761D01*
X87817142Y-109327142D01*
X87864761Y-109231904D01*
X87864761Y-109136666D01*
X87817142Y-109041428D01*
X87769523Y-108993809D01*
X87674285Y-108946190D01*
X87483809Y-108898571D01*
X87388571Y-108850952D01*
X87340952Y-108803333D01*
X87293333Y-108708095D01*
X87293333Y-108612857D01*
X87340952Y-108517619D01*
X87388571Y-108470000D01*
X87483809Y-108422380D01*
X87721904Y-108422380D01*
X87864761Y-108470000D01*
X88293333Y-108898571D02*
X88626666Y-108898571D01*
X88769523Y-109422380D02*
X88293333Y-109422380D01*
X88293333Y-108422380D01*
X88769523Y-108422380D01*
X89055238Y-108422380D02*
X89626666Y-108422380D01*
X89340952Y-109422380D02*
X89340952Y-108422380D01*
X85954761Y-99167142D02*
X85907142Y-99214761D01*
X85764285Y-99262380D01*
X85669047Y-99262380D01*
X85526190Y-99214761D01*
X85430952Y-99119523D01*
X85383333Y-99024285D01*
X85335714Y-98833809D01*
X85335714Y-98690952D01*
X85383333Y-98500476D01*
X85430952Y-98405238D01*
X85526190Y-98310000D01*
X85669047Y-98262380D01*
X85764285Y-98262380D01*
X85907142Y-98310000D01*
X85954761Y-98357619D01*
X86240476Y-98262380D02*
X86573809Y-99262380D01*
X86907142Y-98262380D01*
X87192857Y-98357619D02*
X87240476Y-98310000D01*
X87335714Y-98262380D01*
X87573809Y-98262380D01*
X87669047Y-98310000D01*
X87716666Y-98357619D01*
X87764285Y-98452857D01*
X87764285Y-98548095D01*
X87716666Y-98690952D01*
X87145238Y-99262380D01*
X87764285Y-99262380D01*
X85516190Y-93886666D02*
X85992380Y-93886666D01*
X85420952Y-94172380D02*
X85754285Y-93172380D01*
X86087619Y-94172380D01*
X86420952Y-93172380D02*
X86420952Y-93981904D01*
X86468571Y-94077142D01*
X86516190Y-94124761D01*
X86611428Y-94172380D01*
X86801904Y-94172380D01*
X86897142Y-94124761D01*
X86944761Y-94077142D01*
X86992380Y-93981904D01*
X86992380Y-93172380D01*
X87468571Y-94172380D02*
X87468571Y-93172380D01*
X87706666Y-93172380D01*
X87849523Y-93220000D01*
X87944761Y-93315238D01*
X87992380Y-93410476D01*
X88040000Y-93600952D01*
X88040000Y-93743809D01*
X87992380Y-93934285D01*
X87944761Y-94029523D01*
X87849523Y-94124761D01*
X87706666Y-94172380D01*
X87468571Y-94172380D01*
X88468571Y-94172380D02*
X88468571Y-93172380D01*
X89135238Y-93172380D02*
X89325714Y-93172380D01*
X89420952Y-93220000D01*
X89516190Y-93315238D01*
X89563809Y-93505714D01*
X89563809Y-93839047D01*
X89516190Y-94029523D01*
X89420952Y-94124761D01*
X89325714Y-94172380D01*
X89135238Y-94172380D01*
X89040000Y-94124761D01*
X88944761Y-94029523D01*
X88897142Y-93839047D01*
X88897142Y-93505714D01*
X88944761Y-93315238D01*
X89040000Y-93220000D01*
X89135238Y-93172380D01*
X86033333Y-106852380D02*
X85700000Y-106376190D01*
X85461904Y-106852380D02*
X85461904Y-105852380D01*
X85842857Y-105852380D01*
X85938095Y-105900000D01*
X85985714Y-105947619D01*
X86033333Y-106042857D01*
X86033333Y-106185714D01*
X85985714Y-106280952D01*
X85938095Y-106328571D01*
X85842857Y-106376190D01*
X85461904Y-106376190D01*
X86366666Y-105852380D02*
X87033333Y-106852380D01*
X87033333Y-105852380D02*
X86366666Y-106852380D01*
X87414285Y-106852380D02*
X87414285Y-105852380D01*
X87652380Y-105852380D01*
X87795238Y-105900000D01*
X87890476Y-105995238D01*
X87938095Y-106090476D01*
X87985714Y-106280952D01*
X87985714Y-106423809D01*
X87938095Y-106614285D01*
X87890476Y-106709523D01*
X87795238Y-106804761D01*
X87652380Y-106852380D01*
X87414285Y-106852380D01*
X85954761Y-96627142D02*
X85907142Y-96674761D01*
X85764285Y-96722380D01*
X85669047Y-96722380D01*
X85526190Y-96674761D01*
X85430952Y-96579523D01*
X85383333Y-96484285D01*
X85335714Y-96293809D01*
X85335714Y-96150952D01*
X85383333Y-95960476D01*
X85430952Y-95865238D01*
X85526190Y-95770000D01*
X85669047Y-95722380D01*
X85764285Y-95722380D01*
X85907142Y-95770000D01*
X85954761Y-95817619D01*
X86240476Y-95722380D02*
X86573809Y-96722380D01*
X86907142Y-95722380D01*
X87764285Y-96722380D02*
X87192857Y-96722380D01*
X87478571Y-96722380D02*
X87478571Y-95722380D01*
X87383333Y-95865238D01*
X87288095Y-95960476D01*
X87192857Y-96008095D01*
X85938095Y-111010000D02*
X85842857Y-110962380D01*
X85700000Y-110962380D01*
X85557142Y-111010000D01*
X85461904Y-111105238D01*
X85414285Y-111200476D01*
X85366666Y-111390952D01*
X85366666Y-111533809D01*
X85414285Y-111724285D01*
X85461904Y-111819523D01*
X85557142Y-111914761D01*
X85700000Y-111962380D01*
X85795238Y-111962380D01*
X85938095Y-111914761D01*
X85985714Y-111867142D01*
X85985714Y-111533809D01*
X85795238Y-111533809D01*
X86414285Y-111962380D02*
X86414285Y-110962380D01*
X86985714Y-111962380D01*
X86985714Y-110962380D01*
X87461904Y-111962380D02*
X87461904Y-110962380D01*
X87700000Y-110962380D01*
X87842857Y-111010000D01*
X87938095Y-111105238D01*
X87985714Y-111200476D01*
X88033333Y-111390952D01*
X88033333Y-111533809D01*
X87985714Y-111724285D01*
X87938095Y-111819523D01*
X87842857Y-111914761D01*
X87700000Y-111962380D01*
X87461904Y-111962380D01*
X85354285Y-88711428D02*
X86116190Y-88711428D01*
X85735238Y-89092380D02*
X85735238Y-88330476D01*
X87068571Y-88092380D02*
X86592380Y-88092380D01*
X86544761Y-88568571D01*
X86592380Y-88520952D01*
X86687619Y-88473333D01*
X86925714Y-88473333D01*
X87020952Y-88520952D01*
X87068571Y-88568571D01*
X87116190Y-88663809D01*
X87116190Y-88901904D01*
X87068571Y-88997142D01*
X87020952Y-89044761D01*
X86925714Y-89092380D01*
X86687619Y-89092380D01*
X86592380Y-89044761D01*
X86544761Y-88997142D01*
X87401904Y-88092380D02*
X87735238Y-89092380D01*
X88068571Y-88092380D01*
X85578095Y-103342380D02*
X86149523Y-103342380D01*
X85863809Y-104342380D02*
X85863809Y-103342380D01*
X86387619Y-103342380D02*
X87054285Y-104342380D01*
X87054285Y-103342380D02*
X86387619Y-104342380D01*
X87435238Y-104342380D02*
X87435238Y-103342380D01*
X87673333Y-103342380D01*
X87816190Y-103390000D01*
X87911428Y-103485238D01*
X87959047Y-103580476D01*
X88006666Y-103770952D01*
X88006666Y-103913809D01*
X87959047Y-104104285D01*
X87911428Y-104199523D01*
X87816190Y-104294761D01*
X87673333Y-104342380D01*
X87435238Y-104342380D01*
X85910000Y-100840000D02*
X85814761Y-100792380D01*
X85671904Y-100792380D01*
X85529047Y-100840000D01*
X85433809Y-100935238D01*
X85386190Y-101030476D01*
X85338571Y-101220952D01*
X85338571Y-101363809D01*
X85386190Y-101554285D01*
X85433809Y-101649523D01*
X85529047Y-101744761D01*
X85671904Y-101792380D01*
X85767142Y-101792380D01*
X85910000Y-101744761D01*
X85957619Y-101697142D01*
X85957619Y-101363809D01*
X85767142Y-101363809D01*
X86338571Y-101506666D02*
X86814761Y-101506666D01*
X86243333Y-101792380D02*
X86576666Y-100792380D01*
X86910000Y-101792380D01*
X87100476Y-100792380D02*
X87671904Y-100792380D01*
X87386190Y-101792380D02*
X87386190Y-100792380D01*
X88005238Y-101268571D02*
X88338571Y-101268571D01*
X88481428Y-101792380D02*
X88005238Y-101792380D01*
X88005238Y-100792380D01*
X88481428Y-100792380D01*
X85938095Y-90690000D02*
X85842857Y-90642380D01*
X85700000Y-90642380D01*
X85557142Y-90690000D01*
X85461904Y-90785238D01*
X85414285Y-90880476D01*
X85366666Y-91070952D01*
X85366666Y-91213809D01*
X85414285Y-91404285D01*
X85461904Y-91499523D01*
X85557142Y-91594761D01*
X85700000Y-91642380D01*
X85795238Y-91642380D01*
X85938095Y-91594761D01*
X85985714Y-91547142D01*
X85985714Y-91213809D01*
X85795238Y-91213809D01*
X86414285Y-91642380D02*
X86414285Y-90642380D01*
X86985714Y-91642380D01*
X86985714Y-90642380D01*
X87461904Y-91642380D02*
X87461904Y-90642380D01*
X87700000Y-90642380D01*
X87842857Y-90690000D01*
X87938095Y-90785238D01*
X87985714Y-90880476D01*
X88033333Y-91070952D01*
X88033333Y-91213809D01*
X87985714Y-91404285D01*
X87938095Y-91499523D01*
X87842857Y-91594761D01*
X87700000Y-91642380D01*
X87461904Y-91642380D01*
X96780952Y-111792380D02*
X96780952Y-110792380D01*
X97114285Y-111506666D01*
X97447619Y-110792380D01*
X97447619Y-111792380D01*
X97923809Y-111792380D02*
X97923809Y-110792380D01*
X98400000Y-111792380D02*
X98400000Y-110792380D01*
X98638095Y-110792380D01*
X98780952Y-110840000D01*
X98876190Y-110935238D01*
X98923809Y-111030476D01*
X98971428Y-111220952D01*
X98971428Y-111363809D01*
X98923809Y-111554285D01*
X98876190Y-111649523D01*
X98780952Y-111744761D01*
X98638095Y-111792380D01*
X98400000Y-111792380D01*
X99400000Y-111792380D02*
X99400000Y-110792380D01*
X100828571Y-110792380D02*
X101019047Y-110792380D01*
X101114285Y-110840000D01*
X101209523Y-110935238D01*
X101257142Y-111125714D01*
X101257142Y-111459047D01*
X101209523Y-111649523D01*
X101114285Y-111744761D01*
X101019047Y-111792380D01*
X100828571Y-111792380D01*
X100733333Y-111744761D01*
X100638095Y-111649523D01*
X100590476Y-111459047D01*
X100590476Y-111125714D01*
X100638095Y-110935238D01*
X100733333Y-110840000D01*
X100828571Y-110792380D01*
X101685714Y-110792380D02*
X101685714Y-111601904D01*
X101733333Y-111697142D01*
X101780952Y-111744761D01*
X101876190Y-111792380D01*
X102066666Y-111792380D01*
X102161904Y-111744761D01*
X102209523Y-111697142D01*
X102257142Y-111601904D01*
X102257142Y-110792380D01*
X102590476Y-110792380D02*
X103161904Y-110792380D01*
X102876190Y-111792380D02*
X102876190Y-110792380D01*
%TO.C,H4*%
X122538095Y-123002380D02*
X122538095Y-122002380D01*
X122538095Y-122478571D02*
X123109523Y-122478571D01*
X123109523Y-123002380D02*
X123109523Y-122002380D01*
X124014285Y-122335714D02*
X124014285Y-123002380D01*
X123776190Y-121954761D02*
X123538095Y-122669047D01*
X124157142Y-122669047D01*
%TO.C,H2*%
X122088095Y-77102380D02*
X122088095Y-76102380D01*
X122088095Y-76578571D02*
X122659523Y-76578571D01*
X122659523Y-77102380D02*
X122659523Y-76102380D01*
X123088095Y-76197619D02*
X123135714Y-76150000D01*
X123230952Y-76102380D01*
X123469047Y-76102380D01*
X123564285Y-76150000D01*
X123611904Y-76197619D01*
X123659523Y-76292857D01*
X123659523Y-76388095D01*
X123611904Y-76530952D01*
X123040476Y-77102380D01*
X123659523Y-77102380D01*
%TO.C,H1*%
X76938095Y-77552380D02*
X76938095Y-76552380D01*
X76938095Y-77028571D02*
X77509523Y-77028571D01*
X77509523Y-77552380D02*
X77509523Y-76552380D01*
X78509523Y-77552380D02*
X77938095Y-77552380D01*
X78223809Y-77552380D02*
X78223809Y-76552380D01*
X78128571Y-76695238D01*
X78033333Y-76790476D01*
X77938095Y-76838095D01*
%TO.C,J1*%
X106666666Y-92452380D02*
X106666666Y-93166666D01*
X106619047Y-93309523D01*
X106523809Y-93404761D01*
X106380952Y-93452380D01*
X106285714Y-93452380D01*
X107666666Y-93452380D02*
X107095238Y-93452380D01*
X107380952Y-93452380D02*
X107380952Y-92452380D01*
X107285714Y-92595238D01*
X107190476Y-92690476D01*
X107095238Y-92738095D01*
%TO.C,H3*%
X75588095Y-123652380D02*
X75588095Y-122652380D01*
X75588095Y-123128571D02*
X76159523Y-123128571D01*
X76159523Y-123652380D02*
X76159523Y-122652380D01*
X76540476Y-122652380D02*
X77159523Y-122652380D01*
X76826190Y-123033333D01*
X76969047Y-123033333D01*
X77064285Y-123080952D01*
X77111904Y-123128571D01*
X77159523Y-123223809D01*
X77159523Y-123461904D01*
X77111904Y-123557142D01*
X77064285Y-123604761D01*
X76969047Y-123652380D01*
X76683333Y-123652380D01*
X76588095Y-123604761D01*
X76540476Y-123557142D01*
D11*
%TO.C,J1*%
X108128000Y-100000000D02*
G75*
G03*
X108128000Y-100000000I-8128000J0D01*
G01*
%TD*%
M02*
