%TF.GenerationSoftware,KiCad,Pcbnew,6.0.11-2627ca5db0~126~ubuntu22.04.1*%
%TF.CreationDate,2025-02-25T14:04:31+01:00*%
%TF.ProjectId,MidiBreakOut,4d696469-4272-4656-916b-4f75742e6b69,rev?*%
%TF.SameCoordinates,Original*%
%TF.FileFunction,Copper,L1,Top*%
%TF.FilePolarity,Positive*%
%FSLAX46Y46*%
G04 Gerber Fmt 4.6, Leading zero omitted, Abs format (unit mm)*
G04 Created by KiCad (PCBNEW 6.0.11-2627ca5db0~126~ubuntu22.04.1) date 2025-02-25 14:04:31*
%MOMM*%
%LPD*%
G01*
G04 APERTURE LIST*
%TA.AperFunction,ComponentPad*%
%ADD10R,4.000000X2.000000*%
%TD*%
%TA.AperFunction,ComponentPad*%
%ADD11C,2.500000*%
%TD*%
%TA.AperFunction,ViaPad*%
%ADD12C,0.800000*%
%TD*%
%TA.AperFunction,Conductor*%
%ADD13C,0.250000*%
%TD*%
G04 APERTURE END LIST*
D10*
%TO.P,X6,1,1*%
%TO.N,RXD*%
X82296000Y-106426000D03*
%TD*%
D11*
%TO.P,J1,1,1*%
%TO.N,unconnected-(J1-Pad1)*%
X105461000Y-100000000D03*
%TO.P,J1,2,2*%
%TO.N,Net-(J1-Pad2)*%
X103861511Y-96138489D03*
%TO.P,J1,3,3*%
%TO.N,GND*%
X100000000Y-94539000D03*
%TO.P,J1,4,4*%
%TO.N,Net-(J1-Pad4)*%
X96138489Y-96138489D03*
%TO.P,J1,5,5*%
%TO.N,unconnected-(J1-Pad5)*%
X94539000Y-100000000D03*
%TO.P,J1,6,6*%
%TO.N,unconnected-(J1-Pad6)*%
X100000000Y-104572000D03*
%TD*%
D10*
%TO.P,X9,1,1*%
%TO.N,GND*%
X82296000Y-91186000D03*
%TD*%
%TO.P,X3,1,1*%
%TO.N,CV1*%
X82296000Y-96266000D03*
%TD*%
%TO.P,X10,1,1*%
%TO.N,GND*%
X82296000Y-111506000D03*
%TD*%
%TO.P,X8,1,1*%
%TO.N,RESET*%
X82296000Y-108966000D03*
%TD*%
%TO.P,X4,1,1*%
%TO.N,TXD*%
X82296000Y-103886000D03*
%TD*%
%TO.P,X7,1,1*%
%TO.N,GATE*%
X82296000Y-101346000D03*
%TD*%
%TO.P,X5,1,1*%
%TO.N,CV2*%
X82296000Y-98806000D03*
%TD*%
%TO.P,X1,1,1*%
%TO.N,AUDIO*%
X82296000Y-93726000D03*
%TD*%
%TO.P,X2,1,1*%
%TO.N,+5V*%
X82296000Y-88646000D03*
%TD*%
D12*
%TO.N,GND*%
X97155000Y-88519000D03*
X96266000Y-88519000D03*
%TO.N,+5V*%
X97409000Y-85598000D03*
X89789000Y-85598000D03*
%TO.N,CV2*%
X87376000Y-94996000D03*
X87376000Y-89916000D03*
%TO.N,RXD*%
X93130000Y-93680000D03*
X89662000Y-101346000D03*
%TO.N,GATE*%
X89916000Y-88138000D03*
X97536000Y-83566000D03*
%TO.N,RESET*%
X94615000Y-87884000D03*
X91821000Y-88773000D03*
%TD*%
D13*
%TO.N,GND*%
X97155000Y-88519000D02*
X96266000Y-88519000D01*
%TO.N,+5V*%
X86741000Y-85598000D02*
X83693000Y-88646000D01*
X83693000Y-88646000D02*
X82296000Y-88646000D01*
X89789000Y-85598000D02*
X97409000Y-85598000D01*
X89789000Y-85598000D02*
X86741000Y-85598000D01*
%TO.N,CV2*%
X87376000Y-89916000D02*
X87376000Y-94996000D01*
%TO.N,RXD*%
X93130000Y-93680000D02*
X93130000Y-95084000D01*
X91567000Y-96647000D02*
X91567000Y-100584000D01*
X93130000Y-95084000D02*
X91567000Y-96647000D01*
X90805000Y-101346000D02*
X89662000Y-101346000D01*
X91567000Y-100584000D02*
X90805000Y-101346000D01*
%TO.N,GATE*%
X97536000Y-83566000D02*
X98679000Y-84709000D01*
X98679000Y-84709000D02*
X98679000Y-86106000D01*
X97917000Y-86868000D02*
X91186000Y-86868000D01*
X91186000Y-86868000D02*
X89916000Y-88138000D01*
X98679000Y-86106000D02*
X97917000Y-86868000D01*
%TO.N,RESET*%
X94615000Y-87884000D02*
X92710000Y-87884000D01*
X92710000Y-87884000D02*
X91821000Y-88773000D01*
%TD*%
%TA.AperFunction,Conductor*%
%TO.N,GND*%
G36*
X118970018Y-79710000D02*
G01*
X118984851Y-79712310D01*
X118984855Y-79712310D01*
X118993724Y-79713691D01*
X119007789Y-79711852D01*
X119034003Y-79711176D01*
X119192152Y-79723623D01*
X119211677Y-79726716D01*
X119389459Y-79769398D01*
X119408254Y-79775505D01*
X119492712Y-79810488D01*
X119577166Y-79845470D01*
X119594783Y-79854446D01*
X119750670Y-79949974D01*
X119766665Y-79961596D01*
X119905687Y-80080332D01*
X119919668Y-80094313D01*
X120038404Y-80233335D01*
X120050026Y-80249330D01*
X120145554Y-80405217D01*
X120154530Y-80422834D01*
X120215105Y-80569074D01*
X120224494Y-80591742D01*
X120230602Y-80610541D01*
X120269561Y-80772814D01*
X120273284Y-80788322D01*
X120276377Y-80807850D01*
X120288272Y-80958987D01*
X120287630Y-80975875D01*
X120287800Y-80975877D01*
X120287690Y-80984853D01*
X120286309Y-80993724D01*
X120287473Y-81002626D01*
X120287473Y-81002628D01*
X120290436Y-81025283D01*
X120291500Y-81041621D01*
X120291500Y-118950633D01*
X120290000Y-118970018D01*
X120287690Y-118984851D01*
X120287690Y-118984855D01*
X120286309Y-118993724D01*
X120288148Y-119007789D01*
X120288824Y-119034003D01*
X120276377Y-119192150D01*
X120276377Y-119192151D01*
X120273284Y-119211677D01*
X120268759Y-119230528D01*
X120230604Y-119389454D01*
X120224495Y-119408254D01*
X120211544Y-119439522D01*
X120154530Y-119577166D01*
X120145554Y-119594783D01*
X120050026Y-119750670D01*
X120038404Y-119766665D01*
X119919668Y-119905687D01*
X119905687Y-119919668D01*
X119766665Y-120038404D01*
X119750670Y-120050026D01*
X119594783Y-120145554D01*
X119577166Y-120154530D01*
X119492712Y-120189512D01*
X119408254Y-120224495D01*
X119389459Y-120230602D01*
X119211678Y-120273284D01*
X119192150Y-120276377D01*
X119041013Y-120288272D01*
X119024125Y-120287630D01*
X119024123Y-120287800D01*
X119015147Y-120287690D01*
X119006276Y-120286309D01*
X118997374Y-120287473D01*
X118997372Y-120287473D01*
X118982323Y-120289441D01*
X118974714Y-120290436D01*
X118958379Y-120291500D01*
X81049367Y-120291500D01*
X81029982Y-120290000D01*
X81015149Y-120287690D01*
X81015145Y-120287690D01*
X81006276Y-120286309D01*
X80992211Y-120288148D01*
X80965997Y-120288824D01*
X80807848Y-120276377D01*
X80788322Y-120273284D01*
X80610541Y-120230602D01*
X80591746Y-120224495D01*
X80507288Y-120189512D01*
X80422834Y-120154530D01*
X80405217Y-120145554D01*
X80249330Y-120050026D01*
X80233335Y-120038404D01*
X80094313Y-119919668D01*
X80080332Y-119905687D01*
X79961596Y-119766665D01*
X79949974Y-119750670D01*
X79854446Y-119594783D01*
X79845470Y-119577166D01*
X79788456Y-119439522D01*
X79775505Y-119408254D01*
X79769396Y-119389454D01*
X79731242Y-119230528D01*
X79726716Y-119211677D01*
X79723623Y-119192150D01*
X79712009Y-119044583D01*
X79712994Y-119022258D01*
X79712334Y-119022199D01*
X79712769Y-119017351D01*
X79713576Y-119012552D01*
X79713729Y-119000000D01*
X79709773Y-118972376D01*
X79708500Y-118954514D01*
X79708500Y-117932703D01*
X80090743Y-117932703D01*
X80128268Y-118217734D01*
X80204129Y-118495036D01*
X80316923Y-118759476D01*
X80328693Y-118779142D01*
X80460874Y-119000000D01*
X80464561Y-119006161D01*
X80644313Y-119230528D01*
X80767711Y-119347628D01*
X80831602Y-119408258D01*
X80852851Y-119428423D01*
X80875787Y-119444904D01*
X81072600Y-119586329D01*
X81086317Y-119596186D01*
X81090112Y-119598195D01*
X81090113Y-119598196D01*
X81111869Y-119609715D01*
X81340392Y-119730712D01*
X81610373Y-119829511D01*
X81891264Y-119890755D01*
X81919841Y-119893004D01*
X82114282Y-119908307D01*
X82114291Y-119908307D01*
X82116739Y-119908500D01*
X82272271Y-119908500D01*
X82274407Y-119908354D01*
X82274418Y-119908354D01*
X82482548Y-119894165D01*
X82482554Y-119894164D01*
X82486825Y-119893873D01*
X82491020Y-119893004D01*
X82491022Y-119893004D01*
X82627584Y-119864723D01*
X82768342Y-119835574D01*
X83039343Y-119739607D01*
X83294812Y-119607750D01*
X83298313Y-119605289D01*
X83298317Y-119605287D01*
X83412418Y-119525095D01*
X83530023Y-119442441D01*
X83740622Y-119246740D01*
X83922713Y-119024268D01*
X84072927Y-118779142D01*
X84188483Y-118515898D01*
X84267244Y-118239406D01*
X84307751Y-117954784D01*
X84307845Y-117936951D01*
X84307867Y-117932703D01*
X115690743Y-117932703D01*
X115728268Y-118217734D01*
X115804129Y-118495036D01*
X115916923Y-118759476D01*
X115928693Y-118779142D01*
X116060874Y-119000000D01*
X116064561Y-119006161D01*
X116244313Y-119230528D01*
X116367711Y-119347628D01*
X116431602Y-119408258D01*
X116452851Y-119428423D01*
X116475787Y-119444904D01*
X116672600Y-119586329D01*
X116686317Y-119596186D01*
X116690112Y-119598195D01*
X116690113Y-119598196D01*
X116711869Y-119609715D01*
X116940392Y-119730712D01*
X117210373Y-119829511D01*
X117491264Y-119890755D01*
X117519841Y-119893004D01*
X117714282Y-119908307D01*
X117714291Y-119908307D01*
X117716739Y-119908500D01*
X117872271Y-119908500D01*
X117874407Y-119908354D01*
X117874418Y-119908354D01*
X118082548Y-119894165D01*
X118082554Y-119894164D01*
X118086825Y-119893873D01*
X118091020Y-119893004D01*
X118091022Y-119893004D01*
X118227584Y-119864723D01*
X118368342Y-119835574D01*
X118639343Y-119739607D01*
X118894812Y-119607750D01*
X118898313Y-119605289D01*
X118898317Y-119605287D01*
X119012418Y-119525095D01*
X119130023Y-119442441D01*
X119340622Y-119246740D01*
X119522713Y-119024268D01*
X119672927Y-118779142D01*
X119788483Y-118515898D01*
X119867244Y-118239406D01*
X119907751Y-117954784D01*
X119907845Y-117936951D01*
X119909235Y-117671583D01*
X119909235Y-117671576D01*
X119909257Y-117667297D01*
X119871732Y-117382266D01*
X119795871Y-117104964D01*
X119683077Y-116840524D01*
X119535439Y-116593839D01*
X119355687Y-116369472D01*
X119147149Y-116171577D01*
X118913683Y-116003814D01*
X118891843Y-115992250D01*
X118868654Y-115979972D01*
X118659608Y-115869288D01*
X118389627Y-115770489D01*
X118108736Y-115709245D01*
X118077685Y-115706801D01*
X117885718Y-115691693D01*
X117885709Y-115691693D01*
X117883261Y-115691500D01*
X117727729Y-115691500D01*
X117725593Y-115691646D01*
X117725582Y-115691646D01*
X117517452Y-115705835D01*
X117517446Y-115705836D01*
X117513175Y-115706127D01*
X117508980Y-115706996D01*
X117508978Y-115706996D01*
X117372416Y-115735277D01*
X117231658Y-115764426D01*
X116960657Y-115860393D01*
X116705188Y-115992250D01*
X116701687Y-115994711D01*
X116701683Y-115994713D01*
X116691594Y-116001804D01*
X116469977Y-116157559D01*
X116259378Y-116353260D01*
X116077287Y-116575732D01*
X115927073Y-116820858D01*
X115811517Y-117084102D01*
X115732756Y-117360594D01*
X115692249Y-117645216D01*
X115692227Y-117649505D01*
X115692226Y-117649512D01*
X115690765Y-117928417D01*
X115690743Y-117932703D01*
X84307867Y-117932703D01*
X84309235Y-117671583D01*
X84309235Y-117671576D01*
X84309257Y-117667297D01*
X84271732Y-117382266D01*
X84195871Y-117104964D01*
X84083077Y-116840524D01*
X83935439Y-116593839D01*
X83755687Y-116369472D01*
X83547149Y-116171577D01*
X83313683Y-116003814D01*
X83291843Y-115992250D01*
X83268654Y-115979972D01*
X83059608Y-115869288D01*
X82789627Y-115770489D01*
X82508736Y-115709245D01*
X82477685Y-115706801D01*
X82285718Y-115691693D01*
X82285709Y-115691693D01*
X82283261Y-115691500D01*
X82127729Y-115691500D01*
X82125593Y-115691646D01*
X82125582Y-115691646D01*
X81917452Y-115705835D01*
X81917446Y-115705836D01*
X81913175Y-115706127D01*
X81908980Y-115706996D01*
X81908978Y-115706996D01*
X81772416Y-115735277D01*
X81631658Y-115764426D01*
X81360657Y-115860393D01*
X81105188Y-115992250D01*
X81101687Y-115994711D01*
X81101683Y-115994713D01*
X81091594Y-116001804D01*
X80869977Y-116157559D01*
X80659378Y-116353260D01*
X80477287Y-116575732D01*
X80327073Y-116820858D01*
X80211517Y-117084102D01*
X80132756Y-117360594D01*
X80092249Y-117645216D01*
X80092227Y-117649505D01*
X80092226Y-117649512D01*
X80090765Y-117928417D01*
X80090743Y-117932703D01*
X79708500Y-117932703D01*
X79708500Y-112946699D01*
X79728502Y-112878578D01*
X79782158Y-112832085D01*
X79852432Y-112821981D01*
X79917012Y-112851475D01*
X79923595Y-112857604D01*
X79940276Y-112874285D01*
X80042351Y-112950786D01*
X80057946Y-112959324D01*
X80178394Y-113004478D01*
X80193649Y-113008105D01*
X80244514Y-113013631D01*
X80251328Y-113014000D01*
X82023885Y-113014000D01*
X82039124Y-113009525D01*
X82040329Y-113008135D01*
X82042000Y-113000452D01*
X82042000Y-112995884D01*
X82550000Y-112995884D01*
X82554475Y-113011123D01*
X82555865Y-113012328D01*
X82563548Y-113013999D01*
X84340669Y-113013999D01*
X84347490Y-113013629D01*
X84398352Y-113008105D01*
X84413604Y-113004479D01*
X84534054Y-112959324D01*
X84549649Y-112950786D01*
X84651724Y-112874285D01*
X84664285Y-112861724D01*
X84740786Y-112759649D01*
X84749324Y-112744054D01*
X84794478Y-112623606D01*
X84798105Y-112608351D01*
X84803631Y-112557486D01*
X84804000Y-112550672D01*
X84804000Y-111778115D01*
X84799525Y-111762876D01*
X84798135Y-111761671D01*
X84790452Y-111760000D01*
X82568115Y-111760000D01*
X82552876Y-111764475D01*
X82551671Y-111765865D01*
X82550000Y-111773548D01*
X82550000Y-112995884D01*
X82042000Y-112995884D01*
X82042000Y-111378000D01*
X82062002Y-111309879D01*
X82115658Y-111263386D01*
X82168000Y-111252000D01*
X84785884Y-111252000D01*
X84801123Y-111247525D01*
X84802328Y-111246135D01*
X84803999Y-111238452D01*
X84803999Y-110461331D01*
X84803629Y-110454510D01*
X84798105Y-110403648D01*
X84794479Y-110388396D01*
X84754196Y-110280942D01*
X84749013Y-110210135D01*
X84754196Y-110192482D01*
X84794971Y-110083715D01*
X84797745Y-110076316D01*
X84804500Y-110014134D01*
X84804500Y-107917866D01*
X84797745Y-107855684D01*
X84754463Y-107740229D01*
X84749280Y-107669423D01*
X84754463Y-107651770D01*
X84794971Y-107543715D01*
X84797745Y-107536316D01*
X84804500Y-107474134D01*
X84804500Y-105377866D01*
X84797745Y-105315684D01*
X84754463Y-105200229D01*
X84749280Y-105129423D01*
X84754463Y-105111770D01*
X84794971Y-105003715D01*
X84797745Y-104996316D01*
X84804500Y-104934134D01*
X84804500Y-104525839D01*
X98237173Y-104525839D01*
X98249713Y-104786908D01*
X98300704Y-105043256D01*
X98389026Y-105289252D01*
X98426850Y-105359647D01*
X98455753Y-105413437D01*
X98512737Y-105519491D01*
X98515532Y-105523234D01*
X98515534Y-105523237D01*
X98666330Y-105725177D01*
X98666335Y-105725183D01*
X98669122Y-105728915D01*
X98672431Y-105732195D01*
X98672436Y-105732201D01*
X98851426Y-105909635D01*
X98854743Y-105912923D01*
X98858505Y-105915681D01*
X98858508Y-105915684D01*
X99061750Y-106064707D01*
X99065524Y-106067474D01*
X99069667Y-106069654D01*
X99069669Y-106069655D01*
X99292684Y-106186989D01*
X99292689Y-106186991D01*
X99296834Y-106189172D01*
X99543590Y-106275344D01*
X99548183Y-106276216D01*
X99795785Y-106323224D01*
X99795788Y-106323224D01*
X99800374Y-106324095D01*
X99930958Y-106329226D01*
X100056875Y-106334174D01*
X100056881Y-106334174D01*
X100061543Y-106334357D01*
X100140977Y-106325657D01*
X100316707Y-106306412D01*
X100316712Y-106306411D01*
X100321360Y-106305902D01*
X100434116Y-106276216D01*
X100569594Y-106240548D01*
X100569596Y-106240547D01*
X100574117Y-106239357D01*
X100814262Y-106136182D01*
X101036519Y-105998646D01*
X101040082Y-105995629D01*
X101040087Y-105995626D01*
X101232439Y-105832787D01*
X101232440Y-105832786D01*
X101236005Y-105829768D01*
X101327729Y-105725177D01*
X101405257Y-105636774D01*
X101405261Y-105636769D01*
X101408339Y-105633259D01*
X101549733Y-105413437D01*
X101657083Y-105175129D01*
X101728030Y-104923572D01*
X101744832Y-104791496D01*
X101760616Y-104667421D01*
X101760616Y-104667417D01*
X101761014Y-104664291D01*
X101763431Y-104572000D01*
X101744061Y-104311348D01*
X101732725Y-104261248D01*
X101687408Y-104060980D01*
X101686377Y-104056423D01*
X101591647Y-103812823D01*
X101461951Y-103585902D01*
X101300138Y-103380643D01*
X101109763Y-103201557D01*
X100895009Y-103052576D01*
X100890816Y-103050508D01*
X100664781Y-102939040D01*
X100664778Y-102939039D01*
X100660593Y-102936975D01*
X100614449Y-102922204D01*
X100416123Y-102858720D01*
X100411665Y-102857293D01*
X100153693Y-102815279D01*
X100039942Y-102813790D01*
X99897022Y-102811919D01*
X99897019Y-102811919D01*
X99892345Y-102811858D01*
X99633362Y-102847104D01*
X99382433Y-102920243D01*
X99378180Y-102922203D01*
X99378179Y-102922204D01*
X99341659Y-102939040D01*
X99145072Y-103029668D01*
X99106067Y-103055241D01*
X98930404Y-103170410D01*
X98930399Y-103170414D01*
X98926491Y-103172976D01*
X98731494Y-103347018D01*
X98564363Y-103547970D01*
X98428771Y-103771419D01*
X98327697Y-104012455D01*
X98263359Y-104265783D01*
X98237173Y-104525839D01*
X84804500Y-104525839D01*
X84804500Y-102837866D01*
X84797745Y-102775684D01*
X84754463Y-102660229D01*
X84749280Y-102589423D01*
X84754463Y-102571770D01*
X84794971Y-102463715D01*
X84797745Y-102456316D01*
X84804500Y-102394134D01*
X84804500Y-101346000D01*
X88748496Y-101346000D01*
X88768458Y-101535928D01*
X88827473Y-101717556D01*
X88922960Y-101882944D01*
X88927378Y-101887851D01*
X88927379Y-101887852D01*
X89009452Y-101979003D01*
X89050747Y-102024866D01*
X89205248Y-102137118D01*
X89211276Y-102139802D01*
X89211278Y-102139803D01*
X89373681Y-102212109D01*
X89379712Y-102214794D01*
X89473112Y-102234647D01*
X89560056Y-102253128D01*
X89560061Y-102253128D01*
X89566513Y-102254500D01*
X89757487Y-102254500D01*
X89763939Y-102253128D01*
X89763944Y-102253128D01*
X89850887Y-102234647D01*
X89944288Y-102214794D01*
X89950319Y-102212109D01*
X90112722Y-102139803D01*
X90112724Y-102139802D01*
X90118752Y-102137118D01*
X90273253Y-102024866D01*
X90277668Y-102019963D01*
X90282580Y-102015540D01*
X90283705Y-102016789D01*
X90337014Y-101983949D01*
X90370200Y-101979500D01*
X90726233Y-101979500D01*
X90737416Y-101980027D01*
X90744909Y-101981702D01*
X90752835Y-101981453D01*
X90752836Y-101981453D01*
X90812986Y-101979562D01*
X90816945Y-101979500D01*
X90844856Y-101979500D01*
X90848791Y-101979003D01*
X90848856Y-101978995D01*
X90860693Y-101978062D01*
X90892951Y-101977048D01*
X90896970Y-101976922D01*
X90904889Y-101976673D01*
X90924343Y-101971021D01*
X90943700Y-101967013D01*
X90955930Y-101965468D01*
X90955931Y-101965468D01*
X90963797Y-101964474D01*
X90971168Y-101961555D01*
X90971170Y-101961555D01*
X91004912Y-101948196D01*
X91016142Y-101944351D01*
X91050983Y-101934229D01*
X91050984Y-101934229D01*
X91058593Y-101932018D01*
X91065412Y-101927985D01*
X91065417Y-101927983D01*
X91076028Y-101921707D01*
X91093776Y-101913012D01*
X91112617Y-101905552D01*
X91148387Y-101879564D01*
X91158307Y-101873048D01*
X91189535Y-101854580D01*
X91189538Y-101854578D01*
X91196362Y-101850542D01*
X91210683Y-101836221D01*
X91225717Y-101823380D01*
X91235693Y-101816132D01*
X91242107Y-101811472D01*
X91270288Y-101777407D01*
X91278278Y-101768626D01*
X91959258Y-101087647D01*
X91967537Y-101080113D01*
X91974018Y-101076000D01*
X92020644Y-101026348D01*
X92023398Y-101023507D01*
X92043135Y-101003770D01*
X92045615Y-101000573D01*
X92053320Y-100991551D01*
X92083586Y-100959321D01*
X92087405Y-100952375D01*
X92087407Y-100952372D01*
X92093348Y-100941566D01*
X92104199Y-100925047D01*
X92111758Y-100915301D01*
X92116614Y-100909041D01*
X92119759Y-100901772D01*
X92119762Y-100901768D01*
X92134174Y-100868463D01*
X92139391Y-100857813D01*
X92160695Y-100819060D01*
X92165733Y-100799437D01*
X92172137Y-100780734D01*
X92177033Y-100769420D01*
X92177033Y-100769419D01*
X92180181Y-100762145D01*
X92181420Y-100754322D01*
X92181423Y-100754312D01*
X92187099Y-100718476D01*
X92189505Y-100706856D01*
X92198528Y-100671711D01*
X92198528Y-100671710D01*
X92200500Y-100664030D01*
X92200500Y-100643776D01*
X92202051Y-100624065D01*
X92203980Y-100611886D01*
X92205220Y-100604057D01*
X92201059Y-100560038D01*
X92200500Y-100548181D01*
X92200500Y-99953839D01*
X92776173Y-99953839D01*
X92788713Y-100214908D01*
X92839704Y-100471256D01*
X92928026Y-100717252D01*
X92930242Y-100721376D01*
X93006345Y-100863011D01*
X93051737Y-100947491D01*
X93054532Y-100951234D01*
X93054534Y-100951237D01*
X93205330Y-101153177D01*
X93205335Y-101153183D01*
X93208122Y-101156915D01*
X93211431Y-101160195D01*
X93211436Y-101160201D01*
X93390426Y-101337635D01*
X93393743Y-101340923D01*
X93397505Y-101343681D01*
X93397508Y-101343684D01*
X93600750Y-101492707D01*
X93604524Y-101495474D01*
X93608667Y-101497654D01*
X93608669Y-101497655D01*
X93831684Y-101614989D01*
X93831689Y-101614991D01*
X93835834Y-101617172D01*
X94082590Y-101703344D01*
X94087183Y-101704216D01*
X94334785Y-101751224D01*
X94334788Y-101751224D01*
X94339374Y-101752095D01*
X94469959Y-101757226D01*
X94595875Y-101762174D01*
X94595881Y-101762174D01*
X94600543Y-101762357D01*
X94679977Y-101753657D01*
X94855707Y-101734412D01*
X94855712Y-101734411D01*
X94860360Y-101733902D01*
X94864884Y-101732711D01*
X95108594Y-101668548D01*
X95108596Y-101668547D01*
X95113117Y-101667357D01*
X95353262Y-101564182D01*
X95575519Y-101426646D01*
X95579082Y-101423629D01*
X95579087Y-101423626D01*
X95771439Y-101260787D01*
X95771440Y-101260786D01*
X95775005Y-101257768D01*
X95869696Y-101149794D01*
X95944257Y-101064774D01*
X95944261Y-101064769D01*
X95947339Y-101061259D01*
X95970713Y-101024921D01*
X96086205Y-100845367D01*
X96088733Y-100841437D01*
X96196083Y-100603129D01*
X96267030Y-100351572D01*
X96280773Y-100243540D01*
X96299616Y-100095421D01*
X96299616Y-100095417D01*
X96300014Y-100092291D01*
X96302431Y-100000000D01*
X96299001Y-99953839D01*
X103698173Y-99953839D01*
X103710713Y-100214908D01*
X103761704Y-100471256D01*
X103850026Y-100717252D01*
X103852242Y-100721376D01*
X103928345Y-100863011D01*
X103973737Y-100947491D01*
X103976532Y-100951234D01*
X103976534Y-100951237D01*
X104127330Y-101153177D01*
X104127335Y-101153183D01*
X104130122Y-101156915D01*
X104133431Y-101160195D01*
X104133436Y-101160201D01*
X104312426Y-101337635D01*
X104315743Y-101340923D01*
X104319505Y-101343681D01*
X104319508Y-101343684D01*
X104522750Y-101492707D01*
X104526524Y-101495474D01*
X104530667Y-101497654D01*
X104530669Y-101497655D01*
X104753684Y-101614989D01*
X104753689Y-101614991D01*
X104757834Y-101617172D01*
X105004590Y-101703344D01*
X105009183Y-101704216D01*
X105256785Y-101751224D01*
X105256788Y-101751224D01*
X105261374Y-101752095D01*
X105391959Y-101757226D01*
X105517875Y-101762174D01*
X105517881Y-101762174D01*
X105522543Y-101762357D01*
X105601977Y-101753657D01*
X105777707Y-101734412D01*
X105777712Y-101734411D01*
X105782360Y-101733902D01*
X105786884Y-101732711D01*
X106030594Y-101668548D01*
X106030596Y-101668547D01*
X106035117Y-101667357D01*
X106275262Y-101564182D01*
X106497519Y-101426646D01*
X106501082Y-101423629D01*
X106501087Y-101423626D01*
X106693439Y-101260787D01*
X106693440Y-101260786D01*
X106697005Y-101257768D01*
X106791696Y-101149794D01*
X106866257Y-101064774D01*
X106866261Y-101064769D01*
X106869339Y-101061259D01*
X106892713Y-101024921D01*
X107008205Y-100845367D01*
X107010733Y-100841437D01*
X107118083Y-100603129D01*
X107189030Y-100351572D01*
X107202773Y-100243540D01*
X107221616Y-100095421D01*
X107221616Y-100095417D01*
X107222014Y-100092291D01*
X107224431Y-100000000D01*
X107205061Y-99739348D01*
X107193725Y-99689248D01*
X107148408Y-99488980D01*
X107147377Y-99484423D01*
X107052647Y-99240823D01*
X106922951Y-99013902D01*
X106761138Y-98808643D01*
X106570763Y-98629557D01*
X106356009Y-98480576D01*
X106351816Y-98478508D01*
X106125781Y-98367040D01*
X106125778Y-98367039D01*
X106121593Y-98364975D01*
X106075449Y-98350204D01*
X105877123Y-98286720D01*
X105872665Y-98285293D01*
X105614693Y-98243279D01*
X105500942Y-98241790D01*
X105358022Y-98239919D01*
X105358019Y-98239919D01*
X105353345Y-98239858D01*
X105094362Y-98275104D01*
X104843433Y-98348243D01*
X104839180Y-98350203D01*
X104839179Y-98350204D01*
X104802659Y-98367040D01*
X104606072Y-98457668D01*
X104567067Y-98483241D01*
X104391404Y-98598410D01*
X104391399Y-98598414D01*
X104387491Y-98600976D01*
X104192494Y-98775018D01*
X104025363Y-98975970D01*
X103889771Y-99199419D01*
X103788697Y-99440455D01*
X103724359Y-99693783D01*
X103698173Y-99953839D01*
X96299001Y-99953839D01*
X96283061Y-99739348D01*
X96271725Y-99689248D01*
X96226408Y-99488980D01*
X96225377Y-99484423D01*
X96130647Y-99240823D01*
X96000951Y-99013902D01*
X95839138Y-98808643D01*
X95648763Y-98629557D01*
X95434009Y-98480576D01*
X95429816Y-98478508D01*
X95203781Y-98367040D01*
X95203778Y-98367039D01*
X95199593Y-98364975D01*
X95153449Y-98350204D01*
X94955123Y-98286720D01*
X94950665Y-98285293D01*
X94692693Y-98243279D01*
X94578942Y-98241790D01*
X94436022Y-98239919D01*
X94436019Y-98239919D01*
X94431345Y-98239858D01*
X94172362Y-98275104D01*
X93921433Y-98348243D01*
X93917180Y-98350203D01*
X93917179Y-98350204D01*
X93880659Y-98367040D01*
X93684072Y-98457668D01*
X93645067Y-98483241D01*
X93469404Y-98598410D01*
X93469399Y-98598414D01*
X93465491Y-98600976D01*
X93270494Y-98775018D01*
X93103363Y-98975970D01*
X92967771Y-99199419D01*
X92866697Y-99440455D01*
X92802359Y-99693783D01*
X92776173Y-99953839D01*
X92200500Y-99953839D01*
X92200500Y-96961594D01*
X92220502Y-96893473D01*
X92237405Y-96872499D01*
X92867173Y-96242732D01*
X93017577Y-96092328D01*
X94375662Y-96092328D01*
X94375886Y-96096994D01*
X94375886Y-96097000D01*
X94378950Y-96160777D01*
X94388202Y-96353397D01*
X94439193Y-96609745D01*
X94527515Y-96855741D01*
X94529731Y-96859865D01*
X94594242Y-96979926D01*
X94651226Y-97085980D01*
X94654021Y-97089723D01*
X94654023Y-97089726D01*
X94804819Y-97291666D01*
X94804824Y-97291672D01*
X94807611Y-97295404D01*
X94810920Y-97298684D01*
X94810925Y-97298690D01*
X94989915Y-97476124D01*
X94993232Y-97479412D01*
X94996994Y-97482170D01*
X94996997Y-97482173D01*
X95130730Y-97580230D01*
X95204013Y-97633963D01*
X95208156Y-97636143D01*
X95208158Y-97636144D01*
X95431173Y-97753478D01*
X95431178Y-97753480D01*
X95435323Y-97755661D01*
X95682079Y-97841833D01*
X95686672Y-97842705D01*
X95934274Y-97889713D01*
X95934277Y-97889713D01*
X95938863Y-97890584D01*
X96069448Y-97895715D01*
X96195364Y-97900663D01*
X96195370Y-97900663D01*
X96200032Y-97900846D01*
X96279466Y-97892146D01*
X96455196Y-97872901D01*
X96455201Y-97872900D01*
X96459849Y-97872391D01*
X96572605Y-97842705D01*
X96708083Y-97807037D01*
X96708085Y-97807036D01*
X96712606Y-97805846D01*
X96952751Y-97702671D01*
X97175008Y-97565135D01*
X97178571Y-97562118D01*
X97178576Y-97562115D01*
X97370928Y-97399276D01*
X97370929Y-97399275D01*
X97374494Y-97396257D01*
X97466218Y-97291666D01*
X97543746Y-97203263D01*
X97543750Y-97203258D01*
X97546828Y-97199748D01*
X97688222Y-96979926D01*
X97795572Y-96741618D01*
X97866519Y-96490061D01*
X97883321Y-96357985D01*
X97899105Y-96233910D01*
X97899105Y-96233906D01*
X97899503Y-96230780D01*
X97899670Y-96224426D01*
X97901336Y-96160777D01*
X97901920Y-96138489D01*
X97889228Y-95967700D01*
X97887774Y-95948133D01*
X98955612Y-95948133D01*
X98964325Y-95959653D01*
X99062018Y-96031284D01*
X99069928Y-96036227D01*
X99292890Y-96153533D01*
X99301453Y-96157256D01*
X99539304Y-96240318D01*
X99548313Y-96242732D01*
X99795842Y-96289727D01*
X99805098Y-96290781D01*
X100056857Y-96300673D01*
X100066171Y-96300347D01*
X100316615Y-96272920D01*
X100325792Y-96271219D01*
X100569431Y-96207074D01*
X100578251Y-96204037D01*
X100809736Y-96104583D01*
X100818008Y-96100276D01*
X100830852Y-96092328D01*
X102098684Y-96092328D01*
X102098908Y-96096994D01*
X102098908Y-96097000D01*
X102101972Y-96160777D01*
X102111224Y-96353397D01*
X102162215Y-96609745D01*
X102250537Y-96855741D01*
X102252753Y-96859865D01*
X102317264Y-96979926D01*
X102374248Y-97085980D01*
X102377043Y-97089723D01*
X102377045Y-97089726D01*
X102527841Y-97291666D01*
X102527846Y-97291672D01*
X102530633Y-97295404D01*
X102533942Y-97298684D01*
X102533947Y-97298690D01*
X102712937Y-97476124D01*
X102716254Y-97479412D01*
X102720016Y-97482170D01*
X102720019Y-97482173D01*
X102853752Y-97580230D01*
X102927035Y-97633963D01*
X102931178Y-97636143D01*
X102931180Y-97636144D01*
X103154195Y-97753478D01*
X103154200Y-97753480D01*
X103158345Y-97755661D01*
X103405101Y-97841833D01*
X103409694Y-97842705D01*
X103657296Y-97889713D01*
X103657299Y-97889713D01*
X103661885Y-97890584D01*
X103792470Y-97895715D01*
X103918386Y-97900663D01*
X103918392Y-97900663D01*
X103923054Y-97900846D01*
X104002488Y-97892146D01*
X104178218Y-97872901D01*
X104178223Y-97872900D01*
X104182871Y-97872391D01*
X104295627Y-97842705D01*
X104431105Y-97807037D01*
X104431107Y-97807036D01*
X104435628Y-97805846D01*
X104675773Y-97702671D01*
X104898030Y-97565135D01*
X104901593Y-97562118D01*
X104901598Y-97562115D01*
X105093950Y-97399276D01*
X105093951Y-97399275D01*
X105097516Y-97396257D01*
X105189240Y-97291666D01*
X105266768Y-97203263D01*
X105266772Y-97203258D01*
X105269850Y-97199748D01*
X105411244Y-96979926D01*
X105518594Y-96741618D01*
X105589541Y-96490061D01*
X105606343Y-96357985D01*
X105622127Y-96233910D01*
X105622127Y-96233906D01*
X105622525Y-96230780D01*
X105622692Y-96224426D01*
X105624358Y-96160777D01*
X105624942Y-96138489D01*
X105612250Y-95967700D01*
X105605918Y-95882489D01*
X105605917Y-95882485D01*
X105605572Y-95877837D01*
X105602932Y-95866166D01*
X105548919Y-95627469D01*
X105547888Y-95622912D01*
X105530790Y-95578944D01*
X105454851Y-95383665D01*
X105454850Y-95383662D01*
X105453158Y-95379312D01*
X105323462Y-95152391D01*
X105161649Y-94947132D01*
X104971274Y-94768046D01*
X104818948Y-94662373D01*
X104760362Y-94621730D01*
X104760359Y-94621728D01*
X104756520Y-94619065D01*
X104752327Y-94616997D01*
X104526292Y-94505529D01*
X104526289Y-94505528D01*
X104522104Y-94503464D01*
X104503545Y-94497523D01*
X104277634Y-94425209D01*
X104273176Y-94423782D01*
X104015204Y-94381768D01*
X103901453Y-94380279D01*
X103758533Y-94378408D01*
X103758530Y-94378408D01*
X103753856Y-94378347D01*
X103494873Y-94413593D01*
X103243944Y-94486732D01*
X103239691Y-94488692D01*
X103239690Y-94488693D01*
X103203170Y-94505529D01*
X103006583Y-94596157D01*
X102967578Y-94621730D01*
X102791915Y-94736899D01*
X102791910Y-94736903D01*
X102788002Y-94739465D01*
X102593005Y-94913507D01*
X102425874Y-95114459D01*
X102423445Y-95118462D01*
X102365187Y-95214469D01*
X102290282Y-95337908D01*
X102189208Y-95578944D01*
X102124870Y-95832272D01*
X102124402Y-95836923D01*
X102124401Y-95836927D01*
X102121595Y-95864794D01*
X102098684Y-96092328D01*
X100830852Y-96092328D01*
X101032249Y-95967700D01*
X101039188Y-95962658D01*
X101047518Y-95950019D01*
X101041456Y-95939666D01*
X100012812Y-94911022D01*
X99998868Y-94903408D01*
X99997035Y-94903539D01*
X99990420Y-94907790D01*
X98962270Y-95935940D01*
X98955612Y-95948133D01*
X97887774Y-95948133D01*
X97882896Y-95882489D01*
X97882895Y-95882485D01*
X97882550Y-95877837D01*
X97879910Y-95866166D01*
X97825897Y-95627469D01*
X97824866Y-95622912D01*
X97807768Y-95578944D01*
X97731829Y-95383665D01*
X97731828Y-95383662D01*
X97730136Y-95379312D01*
X97600440Y-95152391D01*
X97438627Y-94947132D01*
X97248252Y-94768046D01*
X97095926Y-94662373D01*
X97037340Y-94621730D01*
X97037337Y-94621728D01*
X97033498Y-94619065D01*
X97029305Y-94616997D01*
X96803270Y-94505529D01*
X96803267Y-94505528D01*
X96799082Y-94503464D01*
X96780523Y-94497523D01*
X98237898Y-94497523D01*
X98249987Y-94749175D01*
X98251124Y-94758435D01*
X98300274Y-95005535D01*
X98302768Y-95014528D01*
X98387900Y-95251639D01*
X98391700Y-95260174D01*
X98510946Y-95482101D01*
X98515957Y-95489968D01*
X98579446Y-95574990D01*
X98590704Y-95583439D01*
X98603123Y-95576667D01*
X99627978Y-94551812D01*
X99634356Y-94540132D01*
X100364408Y-94540132D01*
X100364539Y-94541965D01*
X100368790Y-94548580D01*
X101399913Y-95579703D01*
X101412293Y-95586463D01*
X101420634Y-95580219D01*
X101546765Y-95384127D01*
X101551212Y-95375936D01*
X101654691Y-95146222D01*
X101657882Y-95137455D01*
X101726269Y-94894976D01*
X101728129Y-94885834D01*
X101760116Y-94634396D01*
X101760597Y-94628108D01*
X101762847Y-94542160D01*
X101762696Y-94535851D01*
X101743912Y-94283074D01*
X101742536Y-94273868D01*
X101686929Y-94028126D01*
X101684205Y-94019215D01*
X101592888Y-93784392D01*
X101588877Y-93775983D01*
X101463854Y-93557240D01*
X101458643Y-93549514D01*
X101421391Y-93502261D01*
X101409466Y-93493790D01*
X101397934Y-93500276D01*
X100372022Y-94526188D01*
X100364408Y-94540132D01*
X99634356Y-94540132D01*
X99635592Y-94537868D01*
X99635461Y-94536035D01*
X99631210Y-94529420D01*
X98601321Y-93499531D01*
X98588013Y-93492264D01*
X98577974Y-93499386D01*
X98567761Y-93511666D01*
X98562346Y-93519258D01*
X98431646Y-93734646D01*
X98427408Y-93742963D01*
X98329981Y-93975299D01*
X98327020Y-93984149D01*
X98265006Y-94228331D01*
X98263384Y-94237528D01*
X98238143Y-94488198D01*
X98237898Y-94497523D01*
X96780523Y-94497523D01*
X96554612Y-94425209D01*
X96550154Y-94423782D01*
X96292182Y-94381768D01*
X96178431Y-94380279D01*
X96035511Y-94378408D01*
X96035508Y-94378408D01*
X96030834Y-94378347D01*
X95771851Y-94413593D01*
X95520922Y-94486732D01*
X95516669Y-94488692D01*
X95516668Y-94488693D01*
X95480148Y-94505529D01*
X95283561Y-94596157D01*
X95244556Y-94621730D01*
X95068893Y-94736899D01*
X95068888Y-94736903D01*
X95064980Y-94739465D01*
X94869983Y-94913507D01*
X94702852Y-95114459D01*
X94700423Y-95118462D01*
X94642165Y-95214469D01*
X94567260Y-95337908D01*
X94466186Y-95578944D01*
X94401848Y-95832272D01*
X94401380Y-95836923D01*
X94401379Y-95836927D01*
X94398573Y-95864794D01*
X94375662Y-96092328D01*
X93017577Y-96092328D01*
X93522253Y-95587652D01*
X93530539Y-95580112D01*
X93537018Y-95576000D01*
X93583644Y-95526348D01*
X93586398Y-95523507D01*
X93606135Y-95503770D01*
X93608615Y-95500573D01*
X93616320Y-95491551D01*
X93641159Y-95465100D01*
X93646586Y-95459321D01*
X93650405Y-95452375D01*
X93650407Y-95452372D01*
X93656348Y-95441566D01*
X93667199Y-95425047D01*
X93674758Y-95415301D01*
X93679614Y-95409041D01*
X93682759Y-95401772D01*
X93682762Y-95401768D01*
X93697174Y-95368463D01*
X93702391Y-95357813D01*
X93723695Y-95319060D01*
X93728733Y-95299437D01*
X93735137Y-95280734D01*
X93740033Y-95269420D01*
X93740033Y-95269419D01*
X93743181Y-95262145D01*
X93744420Y-95254322D01*
X93744423Y-95254312D01*
X93750099Y-95218476D01*
X93752505Y-95206856D01*
X93761528Y-95171711D01*
X93761528Y-95171710D01*
X93763500Y-95164030D01*
X93763500Y-95143776D01*
X93765051Y-95124065D01*
X93766980Y-95111886D01*
X93768220Y-95104057D01*
X93764059Y-95060038D01*
X93763500Y-95048181D01*
X93763500Y-94382524D01*
X93783502Y-94314403D01*
X93795858Y-94298221D01*
X93869040Y-94216944D01*
X93964527Y-94051556D01*
X94023542Y-93869928D01*
X94043504Y-93680000D01*
X94024823Y-93502261D01*
X94024232Y-93496635D01*
X94024232Y-93496633D01*
X94023542Y-93490072D01*
X93964527Y-93308444D01*
X93869040Y-93143056D01*
X93864109Y-93137579D01*
X93855307Y-93127803D01*
X98953216Y-93127803D01*
X98957789Y-93137579D01*
X99987188Y-94166978D01*
X100001132Y-94174592D01*
X100002965Y-94174461D01*
X100009580Y-94170210D01*
X101038419Y-93141371D01*
X101044803Y-93129681D01*
X101035391Y-93117570D01*
X100898593Y-93022670D01*
X100890565Y-93017942D01*
X100664593Y-92906505D01*
X100655960Y-92903017D01*
X100415998Y-92826205D01*
X100406938Y-92824029D01*
X100158260Y-92783529D01*
X100148973Y-92782717D01*
X99897053Y-92779419D01*
X99887742Y-92779989D01*
X99638097Y-92813964D01*
X99628978Y-92815902D01*
X99387098Y-92886404D01*
X99378367Y-92889667D01*
X99149558Y-92995151D01*
X99141406Y-92999670D01*
X98962353Y-93117062D01*
X98953216Y-93127803D01*
X93855307Y-93127803D01*
X93745675Y-93006045D01*
X93745674Y-93006044D01*
X93741253Y-93001134D01*
X93586752Y-92888882D01*
X93580724Y-92886198D01*
X93580722Y-92886197D01*
X93418319Y-92813891D01*
X93418318Y-92813891D01*
X93412288Y-92811206D01*
X93318887Y-92791353D01*
X93231944Y-92772872D01*
X93231939Y-92772872D01*
X93225487Y-92771500D01*
X93034513Y-92771500D01*
X93028061Y-92772872D01*
X93028056Y-92772872D01*
X92941113Y-92791353D01*
X92847712Y-92811206D01*
X92841682Y-92813891D01*
X92841681Y-92813891D01*
X92679278Y-92886197D01*
X92679276Y-92886198D01*
X92673248Y-92888882D01*
X92518747Y-93001134D01*
X92514326Y-93006044D01*
X92514325Y-93006045D01*
X92395892Y-93137579D01*
X92390960Y-93143056D01*
X92295473Y-93308444D01*
X92236458Y-93490072D01*
X92235768Y-93496633D01*
X92235768Y-93496635D01*
X92235177Y-93502261D01*
X92216496Y-93680000D01*
X92236458Y-93869928D01*
X92295473Y-94051556D01*
X92390960Y-94216944D01*
X92464137Y-94298215D01*
X92494853Y-94362221D01*
X92496500Y-94382524D01*
X92496500Y-94769406D01*
X92476498Y-94837527D01*
X92459595Y-94858501D01*
X91814325Y-95503770D01*
X91174747Y-96143348D01*
X91166461Y-96150888D01*
X91159982Y-96155000D01*
X91154557Y-96160777D01*
X91113357Y-96204651D01*
X91110602Y-96207493D01*
X91090865Y-96227230D01*
X91088385Y-96230427D01*
X91080682Y-96239447D01*
X91050414Y-96271679D01*
X91046595Y-96278625D01*
X91046593Y-96278628D01*
X91040652Y-96289434D01*
X91029801Y-96305953D01*
X91017386Y-96321959D01*
X91014241Y-96329228D01*
X91014238Y-96329232D01*
X90999826Y-96362537D01*
X90994609Y-96373187D01*
X90973305Y-96411940D01*
X90971334Y-96419615D01*
X90971334Y-96419616D01*
X90968267Y-96431562D01*
X90961863Y-96450266D01*
X90953819Y-96468855D01*
X90952580Y-96476678D01*
X90952577Y-96476688D01*
X90946901Y-96512524D01*
X90944495Y-96524144D01*
X90933500Y-96566970D01*
X90933500Y-96587224D01*
X90931949Y-96606934D01*
X90928780Y-96626943D01*
X90929526Y-96634835D01*
X90932941Y-96670961D01*
X90933500Y-96682819D01*
X90933500Y-100269405D01*
X90913498Y-100337526D01*
X90896595Y-100358501D01*
X90579499Y-100675596D01*
X90517187Y-100709621D01*
X90490404Y-100712500D01*
X90370200Y-100712500D01*
X90302079Y-100692498D01*
X90282853Y-100676157D01*
X90282580Y-100676460D01*
X90277668Y-100672037D01*
X90273253Y-100667134D01*
X90118752Y-100554882D01*
X90112724Y-100552198D01*
X90112722Y-100552197D01*
X89950319Y-100479891D01*
X89950318Y-100479891D01*
X89944288Y-100477206D01*
X89850888Y-100457353D01*
X89763944Y-100438872D01*
X89763939Y-100438872D01*
X89757487Y-100437500D01*
X89566513Y-100437500D01*
X89560061Y-100438872D01*
X89560056Y-100438872D01*
X89473112Y-100457353D01*
X89379712Y-100477206D01*
X89373682Y-100479891D01*
X89373681Y-100479891D01*
X89211278Y-100552197D01*
X89211276Y-100552198D01*
X89205248Y-100554882D01*
X89050747Y-100667134D01*
X89046326Y-100672044D01*
X89046325Y-100672045D01*
X88940268Y-100789834D01*
X88922960Y-100809056D01*
X88891809Y-100863011D01*
X88840872Y-100951237D01*
X88827473Y-100974444D01*
X88768458Y-101156072D01*
X88748496Y-101346000D01*
X84804500Y-101346000D01*
X84804500Y-100297866D01*
X84797745Y-100235684D01*
X84754463Y-100120229D01*
X84749280Y-100049423D01*
X84754463Y-100031770D01*
X84797745Y-99916316D01*
X84804500Y-99854134D01*
X84804500Y-97757866D01*
X84797745Y-97695684D01*
X84754463Y-97580229D01*
X84749280Y-97509423D01*
X84754463Y-97491770D01*
X84759096Y-97479412D01*
X84797745Y-97376316D01*
X84804500Y-97314134D01*
X84804500Y-95217866D01*
X84797745Y-95155684D01*
X84754463Y-95040229D01*
X84751225Y-94996000D01*
X86462496Y-94996000D01*
X86463186Y-95002565D01*
X86479360Y-95156449D01*
X86482458Y-95185928D01*
X86541473Y-95367556D01*
X86544776Y-95373278D01*
X86544777Y-95373279D01*
X86578686Y-95432010D01*
X86636960Y-95532944D01*
X86641378Y-95537851D01*
X86641379Y-95537852D01*
X86760325Y-95669955D01*
X86764747Y-95674866D01*
X86919248Y-95787118D01*
X86925276Y-95789802D01*
X86925278Y-95789803D01*
X87010480Y-95827737D01*
X87093712Y-95864794D01*
X87176960Y-95882489D01*
X87274056Y-95903128D01*
X87274061Y-95903128D01*
X87280513Y-95904500D01*
X87471487Y-95904500D01*
X87477939Y-95903128D01*
X87477944Y-95903128D01*
X87575040Y-95882489D01*
X87658288Y-95864794D01*
X87741520Y-95827737D01*
X87826722Y-95789803D01*
X87826724Y-95789802D01*
X87832752Y-95787118D01*
X87987253Y-95674866D01*
X87991675Y-95669955D01*
X88110621Y-95537852D01*
X88110622Y-95537851D01*
X88115040Y-95532944D01*
X88173314Y-95432010D01*
X88207223Y-95373279D01*
X88207224Y-95373278D01*
X88210527Y-95367556D01*
X88269542Y-95185928D01*
X88272641Y-95156449D01*
X88288814Y-95002565D01*
X88289504Y-94996000D01*
X88284368Y-94947132D01*
X88270232Y-94812635D01*
X88270232Y-94812633D01*
X88269542Y-94806072D01*
X88210527Y-94624444D01*
X88206228Y-94616997D01*
X88118341Y-94464774D01*
X88115040Y-94459056D01*
X88041863Y-94377785D01*
X88011147Y-94313779D01*
X88009500Y-94293476D01*
X88009500Y-90618524D01*
X88029502Y-90550403D01*
X88041858Y-90534221D01*
X88115040Y-90452944D01*
X88210527Y-90287556D01*
X88269542Y-90105928D01*
X88284781Y-89960942D01*
X88288814Y-89922565D01*
X88289504Y-89916000D01*
X88284930Y-89872482D01*
X88270232Y-89732635D01*
X88270232Y-89732633D01*
X88269542Y-89726072D01*
X88210527Y-89544444D01*
X88115040Y-89379056D01*
X87987253Y-89237134D01*
X87859831Y-89144556D01*
X87838094Y-89128763D01*
X87838093Y-89128762D01*
X87832752Y-89124882D01*
X87826724Y-89122198D01*
X87826722Y-89122197D01*
X87664319Y-89049891D01*
X87664318Y-89049891D01*
X87658288Y-89047206D01*
X87564887Y-89027353D01*
X87477944Y-89008872D01*
X87477939Y-89008872D01*
X87471487Y-89007500D01*
X87280513Y-89007500D01*
X87274061Y-89008872D01*
X87274056Y-89008872D01*
X87187113Y-89027353D01*
X87093712Y-89047206D01*
X87087682Y-89049891D01*
X87087681Y-89049891D01*
X86925278Y-89122197D01*
X86925276Y-89122198D01*
X86919248Y-89124882D01*
X86913907Y-89128762D01*
X86913906Y-89128763D01*
X86892169Y-89144556D01*
X86764747Y-89237134D01*
X86636960Y-89379056D01*
X86541473Y-89544444D01*
X86482458Y-89726072D01*
X86481768Y-89732633D01*
X86481768Y-89732635D01*
X86467070Y-89872482D01*
X86462496Y-89916000D01*
X86463186Y-89922565D01*
X86467220Y-89960942D01*
X86482458Y-90105928D01*
X86541473Y-90287556D01*
X86636960Y-90452944D01*
X86710137Y-90534215D01*
X86740853Y-90598221D01*
X86742500Y-90618524D01*
X86742500Y-94293476D01*
X86722498Y-94361597D01*
X86710142Y-94377779D01*
X86636960Y-94459056D01*
X86633659Y-94464774D01*
X86545773Y-94616997D01*
X86541473Y-94624444D01*
X86482458Y-94806072D01*
X86481768Y-94812633D01*
X86481768Y-94812635D01*
X86467632Y-94947132D01*
X86462496Y-94996000D01*
X84751225Y-94996000D01*
X84749280Y-94969423D01*
X84754463Y-94951770D01*
X84756202Y-94947132D01*
X84797745Y-94836316D01*
X84804500Y-94774134D01*
X84804500Y-92677866D01*
X84797745Y-92615684D01*
X84754196Y-92499517D01*
X84749013Y-92428711D01*
X84754196Y-92411058D01*
X84794478Y-92303606D01*
X84798105Y-92288351D01*
X84803631Y-92237486D01*
X84804000Y-92230672D01*
X84804000Y-91458115D01*
X84799525Y-91442876D01*
X84798135Y-91441671D01*
X84790452Y-91440000D01*
X82168000Y-91440000D01*
X82099879Y-91419998D01*
X82053386Y-91366342D01*
X82042000Y-91314000D01*
X82042000Y-91058000D01*
X82062002Y-90989879D01*
X82115658Y-90943386D01*
X82168000Y-90932000D01*
X84785884Y-90932000D01*
X84801123Y-90927525D01*
X84802328Y-90926135D01*
X84803999Y-90918452D01*
X84803999Y-90141331D01*
X84803629Y-90134510D01*
X84798105Y-90083648D01*
X84794479Y-90068396D01*
X84754196Y-89960942D01*
X84749013Y-89890135D01*
X84754196Y-89872482D01*
X84794971Y-89763715D01*
X84797745Y-89756316D01*
X84804500Y-89694134D01*
X84804500Y-88482594D01*
X84824502Y-88414473D01*
X84841405Y-88393499D01*
X86966500Y-86268405D01*
X87028812Y-86234379D01*
X87055595Y-86231500D01*
X89080800Y-86231500D01*
X89148921Y-86251502D01*
X89168147Y-86267843D01*
X89168420Y-86267540D01*
X89173332Y-86271963D01*
X89177747Y-86276866D01*
X89183086Y-86280745D01*
X89319426Y-86379802D01*
X89332248Y-86389118D01*
X89338276Y-86391802D01*
X89338278Y-86391803D01*
X89500681Y-86464109D01*
X89506712Y-86466794D01*
X89575056Y-86481321D01*
X89687056Y-86505128D01*
X89687061Y-86505128D01*
X89693513Y-86506500D01*
X89884487Y-86506500D01*
X89890939Y-86505128D01*
X89890944Y-86505128D01*
X90002944Y-86481321D01*
X90071288Y-86466794D01*
X90077319Y-86464109D01*
X90239722Y-86391803D01*
X90239724Y-86391802D01*
X90245752Y-86389118D01*
X90258575Y-86379802D01*
X90394914Y-86280745D01*
X90400253Y-86276866D01*
X90404668Y-86271963D01*
X90409580Y-86267540D01*
X90410705Y-86268789D01*
X90464014Y-86235949D01*
X90497200Y-86231500D01*
X90622405Y-86231500D01*
X90690526Y-86251502D01*
X90737019Y-86305158D01*
X90747123Y-86375432D01*
X90717629Y-86440012D01*
X90711500Y-86446595D01*
X89965500Y-87192595D01*
X89903188Y-87226621D01*
X89876405Y-87229500D01*
X89820513Y-87229500D01*
X89814061Y-87230872D01*
X89814056Y-87230872D01*
X89727113Y-87249353D01*
X89633712Y-87269206D01*
X89627682Y-87271891D01*
X89627681Y-87271891D01*
X89465278Y-87344197D01*
X89465276Y-87344198D01*
X89459248Y-87346882D01*
X89304747Y-87459134D01*
X89300326Y-87464044D01*
X89300325Y-87464045D01*
X89200279Y-87575158D01*
X89176960Y-87601056D01*
X89081473Y-87766444D01*
X89022458Y-87948072D01*
X89021768Y-87954633D01*
X89021768Y-87954635D01*
X89009920Y-88067365D01*
X89002496Y-88138000D01*
X89022458Y-88327928D01*
X89081473Y-88509556D01*
X89176960Y-88674944D01*
X89304747Y-88816866D01*
X89459248Y-88929118D01*
X89465276Y-88931802D01*
X89465278Y-88931803D01*
X89627681Y-89004109D01*
X89633712Y-89006794D01*
X89727113Y-89026647D01*
X89814056Y-89045128D01*
X89814061Y-89045128D01*
X89820513Y-89046500D01*
X90011487Y-89046500D01*
X90017939Y-89045128D01*
X90017944Y-89045128D01*
X90104887Y-89026647D01*
X90198288Y-89006794D01*
X90204319Y-89004109D01*
X90366722Y-88931803D01*
X90366724Y-88931802D01*
X90372752Y-88929118D01*
X90527253Y-88816866D01*
X90655040Y-88674944D01*
X90679892Y-88631899D01*
X90731273Y-88582907D01*
X90800986Y-88569470D01*
X90866897Y-88595857D01*
X90908080Y-88653688D01*
X90914320Y-88708070D01*
X90909170Y-88757074D01*
X90907496Y-88773000D01*
X90908186Y-88779565D01*
X90924187Y-88931803D01*
X90927458Y-88962928D01*
X90986473Y-89144556D01*
X91081960Y-89309944D01*
X91209747Y-89451866D01*
X91308843Y-89523864D01*
X91345820Y-89550729D01*
X91364248Y-89564118D01*
X91370276Y-89566802D01*
X91370278Y-89566803D01*
X91532681Y-89639109D01*
X91538712Y-89641794D01*
X91632113Y-89661647D01*
X91719056Y-89680128D01*
X91719061Y-89680128D01*
X91725513Y-89681500D01*
X91916487Y-89681500D01*
X91922939Y-89680128D01*
X91922944Y-89680128D01*
X92009887Y-89661647D01*
X92103288Y-89641794D01*
X92109319Y-89639109D01*
X92271722Y-89566803D01*
X92271724Y-89566802D01*
X92277752Y-89564118D01*
X92296181Y-89550729D01*
X92333157Y-89523864D01*
X92432253Y-89451866D01*
X92560040Y-89309944D01*
X92655527Y-89144556D01*
X92714542Y-88962928D01*
X92718504Y-88925237D01*
X92729485Y-88820749D01*
X92731907Y-88797708D01*
X92758920Y-88732051D01*
X92768122Y-88721782D01*
X92935501Y-88554404D01*
X92997813Y-88520379D01*
X93024596Y-88517500D01*
X93906800Y-88517500D01*
X93974921Y-88537502D01*
X93994147Y-88553843D01*
X93994420Y-88553540D01*
X93999332Y-88557963D01*
X94003747Y-88562866D01*
X94012837Y-88569470D01*
X94150143Y-88669229D01*
X94158248Y-88675118D01*
X94164276Y-88677802D01*
X94164278Y-88677803D01*
X94286122Y-88732051D01*
X94332712Y-88752794D01*
X94396888Y-88766435D01*
X94513056Y-88791128D01*
X94513061Y-88791128D01*
X94519513Y-88792500D01*
X94710487Y-88792500D01*
X94716939Y-88791128D01*
X94716944Y-88791128D01*
X94833112Y-88766435D01*
X94897288Y-88752794D01*
X94943878Y-88732051D01*
X95065722Y-88677803D01*
X95065724Y-88677802D01*
X95071752Y-88675118D01*
X95079858Y-88669229D01*
X95217163Y-88569470D01*
X95226253Y-88562866D01*
X95249091Y-88537502D01*
X95349621Y-88425852D01*
X95349622Y-88425851D01*
X95354040Y-88420944D01*
X95415124Y-88315143D01*
X95446223Y-88261279D01*
X95446224Y-88261278D01*
X95449527Y-88255556D01*
X95508542Y-88073928D01*
X95517809Y-87985763D01*
X95527814Y-87890565D01*
X95528504Y-87884000D01*
X95526599Y-87865872D01*
X95509232Y-87700635D01*
X95509232Y-87700633D01*
X95508542Y-87694072D01*
X95506503Y-87687797D01*
X95506502Y-87687792D01*
X95499563Y-87666438D01*
X95497534Y-87595471D01*
X95534195Y-87534672D01*
X95597907Y-87503346D01*
X95619395Y-87501500D01*
X97838233Y-87501500D01*
X97849416Y-87502027D01*
X97856909Y-87503702D01*
X97864835Y-87503453D01*
X97864836Y-87503453D01*
X97924986Y-87501562D01*
X97928945Y-87501500D01*
X97956856Y-87501500D01*
X97960791Y-87501003D01*
X97960856Y-87500995D01*
X97972693Y-87500062D01*
X98004951Y-87499048D01*
X98008970Y-87498922D01*
X98016889Y-87498673D01*
X98036343Y-87493021D01*
X98055700Y-87489013D01*
X98067930Y-87487468D01*
X98067931Y-87487468D01*
X98075797Y-87486474D01*
X98083168Y-87483555D01*
X98083170Y-87483555D01*
X98116912Y-87470196D01*
X98128142Y-87466351D01*
X98162983Y-87456229D01*
X98162984Y-87456229D01*
X98170593Y-87454018D01*
X98177412Y-87449985D01*
X98177417Y-87449983D01*
X98188028Y-87443707D01*
X98205776Y-87435012D01*
X98224617Y-87427552D01*
X98260387Y-87401564D01*
X98270307Y-87395048D01*
X98301535Y-87376580D01*
X98301538Y-87376578D01*
X98308362Y-87372542D01*
X98322683Y-87358221D01*
X98337717Y-87345380D01*
X98347693Y-87338132D01*
X98354107Y-87333472D01*
X98382288Y-87299407D01*
X98390278Y-87290626D01*
X99071258Y-86609647D01*
X99079537Y-86602113D01*
X99086018Y-86598000D01*
X99132644Y-86548348D01*
X99135398Y-86545507D01*
X99155135Y-86525770D01*
X99157615Y-86522573D01*
X99165320Y-86513551D01*
X99190159Y-86487100D01*
X99195586Y-86481321D01*
X99199405Y-86474375D01*
X99199407Y-86474372D01*
X99205348Y-86463566D01*
X99216199Y-86447047D01*
X99220760Y-86441167D01*
X99228614Y-86431041D01*
X99231759Y-86423772D01*
X99231762Y-86423768D01*
X99246174Y-86390463D01*
X99251391Y-86379813D01*
X99272695Y-86341060D01*
X99277733Y-86321437D01*
X99284137Y-86302734D01*
X99289033Y-86291420D01*
X99289033Y-86291419D01*
X99292181Y-86284145D01*
X99293420Y-86276322D01*
X99293423Y-86276312D01*
X99299099Y-86240476D01*
X99301505Y-86228856D01*
X99310528Y-86193711D01*
X99310528Y-86193710D01*
X99312500Y-86186030D01*
X99312500Y-86165776D01*
X99314051Y-86146065D01*
X99315980Y-86133886D01*
X99317220Y-86126057D01*
X99313059Y-86082038D01*
X99312500Y-86070181D01*
X99312500Y-84787767D01*
X99313027Y-84776584D01*
X99314702Y-84769091D01*
X99312562Y-84701014D01*
X99312500Y-84697055D01*
X99312500Y-84669144D01*
X99311995Y-84665144D01*
X99311062Y-84653301D01*
X99309922Y-84617029D01*
X99309673Y-84609110D01*
X99304022Y-84589658D01*
X99300014Y-84570306D01*
X99298467Y-84558063D01*
X99297474Y-84550203D01*
X99293884Y-84541135D01*
X99281200Y-84509097D01*
X99277355Y-84497870D01*
X99270565Y-84474500D01*
X99265018Y-84455407D01*
X99259016Y-84445257D01*
X99254707Y-84437972D01*
X99246012Y-84420224D01*
X99238552Y-84401383D01*
X99212564Y-84365613D01*
X99206048Y-84355693D01*
X99187580Y-84324465D01*
X99187578Y-84324462D01*
X99183542Y-84317638D01*
X99169221Y-84303317D01*
X99156380Y-84288283D01*
X99149131Y-84278306D01*
X99144472Y-84271893D01*
X99110395Y-84243702D01*
X99101616Y-84235712D01*
X98483122Y-83617218D01*
X98449096Y-83554906D01*
X98446907Y-83541293D01*
X98430232Y-83382635D01*
X98430232Y-83382633D01*
X98429542Y-83376072D01*
X98370527Y-83194444D01*
X98361693Y-83179142D01*
X98278341Y-83034774D01*
X98275040Y-83029056D01*
X98147253Y-82887134D01*
X97992752Y-82774882D01*
X97986724Y-82772198D01*
X97986722Y-82772197D01*
X97824319Y-82699891D01*
X97824318Y-82699891D01*
X97818288Y-82697206D01*
X97724888Y-82677353D01*
X97637944Y-82658872D01*
X97637939Y-82658872D01*
X97631487Y-82657500D01*
X97440513Y-82657500D01*
X97434061Y-82658872D01*
X97434056Y-82658872D01*
X97347112Y-82677353D01*
X97253712Y-82697206D01*
X97247682Y-82699891D01*
X97247681Y-82699891D01*
X97085278Y-82772197D01*
X97085276Y-82772198D01*
X97079248Y-82774882D01*
X96924747Y-82887134D01*
X96796960Y-83029056D01*
X96793659Y-83034774D01*
X96710308Y-83179142D01*
X96701473Y-83194444D01*
X96642458Y-83376072D01*
X96641768Y-83382633D01*
X96641768Y-83382635D01*
X96637392Y-83424268D01*
X96622496Y-83566000D01*
X96642458Y-83755928D01*
X96701473Y-83937556D01*
X96796960Y-84102944D01*
X96924747Y-84244866D01*
X97079248Y-84357118D01*
X97085276Y-84359802D01*
X97085278Y-84359803D01*
X97220962Y-84420213D01*
X97253712Y-84434794D01*
X97260167Y-84436166D01*
X97260176Y-84436169D01*
X97302931Y-84445257D01*
X97365404Y-84478985D01*
X97399725Y-84541135D01*
X97394997Y-84611974D01*
X97352720Y-84669011D01*
X97302932Y-84691749D01*
X97126712Y-84729206D01*
X97120682Y-84731891D01*
X97120681Y-84731891D01*
X96958278Y-84804197D01*
X96958276Y-84804198D01*
X96952248Y-84806882D01*
X96797747Y-84919134D01*
X96793332Y-84924037D01*
X96788420Y-84928460D01*
X96787295Y-84927211D01*
X96733986Y-84960051D01*
X96700800Y-84964500D01*
X90497200Y-84964500D01*
X90429079Y-84944498D01*
X90409853Y-84928157D01*
X90409580Y-84928460D01*
X90404668Y-84924037D01*
X90400253Y-84919134D01*
X90245752Y-84806882D01*
X90239724Y-84804198D01*
X90239722Y-84804197D01*
X90077319Y-84731891D01*
X90077318Y-84731891D01*
X90071288Y-84729206D01*
X89977888Y-84709353D01*
X89890944Y-84690872D01*
X89890939Y-84690872D01*
X89884487Y-84689500D01*
X89693513Y-84689500D01*
X89687061Y-84690872D01*
X89687056Y-84690872D01*
X89600112Y-84709353D01*
X89506712Y-84729206D01*
X89500682Y-84731891D01*
X89500681Y-84731891D01*
X89338278Y-84804197D01*
X89338276Y-84804198D01*
X89332248Y-84806882D01*
X89177747Y-84919134D01*
X89173332Y-84924037D01*
X89168420Y-84928460D01*
X89167295Y-84927211D01*
X89113986Y-84960051D01*
X89080800Y-84964500D01*
X86819767Y-84964500D01*
X86808584Y-84963973D01*
X86801091Y-84962298D01*
X86793165Y-84962547D01*
X86793164Y-84962547D01*
X86733001Y-84964438D01*
X86729043Y-84964500D01*
X86701144Y-84964500D01*
X86697154Y-84965004D01*
X86685320Y-84965936D01*
X86641111Y-84967326D01*
X86633497Y-84969538D01*
X86633492Y-84969539D01*
X86621659Y-84972977D01*
X86602296Y-84976988D01*
X86582203Y-84979526D01*
X86574836Y-84982443D01*
X86574831Y-84982444D01*
X86541092Y-84995802D01*
X86529865Y-84999646D01*
X86487407Y-85011982D01*
X86480581Y-85016019D01*
X86469972Y-85022293D01*
X86452224Y-85030988D01*
X86433383Y-85038448D01*
X86426967Y-85043110D01*
X86426966Y-85043110D01*
X86397613Y-85064436D01*
X86387693Y-85070952D01*
X86356465Y-85089420D01*
X86356462Y-85089422D01*
X86349638Y-85093458D01*
X86335317Y-85107779D01*
X86320284Y-85120619D01*
X86303893Y-85132528D01*
X86298842Y-85138634D01*
X86275702Y-85166605D01*
X86267712Y-85175384D01*
X84342500Y-87100595D01*
X84280188Y-87134621D01*
X84253405Y-87137500D01*
X80247866Y-87137500D01*
X80185684Y-87144255D01*
X80049295Y-87195385D01*
X79932739Y-87282739D01*
X79927358Y-87289919D01*
X79923595Y-87293682D01*
X79861283Y-87327708D01*
X79790468Y-87322643D01*
X79733632Y-87280096D01*
X79708821Y-87213576D01*
X79708500Y-87204587D01*
X79708500Y-82332703D01*
X80090743Y-82332703D01*
X80128268Y-82617734D01*
X80204129Y-82895036D01*
X80316923Y-83159476D01*
X80464561Y-83406161D01*
X80644313Y-83630528D01*
X80852851Y-83828423D01*
X81086317Y-83996186D01*
X81090112Y-83998195D01*
X81090113Y-83998196D01*
X81111869Y-84009715D01*
X81340392Y-84130712D01*
X81610373Y-84229511D01*
X81891264Y-84290755D01*
X81919841Y-84293004D01*
X82114282Y-84308307D01*
X82114291Y-84308307D01*
X82116739Y-84308500D01*
X82272271Y-84308500D01*
X82274407Y-84308354D01*
X82274418Y-84308354D01*
X82482548Y-84294165D01*
X82482554Y-84294164D01*
X82486825Y-84293873D01*
X82491020Y-84293004D01*
X82491022Y-84293004D01*
X82729093Y-84243702D01*
X82768342Y-84235574D01*
X83039343Y-84139607D01*
X83294812Y-84007750D01*
X83298313Y-84005289D01*
X83298317Y-84005287D01*
X83412418Y-83925095D01*
X83530023Y-83842441D01*
X83740622Y-83646740D01*
X83922713Y-83424268D01*
X84072927Y-83179142D01*
X84188483Y-82915898D01*
X84267244Y-82639406D01*
X84307751Y-82354784D01*
X84307845Y-82336951D01*
X84307867Y-82332703D01*
X115690743Y-82332703D01*
X115728268Y-82617734D01*
X115804129Y-82895036D01*
X115916923Y-83159476D01*
X116064561Y-83406161D01*
X116244313Y-83630528D01*
X116452851Y-83828423D01*
X116686317Y-83996186D01*
X116690112Y-83998195D01*
X116690113Y-83998196D01*
X116711869Y-84009715D01*
X116940392Y-84130712D01*
X117210373Y-84229511D01*
X117491264Y-84290755D01*
X117519841Y-84293004D01*
X117714282Y-84308307D01*
X117714291Y-84308307D01*
X117716739Y-84308500D01*
X117872271Y-84308500D01*
X117874407Y-84308354D01*
X117874418Y-84308354D01*
X118082548Y-84294165D01*
X118082554Y-84294164D01*
X118086825Y-84293873D01*
X118091020Y-84293004D01*
X118091022Y-84293004D01*
X118329093Y-84243702D01*
X118368342Y-84235574D01*
X118639343Y-84139607D01*
X118894812Y-84007750D01*
X118898313Y-84005289D01*
X118898317Y-84005287D01*
X119012418Y-83925095D01*
X119130023Y-83842441D01*
X119340622Y-83646740D01*
X119522713Y-83424268D01*
X119672927Y-83179142D01*
X119788483Y-82915898D01*
X119867244Y-82639406D01*
X119907751Y-82354784D01*
X119907845Y-82336951D01*
X119909235Y-82071583D01*
X119909235Y-82071576D01*
X119909257Y-82067297D01*
X119871732Y-81782266D01*
X119795871Y-81504964D01*
X119683077Y-81240524D01*
X119570996Y-81053250D01*
X119537643Y-80997521D01*
X119537640Y-80997517D01*
X119535439Y-80993839D01*
X119355687Y-80769472D01*
X119188214Y-80610546D01*
X119150258Y-80574527D01*
X119150255Y-80574525D01*
X119147149Y-80571577D01*
X118940152Y-80422834D01*
X118917172Y-80406321D01*
X118917171Y-80406320D01*
X118913683Y-80403814D01*
X118891843Y-80392250D01*
X118868654Y-80379972D01*
X118659608Y-80269288D01*
X118389627Y-80170489D01*
X118108736Y-80109245D01*
X118077685Y-80106801D01*
X117885718Y-80091693D01*
X117885709Y-80091693D01*
X117883261Y-80091500D01*
X117727729Y-80091500D01*
X117725593Y-80091646D01*
X117725582Y-80091646D01*
X117517452Y-80105835D01*
X117517446Y-80105836D01*
X117513175Y-80106127D01*
X117508980Y-80106996D01*
X117508978Y-80106996D01*
X117372417Y-80135276D01*
X117231658Y-80164426D01*
X116960657Y-80260393D01*
X116705188Y-80392250D01*
X116701687Y-80394711D01*
X116701683Y-80394713D01*
X116685167Y-80406321D01*
X116469977Y-80557559D01*
X116259378Y-80753260D01*
X116077287Y-80975732D01*
X115927073Y-81220858D01*
X115811517Y-81484102D01*
X115732756Y-81760594D01*
X115692249Y-82045216D01*
X115692227Y-82049505D01*
X115692226Y-82049512D01*
X115690765Y-82328417D01*
X115690743Y-82332703D01*
X84307867Y-82332703D01*
X84309235Y-82071583D01*
X84309235Y-82071576D01*
X84309257Y-82067297D01*
X84271732Y-81782266D01*
X84195871Y-81504964D01*
X84083077Y-81240524D01*
X83970996Y-81053250D01*
X83937643Y-80997521D01*
X83937640Y-80997517D01*
X83935439Y-80993839D01*
X83755687Y-80769472D01*
X83588214Y-80610546D01*
X83550258Y-80574527D01*
X83550255Y-80574525D01*
X83547149Y-80571577D01*
X83340152Y-80422834D01*
X83317172Y-80406321D01*
X83317171Y-80406320D01*
X83313683Y-80403814D01*
X83291843Y-80392250D01*
X83268654Y-80379972D01*
X83059608Y-80269288D01*
X82789627Y-80170489D01*
X82508736Y-80109245D01*
X82477685Y-80106801D01*
X82285718Y-80091693D01*
X82285709Y-80091693D01*
X82283261Y-80091500D01*
X82127729Y-80091500D01*
X82125593Y-80091646D01*
X82125582Y-80091646D01*
X81917452Y-80105835D01*
X81917446Y-80105836D01*
X81913175Y-80106127D01*
X81908980Y-80106996D01*
X81908978Y-80106996D01*
X81772417Y-80135276D01*
X81631658Y-80164426D01*
X81360657Y-80260393D01*
X81105188Y-80392250D01*
X81101687Y-80394711D01*
X81101683Y-80394713D01*
X81085167Y-80406321D01*
X80869977Y-80557559D01*
X80659378Y-80753260D01*
X80477287Y-80975732D01*
X80327073Y-81220858D01*
X80211517Y-81484102D01*
X80132756Y-81760594D01*
X80092249Y-82045216D01*
X80092227Y-82049505D01*
X80092226Y-82049512D01*
X80090765Y-82328417D01*
X80090743Y-82332703D01*
X79708500Y-82332703D01*
X79708500Y-81053250D01*
X79710246Y-81032345D01*
X79712770Y-81017344D01*
X79712770Y-81017341D01*
X79713576Y-81012552D01*
X79713729Y-81000000D01*
X79712334Y-80990257D01*
X79711451Y-80962517D01*
X79723623Y-80807851D01*
X79726716Y-80788322D01*
X79730439Y-80772814D01*
X79769398Y-80610541D01*
X79775506Y-80591742D01*
X79784896Y-80569074D01*
X79845470Y-80422834D01*
X79854446Y-80405217D01*
X79949974Y-80249330D01*
X79961596Y-80233335D01*
X80080332Y-80094313D01*
X80094313Y-80080332D01*
X80233335Y-79961596D01*
X80249330Y-79949974D01*
X80405217Y-79854446D01*
X80422834Y-79845470D01*
X80507288Y-79810488D01*
X80591746Y-79775505D01*
X80610541Y-79769398D01*
X80788323Y-79726716D01*
X80807850Y-79723623D01*
X80958987Y-79711728D01*
X80975875Y-79712370D01*
X80975877Y-79712200D01*
X80984853Y-79712310D01*
X80993724Y-79713691D01*
X81002626Y-79712527D01*
X81002628Y-79712527D01*
X81020864Y-79710142D01*
X81025286Y-79709564D01*
X81041621Y-79708500D01*
X118950633Y-79708500D01*
X118970018Y-79710000D01*
G37*
%TD.AperFunction*%
%TD*%
M02*
