%TF.GenerationSoftware,KiCad,Pcbnew,6.0.11-2627ca5db0~126~ubuntu22.04.1*%
%TF.CreationDate,2025-02-25T14:04:31+01:00*%
%TF.ProjectId,MidiBreakOut,4d696469-4272-4656-916b-4f75742e6b69,rev?*%
%TF.SameCoordinates,Original*%
%TF.FileFunction,Copper,L2,Bot*%
%TF.FilePolarity,Positive*%
%FSLAX46Y46*%
G04 Gerber Fmt 4.6, Leading zero omitted, Abs format (unit mm)*
G04 Created by KiCad (PCBNEW 6.0.11-2627ca5db0~126~ubuntu22.04.1) date 2025-02-25 14:04:31*
%MOMM*%
%LPD*%
G01*
G04 APERTURE LIST*
G04 Aperture macros list*
%AMRoundRect*
0 Rectangle with rounded corners*
0 $1 Rounding radius*
0 $2 $3 $4 $5 $6 $7 $8 $9 X,Y pos of 4 corners*
0 Add a 4 corners polygon primitive as box body*
4,1,4,$2,$3,$4,$5,$6,$7,$8,$9,$2,$3,0*
0 Add four circle primitives for the rounded corners*
1,1,$1+$1,$2,$3*
1,1,$1+$1,$4,$5*
1,1,$1+$1,$6,$7*
1,1,$1+$1,$8,$9*
0 Add four rect primitives between the rounded corners*
20,1,$1+$1,$2,$3,$4,$5,0*
20,1,$1+$1,$4,$5,$6,$7,0*
20,1,$1+$1,$6,$7,$8,$9,0*
20,1,$1+$1,$8,$9,$2,$3,0*%
G04 Aperture macros list end*
%TA.AperFunction,ComponentPad*%
%ADD10R,4.000000X2.000000*%
%TD*%
%TA.AperFunction,ComponentPad*%
%ADD11C,2.500000*%
%TD*%
%TA.AperFunction,SMDPad,CuDef*%
%ADD12RoundRect,0.250000X0.262500X0.450000X-0.262500X0.450000X-0.262500X-0.450000X0.262500X-0.450000X0*%
%TD*%
%TA.AperFunction,SMDPad,CuDef*%
%ADD13C,1.000000*%
%TD*%
%TA.AperFunction,SMDPad,CuDef*%
%ADD14RoundRect,0.250000X-0.262500X-0.450000X0.262500X-0.450000X0.262500X0.450000X-0.262500X0.450000X0*%
%TD*%
%TA.AperFunction,SMDPad,CuDef*%
%ADD15R,0.740000X2.400000*%
%TD*%
%TA.AperFunction,ViaPad*%
%ADD16C,0.800000*%
%TD*%
%TA.AperFunction,Conductor*%
%ADD17C,0.250000*%
%TD*%
G04 APERTURE END LIST*
D10*
%TO.P,X6,1,1*%
%TO.N,RXD*%
X82296000Y-106426000D03*
%TD*%
D11*
%TO.P,J1,1,1*%
%TO.N,unconnected-(J1-Pad1)*%
X105461000Y-100000000D03*
%TO.P,J1,2,2*%
%TO.N,Net-(J1-Pad2)*%
X103861511Y-96138489D03*
%TO.P,J1,3,3*%
%TO.N,GND*%
X100000000Y-94539000D03*
%TO.P,J1,4,4*%
%TO.N,Net-(J1-Pad4)*%
X96138489Y-96138489D03*
%TO.P,J1,5,5*%
%TO.N,unconnected-(J1-Pad5)*%
X94539000Y-100000000D03*
%TO.P,J1,6,6*%
%TO.N,unconnected-(J1-Pad6)*%
X100000000Y-104572000D03*
%TD*%
D10*
%TO.P,X9,1,1*%
%TO.N,GND*%
X82296000Y-91186000D03*
%TD*%
%TO.P,X3,1,1*%
%TO.N,CV1*%
X82296000Y-96266000D03*
%TD*%
%TO.P,X10,1,1*%
%TO.N,GND*%
X82296000Y-111506000D03*
%TD*%
%TO.P,X8,1,1*%
%TO.N,RESET*%
X82296000Y-108966000D03*
%TD*%
D12*
%TO.P,R1,1*%
%TO.N,+5V*%
X99083500Y-90424000D03*
%TO.P,R1,2*%
%TO.N,Net-(J1-Pad4)*%
X97258500Y-90424000D03*
%TD*%
D10*
%TO.P,X4,1,1*%
%TO.N,TXD*%
X82296000Y-103886000D03*
%TD*%
%TO.P,X7,1,1*%
%TO.N,GATE*%
X82296000Y-101346000D03*
%TD*%
D13*
%TO.P,FID2,~*%
%TO.N,N/C*%
X112700000Y-83900000D03*
%TD*%
D14*
%TO.P,R2,1*%
%TO.N,RXD*%
X93472000Y-90424000D03*
%TO.P,R2,2*%
%TO.N,Net-(J1-Pad2)*%
X95297000Y-90424000D03*
%TD*%
D10*
%TO.P,X5,1,1*%
%TO.N,CV2*%
X82296000Y-98806000D03*
%TD*%
%TO.P,X1,1,1*%
%TO.N,AUDIO*%
X82296000Y-93726000D03*
%TD*%
D13*
%TO.P,FID1,~*%
%TO.N,N/C*%
X87300000Y-116100000D03*
%TD*%
D10*
%TO.P,X2,1,1*%
%TO.N,+5V*%
X82296000Y-88646000D03*
%TD*%
D15*
%TO.P,J2,1,Pin_1*%
%TO.N,AUDIO*%
X90960000Y-81550000D03*
%TO.P,J2,2,Pin_2*%
%TO.N,+5V*%
X90960000Y-85450000D03*
%TO.P,J2,3,Pin_3*%
%TO.N,CV1*%
X92230000Y-81550000D03*
%TO.P,J2,4,Pin_4*%
%TO.N,TXD*%
X92230000Y-85450000D03*
%TO.P,J2,5,Pin_5*%
%TO.N,CV2*%
X93500000Y-81550000D03*
%TO.P,J2,6,Pin_6*%
%TO.N,RXD*%
X93500000Y-85450000D03*
%TO.P,J2,7,Pin_7*%
%TO.N,GATE*%
X94770000Y-81550000D03*
%TO.P,J2,8,Pin_8*%
%TO.N,RESET*%
X94770000Y-85450000D03*
%TO.P,J2,9,Pin_9*%
%TO.N,unconnected-(J2-Pad9)*%
X96040000Y-81550000D03*
%TO.P,J2,10,Pin_10*%
%TO.N,GND*%
X96040000Y-85450000D03*
%TD*%
D16*
%TO.N,GND*%
X97155000Y-88519000D03*
X96266000Y-88519000D03*
%TO.N,+5V*%
X97409000Y-85598000D03*
X89789000Y-85598000D03*
%TO.N,CV2*%
X87376000Y-94996000D03*
X87376000Y-89916000D03*
%TO.N,RXD*%
X93130000Y-93680000D03*
X89662000Y-101346000D03*
%TO.N,GATE*%
X89916000Y-88138000D03*
X97536000Y-83566000D03*
%TO.N,RESET*%
X94615000Y-87884000D03*
X91821000Y-88773000D03*
%TD*%
D17*
%TO.N,GND*%
X96040000Y-88293000D02*
X96266000Y-88519000D01*
X96040000Y-85450000D02*
X96040000Y-88293000D01*
%TO.N,Net-(J1-Pad2)*%
X95297000Y-93683000D02*
X93890000Y-95090000D01*
X93890000Y-96990000D02*
X94860000Y-97960000D01*
X101590000Y-98410000D02*
X103861511Y-96138489D01*
X94860000Y-97960000D02*
X95620000Y-97960000D01*
X95620000Y-97960000D02*
X96070000Y-98410000D01*
X95297000Y-90424000D02*
X95297000Y-93683000D01*
X96070000Y-98410000D02*
X101590000Y-98410000D01*
X93890000Y-95090000D02*
X93890000Y-96990000D01*
%TO.N,Net-(J1-Pad4)*%
X97258500Y-90424000D02*
X97258500Y-92733500D01*
X96138489Y-93853511D02*
X96138489Y-96138489D01*
X97258500Y-92733500D02*
X96138489Y-93853511D01*
%TO.N,AUDIO*%
X88265000Y-82550000D02*
X89265000Y-81550000D01*
X85725000Y-93726000D02*
X88265000Y-91186000D01*
X82296000Y-93726000D02*
X85725000Y-93726000D01*
X88265000Y-91186000D02*
X88265000Y-82550000D01*
X89265000Y-81550000D02*
X90960000Y-81550000D01*
%TO.N,+5V*%
X89937000Y-85450000D02*
X89789000Y-85598000D01*
X90960000Y-85450000D02*
X89937000Y-85450000D01*
X97409000Y-85598000D02*
X99083500Y-87272500D01*
X99083500Y-87272500D02*
X99083500Y-90424000D01*
%TO.N,CV1*%
X84963000Y-96266000D02*
X89027000Y-92202000D01*
X92230000Y-83157000D02*
X92230000Y-81550000D01*
X89027000Y-92202000D02*
X89027000Y-83947000D01*
X82296000Y-96266000D02*
X84963000Y-96266000D01*
X91948000Y-83439000D02*
X92230000Y-83157000D01*
X89535000Y-83439000D02*
X91948000Y-83439000D01*
X89027000Y-83947000D02*
X89535000Y-83439000D01*
%TO.N,TXD*%
X92230000Y-87221000D02*
X90868500Y-88582500D01*
X89916000Y-95123000D02*
X89916000Y-99568000D01*
X85598000Y-103886000D02*
X82296000Y-103886000D01*
X89916000Y-99568000D02*
X85598000Y-103886000D01*
X92230000Y-85450000D02*
X92230000Y-87221000D01*
X90868500Y-94170500D02*
X89916000Y-95123000D01*
X90868500Y-88582500D02*
X90868500Y-94170500D01*
%TO.N,CV2*%
X87376000Y-82169000D02*
X87376000Y-89916000D01*
X93500000Y-80165000D02*
X93218000Y-79883000D01*
X82296000Y-98806000D02*
X85217000Y-98806000D01*
X85217000Y-98806000D02*
X87376000Y-96647000D01*
X87376000Y-96647000D02*
X87376000Y-94996000D01*
X93500000Y-81550000D02*
X93500000Y-80165000D01*
X89662000Y-79883000D02*
X87376000Y-82169000D01*
X93218000Y-79883000D02*
X89662000Y-79883000D01*
%TO.N,RXD*%
X93500000Y-85450000D02*
X93500000Y-90396000D01*
X93500000Y-90396000D02*
X93472000Y-90424000D01*
X82296000Y-106426000D02*
X84582000Y-106426000D01*
X93472000Y-90424000D02*
X93472000Y-93338000D01*
X84582000Y-106426000D02*
X89662000Y-101346000D01*
X93472000Y-93338000D02*
X93130000Y-93680000D01*
%TO.N,GATE*%
X89916000Y-93726000D02*
X89027000Y-94615000D01*
X89027000Y-98806000D02*
X86487000Y-101346000D01*
X94770000Y-83213000D02*
X94996000Y-83439000D01*
X89027000Y-94615000D02*
X89027000Y-98806000D01*
X95123000Y-83566000D02*
X97536000Y-83566000D01*
X94996000Y-83439000D02*
X95123000Y-83566000D01*
X94770000Y-81550000D02*
X94770000Y-83213000D01*
X86487000Y-101346000D02*
X82296000Y-101346000D01*
X89916000Y-88138000D02*
X89916000Y-93726000D01*
%TO.N,RESET*%
X90678000Y-104648000D02*
X86360000Y-108966000D01*
X94770000Y-85450000D02*
X94770000Y-87729000D01*
X91821000Y-88773000D02*
X91821000Y-94742000D01*
X90678000Y-95885000D02*
X90678000Y-104648000D01*
X86360000Y-108966000D02*
X82296000Y-108966000D01*
X94770000Y-87729000D02*
X94615000Y-87884000D01*
X91821000Y-94742000D02*
X90678000Y-95885000D01*
X94770000Y-87856000D02*
X94615000Y-88011000D01*
%TD*%
%TA.AperFunction,Conductor*%
%TO.N,GND*%
G36*
X118970018Y-79710000D02*
G01*
X118984851Y-79712310D01*
X118984855Y-79712310D01*
X118993724Y-79713691D01*
X119007789Y-79711852D01*
X119034003Y-79711176D01*
X119192152Y-79723623D01*
X119211677Y-79726716D01*
X119389459Y-79769398D01*
X119408254Y-79775505D01*
X119424317Y-79782158D01*
X119577166Y-79845470D01*
X119594783Y-79854446D01*
X119750670Y-79949974D01*
X119766665Y-79961596D01*
X119905687Y-80080332D01*
X119919668Y-80094313D01*
X120038404Y-80233335D01*
X120050026Y-80249330D01*
X120145554Y-80405217D01*
X120154530Y-80422834D01*
X120215105Y-80569074D01*
X120224494Y-80591742D01*
X120230602Y-80610541D01*
X120269561Y-80772814D01*
X120273284Y-80788322D01*
X120276377Y-80807850D01*
X120288272Y-80958987D01*
X120287630Y-80975875D01*
X120287800Y-80975877D01*
X120287690Y-80984853D01*
X120286309Y-80993724D01*
X120287473Y-81002626D01*
X120287473Y-81002628D01*
X120290436Y-81025283D01*
X120291500Y-81041621D01*
X120291500Y-118950633D01*
X120290000Y-118970018D01*
X120287690Y-118984851D01*
X120287690Y-118984855D01*
X120286309Y-118993724D01*
X120288148Y-119007789D01*
X120288824Y-119034003D01*
X120276377Y-119192150D01*
X120276377Y-119192151D01*
X120273284Y-119211677D01*
X120268759Y-119230528D01*
X120230604Y-119389454D01*
X120224495Y-119408254D01*
X120211544Y-119439522D01*
X120154530Y-119577166D01*
X120145554Y-119594783D01*
X120050026Y-119750670D01*
X120038404Y-119766665D01*
X119919668Y-119905687D01*
X119905687Y-119919668D01*
X119766665Y-120038404D01*
X119750670Y-120050026D01*
X119594783Y-120145554D01*
X119577166Y-120154530D01*
X119492712Y-120189512D01*
X119408254Y-120224495D01*
X119389459Y-120230602D01*
X119211678Y-120273284D01*
X119192150Y-120276377D01*
X119041013Y-120288272D01*
X119024125Y-120287630D01*
X119024123Y-120287800D01*
X119015147Y-120287690D01*
X119006276Y-120286309D01*
X118997374Y-120287473D01*
X118997372Y-120287473D01*
X118982323Y-120289441D01*
X118974714Y-120290436D01*
X118958379Y-120291500D01*
X81049367Y-120291500D01*
X81029982Y-120290000D01*
X81015149Y-120287690D01*
X81015145Y-120287690D01*
X81006276Y-120286309D01*
X80992211Y-120288148D01*
X80965997Y-120288824D01*
X80807848Y-120276377D01*
X80788322Y-120273284D01*
X80610541Y-120230602D01*
X80591746Y-120224495D01*
X80507288Y-120189512D01*
X80422834Y-120154530D01*
X80405217Y-120145554D01*
X80249330Y-120050026D01*
X80233335Y-120038404D01*
X80094313Y-119919668D01*
X80080332Y-119905687D01*
X79961596Y-119766665D01*
X79949974Y-119750670D01*
X79854446Y-119594783D01*
X79845470Y-119577166D01*
X79788456Y-119439522D01*
X79775505Y-119408254D01*
X79769396Y-119389454D01*
X79731242Y-119230528D01*
X79726716Y-119211677D01*
X79723623Y-119192150D01*
X79712009Y-119044583D01*
X79712994Y-119022258D01*
X79712334Y-119022199D01*
X79712769Y-119017351D01*
X79713576Y-119012552D01*
X79713729Y-119000000D01*
X79709773Y-118972376D01*
X79708500Y-118954514D01*
X79708500Y-117932703D01*
X80090743Y-117932703D01*
X80128268Y-118217734D01*
X80204129Y-118495036D01*
X80316923Y-118759476D01*
X80328693Y-118779142D01*
X80460874Y-119000000D01*
X80464561Y-119006161D01*
X80644313Y-119230528D01*
X80767711Y-119347628D01*
X80831602Y-119408258D01*
X80852851Y-119428423D01*
X80875787Y-119444904D01*
X81072600Y-119586329D01*
X81086317Y-119596186D01*
X81090112Y-119598195D01*
X81090113Y-119598196D01*
X81111869Y-119609715D01*
X81340392Y-119730712D01*
X81610373Y-119829511D01*
X81891264Y-119890755D01*
X81919841Y-119893004D01*
X82114282Y-119908307D01*
X82114291Y-119908307D01*
X82116739Y-119908500D01*
X82272271Y-119908500D01*
X82274407Y-119908354D01*
X82274418Y-119908354D01*
X82482548Y-119894165D01*
X82482554Y-119894164D01*
X82486825Y-119893873D01*
X82491020Y-119893004D01*
X82491022Y-119893004D01*
X82627584Y-119864723D01*
X82768342Y-119835574D01*
X83039343Y-119739607D01*
X83294812Y-119607750D01*
X83298313Y-119605289D01*
X83298317Y-119605287D01*
X83412418Y-119525095D01*
X83530023Y-119442441D01*
X83740622Y-119246740D01*
X83922713Y-119024268D01*
X84072927Y-118779142D01*
X84188483Y-118515898D01*
X84267244Y-118239406D01*
X84307751Y-117954784D01*
X84307845Y-117936951D01*
X84307867Y-117932703D01*
X115690743Y-117932703D01*
X115728268Y-118217734D01*
X115804129Y-118495036D01*
X115916923Y-118759476D01*
X115928693Y-118779142D01*
X116060874Y-119000000D01*
X116064561Y-119006161D01*
X116244313Y-119230528D01*
X116367711Y-119347628D01*
X116431602Y-119408258D01*
X116452851Y-119428423D01*
X116475787Y-119444904D01*
X116672600Y-119586329D01*
X116686317Y-119596186D01*
X116690112Y-119598195D01*
X116690113Y-119598196D01*
X116711869Y-119609715D01*
X116940392Y-119730712D01*
X117210373Y-119829511D01*
X117491264Y-119890755D01*
X117519841Y-119893004D01*
X117714282Y-119908307D01*
X117714291Y-119908307D01*
X117716739Y-119908500D01*
X117872271Y-119908500D01*
X117874407Y-119908354D01*
X117874418Y-119908354D01*
X118082548Y-119894165D01*
X118082554Y-119894164D01*
X118086825Y-119893873D01*
X118091020Y-119893004D01*
X118091022Y-119893004D01*
X118227584Y-119864723D01*
X118368342Y-119835574D01*
X118639343Y-119739607D01*
X118894812Y-119607750D01*
X118898313Y-119605289D01*
X118898317Y-119605287D01*
X119012418Y-119525095D01*
X119130023Y-119442441D01*
X119340622Y-119246740D01*
X119522713Y-119024268D01*
X119672927Y-118779142D01*
X119788483Y-118515898D01*
X119867244Y-118239406D01*
X119907751Y-117954784D01*
X119907845Y-117936951D01*
X119909235Y-117671583D01*
X119909235Y-117671576D01*
X119909257Y-117667297D01*
X119871732Y-117382266D01*
X119864672Y-117356457D01*
X119823734Y-117206814D01*
X119795871Y-117104964D01*
X119782271Y-117073080D01*
X119684763Y-116844476D01*
X119684761Y-116844472D01*
X119683077Y-116840524D01*
X119535439Y-116593839D01*
X119355687Y-116369472D01*
X119147149Y-116171577D01*
X118913683Y-116003814D01*
X118891843Y-115992250D01*
X118868654Y-115979972D01*
X118659608Y-115869288D01*
X118389627Y-115770489D01*
X118108736Y-115709245D01*
X118077685Y-115706801D01*
X117885718Y-115691693D01*
X117885709Y-115691693D01*
X117883261Y-115691500D01*
X117727729Y-115691500D01*
X117725593Y-115691646D01*
X117725582Y-115691646D01*
X117517452Y-115705835D01*
X117517446Y-115705836D01*
X117513175Y-115706127D01*
X117508980Y-115706996D01*
X117508978Y-115706996D01*
X117372416Y-115735277D01*
X117231658Y-115764426D01*
X116960657Y-115860393D01*
X116705188Y-115992250D01*
X116701687Y-115994711D01*
X116701683Y-115994713D01*
X116691594Y-116001804D01*
X116469977Y-116157559D01*
X116454892Y-116171577D01*
X116293596Y-116321463D01*
X116259378Y-116353260D01*
X116077287Y-116575732D01*
X115927073Y-116820858D01*
X115811517Y-117084102D01*
X115732756Y-117360594D01*
X115692249Y-117645216D01*
X115692227Y-117649505D01*
X115692226Y-117649512D01*
X115690765Y-117928417D01*
X115690743Y-117932703D01*
X84307867Y-117932703D01*
X84309235Y-117671583D01*
X84309235Y-117671576D01*
X84309257Y-117667297D01*
X84271732Y-117382266D01*
X84264672Y-117356457D01*
X84223734Y-117206814D01*
X84195871Y-117104964D01*
X84182271Y-117073080D01*
X84084763Y-116844476D01*
X84084761Y-116844472D01*
X84083077Y-116840524D01*
X83935439Y-116593839D01*
X83755687Y-116369472D01*
X83547149Y-116171577D01*
X83447539Y-116100000D01*
X86024647Y-116100000D01*
X86044022Y-116321463D01*
X86101560Y-116536196D01*
X86103882Y-116541177D01*
X86103883Y-116541178D01*
X86193186Y-116732689D01*
X86193189Y-116732694D01*
X86195512Y-116737676D01*
X86198668Y-116742183D01*
X86198669Y-116742185D01*
X86267527Y-116840524D01*
X86323023Y-116919781D01*
X86480219Y-117076977D01*
X86484727Y-117080134D01*
X86484730Y-117080136D01*
X86560495Y-117133187D01*
X86662323Y-117204488D01*
X86667305Y-117206811D01*
X86667310Y-117206814D01*
X86858822Y-117296117D01*
X86863804Y-117298440D01*
X86869112Y-117299862D01*
X86869114Y-117299863D01*
X86934949Y-117317503D01*
X87078537Y-117355978D01*
X87300000Y-117375353D01*
X87521463Y-117355978D01*
X87665051Y-117317503D01*
X87730886Y-117299863D01*
X87730888Y-117299862D01*
X87736196Y-117298440D01*
X87741178Y-117296117D01*
X87932690Y-117206814D01*
X87932695Y-117206811D01*
X87937677Y-117204488D01*
X88039505Y-117133187D01*
X88115270Y-117080136D01*
X88115273Y-117080134D01*
X88119781Y-117076977D01*
X88276977Y-116919781D01*
X88332474Y-116840524D01*
X88401331Y-116742185D01*
X88401332Y-116742183D01*
X88404488Y-116737676D01*
X88406811Y-116732694D01*
X88406814Y-116732689D01*
X88496117Y-116541178D01*
X88496118Y-116541177D01*
X88498440Y-116536196D01*
X88555978Y-116321463D01*
X88575353Y-116100000D01*
X88555978Y-115878537D01*
X88498440Y-115663804D01*
X88496117Y-115658822D01*
X88406814Y-115467311D01*
X88406811Y-115467306D01*
X88404488Y-115462324D01*
X88276977Y-115280219D01*
X88119781Y-115123023D01*
X88115273Y-115119866D01*
X88115270Y-115119864D01*
X88039505Y-115066813D01*
X87937677Y-114995512D01*
X87932695Y-114993189D01*
X87932690Y-114993186D01*
X87741178Y-114903883D01*
X87741177Y-114903882D01*
X87736196Y-114901560D01*
X87730888Y-114900138D01*
X87730886Y-114900137D01*
X87665051Y-114882497D01*
X87521463Y-114844022D01*
X87300000Y-114824647D01*
X87078537Y-114844022D01*
X86934949Y-114882497D01*
X86869114Y-114900137D01*
X86869112Y-114900138D01*
X86863804Y-114901560D01*
X86858823Y-114903882D01*
X86858822Y-114903883D01*
X86667311Y-114993186D01*
X86667306Y-114993189D01*
X86662324Y-114995512D01*
X86657817Y-114998668D01*
X86657815Y-114998669D01*
X86484730Y-115119864D01*
X86484727Y-115119866D01*
X86480219Y-115123023D01*
X86323023Y-115280219D01*
X86195512Y-115462324D01*
X86193189Y-115467306D01*
X86193186Y-115467311D01*
X86103883Y-115658822D01*
X86101560Y-115663804D01*
X86044022Y-115878537D01*
X86024647Y-116100000D01*
X83447539Y-116100000D01*
X83313683Y-116003814D01*
X83291843Y-115992250D01*
X83268654Y-115979972D01*
X83059608Y-115869288D01*
X82789627Y-115770489D01*
X82508736Y-115709245D01*
X82477685Y-115706801D01*
X82285718Y-115691693D01*
X82285709Y-115691693D01*
X82283261Y-115691500D01*
X82127729Y-115691500D01*
X82125593Y-115691646D01*
X82125582Y-115691646D01*
X81917452Y-115705835D01*
X81917446Y-115705836D01*
X81913175Y-115706127D01*
X81908980Y-115706996D01*
X81908978Y-115706996D01*
X81772416Y-115735277D01*
X81631658Y-115764426D01*
X81360657Y-115860393D01*
X81105188Y-115992250D01*
X81101687Y-115994711D01*
X81101683Y-115994713D01*
X81091594Y-116001804D01*
X80869977Y-116157559D01*
X80854892Y-116171577D01*
X80693596Y-116321463D01*
X80659378Y-116353260D01*
X80477287Y-116575732D01*
X80327073Y-116820858D01*
X80211517Y-117084102D01*
X80132756Y-117360594D01*
X80092249Y-117645216D01*
X80092227Y-117649505D01*
X80092226Y-117649512D01*
X80090765Y-117928417D01*
X80090743Y-117932703D01*
X79708500Y-117932703D01*
X79708500Y-112946699D01*
X79728502Y-112878578D01*
X79782158Y-112832085D01*
X79852432Y-112821981D01*
X79917012Y-112851475D01*
X79923595Y-112857604D01*
X79940276Y-112874285D01*
X80042351Y-112950786D01*
X80057946Y-112959324D01*
X80178394Y-113004478D01*
X80193649Y-113008105D01*
X80244514Y-113013631D01*
X80251328Y-113014000D01*
X82023885Y-113014000D01*
X82039124Y-113009525D01*
X82040329Y-113008135D01*
X82042000Y-113000452D01*
X82042000Y-112995884D01*
X82550000Y-112995884D01*
X82554475Y-113011123D01*
X82555865Y-113012328D01*
X82563548Y-113013999D01*
X84340669Y-113013999D01*
X84347490Y-113013629D01*
X84398352Y-113008105D01*
X84413604Y-113004479D01*
X84534054Y-112959324D01*
X84549649Y-112950786D01*
X84651724Y-112874285D01*
X84664285Y-112861724D01*
X84740786Y-112759649D01*
X84749324Y-112744054D01*
X84794478Y-112623606D01*
X84798105Y-112608351D01*
X84803631Y-112557486D01*
X84804000Y-112550672D01*
X84804000Y-111778115D01*
X84799525Y-111762876D01*
X84798135Y-111761671D01*
X84790452Y-111760000D01*
X82568115Y-111760000D01*
X82552876Y-111764475D01*
X82551671Y-111765865D01*
X82550000Y-111773548D01*
X82550000Y-112995884D01*
X82042000Y-112995884D01*
X82042000Y-111378000D01*
X82062002Y-111309879D01*
X82115658Y-111263386D01*
X82168000Y-111252000D01*
X84785884Y-111252000D01*
X84801123Y-111247525D01*
X84802328Y-111246135D01*
X84803999Y-111238452D01*
X84803999Y-110461331D01*
X84803629Y-110454510D01*
X84798105Y-110403648D01*
X84794479Y-110388396D01*
X84754196Y-110280942D01*
X84749013Y-110210135D01*
X84754196Y-110192482D01*
X84794971Y-110083715D01*
X84797745Y-110076316D01*
X84804500Y-110014134D01*
X84804500Y-109725500D01*
X84824502Y-109657379D01*
X84878158Y-109610886D01*
X84930500Y-109599500D01*
X86281233Y-109599500D01*
X86292416Y-109600027D01*
X86299909Y-109601702D01*
X86307835Y-109601453D01*
X86307836Y-109601453D01*
X86367986Y-109599562D01*
X86371945Y-109599500D01*
X86399856Y-109599500D01*
X86403791Y-109599003D01*
X86403856Y-109598995D01*
X86415693Y-109598062D01*
X86447951Y-109597048D01*
X86451970Y-109596922D01*
X86459889Y-109596673D01*
X86479343Y-109591021D01*
X86498700Y-109587013D01*
X86510930Y-109585468D01*
X86510931Y-109585468D01*
X86518797Y-109584474D01*
X86526168Y-109581555D01*
X86526170Y-109581555D01*
X86559912Y-109568196D01*
X86571142Y-109564351D01*
X86605983Y-109554229D01*
X86605984Y-109554229D01*
X86613593Y-109552018D01*
X86620412Y-109547985D01*
X86620417Y-109547983D01*
X86631028Y-109541707D01*
X86648776Y-109533012D01*
X86667617Y-109525552D01*
X86703387Y-109499564D01*
X86713307Y-109493048D01*
X86744535Y-109474580D01*
X86744538Y-109474578D01*
X86751362Y-109470542D01*
X86765683Y-109456221D01*
X86780717Y-109443380D01*
X86790694Y-109436131D01*
X86797107Y-109431472D01*
X86825298Y-109397395D01*
X86833288Y-109388616D01*
X91070247Y-105151657D01*
X91078537Y-105144113D01*
X91085018Y-105140000D01*
X91131659Y-105090332D01*
X91134413Y-105087491D01*
X91154134Y-105067770D01*
X91156612Y-105064575D01*
X91164318Y-105055553D01*
X91189158Y-105029101D01*
X91194586Y-105023321D01*
X91204346Y-105005568D01*
X91215199Y-104989045D01*
X91222753Y-104979306D01*
X91227613Y-104973041D01*
X91245176Y-104932457D01*
X91250383Y-104921827D01*
X91271695Y-104883060D01*
X91273666Y-104875383D01*
X91273668Y-104875378D01*
X91276732Y-104863442D01*
X91283138Y-104844730D01*
X91288033Y-104833419D01*
X91291181Y-104826145D01*
X91292421Y-104818317D01*
X91292423Y-104818310D01*
X91298099Y-104782476D01*
X91300505Y-104770856D01*
X91309528Y-104735711D01*
X91309528Y-104735710D01*
X91311500Y-104728030D01*
X91311500Y-104707776D01*
X91313051Y-104688065D01*
X91314980Y-104675886D01*
X91316220Y-104668057D01*
X91312059Y-104624038D01*
X91311500Y-104612181D01*
X91311500Y-104525839D01*
X98237173Y-104525839D01*
X98237397Y-104530505D01*
X98237397Y-104530511D01*
X98241320Y-104612181D01*
X98249713Y-104786908D01*
X98300704Y-105043256D01*
X98389026Y-105289252D01*
X98391242Y-105293376D01*
X98455753Y-105413437D01*
X98512737Y-105519491D01*
X98515532Y-105523234D01*
X98515534Y-105523237D01*
X98666330Y-105725177D01*
X98666335Y-105725183D01*
X98669122Y-105728915D01*
X98672431Y-105732195D01*
X98672436Y-105732201D01*
X98851426Y-105909635D01*
X98854743Y-105912923D01*
X98858505Y-105915681D01*
X98858508Y-105915684D01*
X99061750Y-106064707D01*
X99065524Y-106067474D01*
X99069667Y-106069654D01*
X99069669Y-106069655D01*
X99292684Y-106186989D01*
X99292689Y-106186991D01*
X99296834Y-106189172D01*
X99543590Y-106275344D01*
X99548183Y-106276216D01*
X99795785Y-106323224D01*
X99795788Y-106323224D01*
X99800374Y-106324095D01*
X99930958Y-106329226D01*
X100056875Y-106334174D01*
X100056881Y-106334174D01*
X100061543Y-106334357D01*
X100140977Y-106325657D01*
X100316707Y-106306412D01*
X100316712Y-106306411D01*
X100321360Y-106305902D01*
X100434116Y-106276216D01*
X100569594Y-106240548D01*
X100569596Y-106240547D01*
X100574117Y-106239357D01*
X100814262Y-106136182D01*
X101036519Y-105998646D01*
X101040082Y-105995629D01*
X101040087Y-105995626D01*
X101232439Y-105832787D01*
X101232440Y-105832786D01*
X101236005Y-105829768D01*
X101327729Y-105725177D01*
X101405257Y-105636774D01*
X101405261Y-105636769D01*
X101408339Y-105633259D01*
X101549733Y-105413437D01*
X101657083Y-105175129D01*
X101665956Y-105143668D01*
X101726760Y-104928076D01*
X101726761Y-104928073D01*
X101728030Y-104923572D01*
X101744832Y-104791496D01*
X101760616Y-104667421D01*
X101760616Y-104667417D01*
X101761014Y-104664291D01*
X101763431Y-104572000D01*
X101752321Y-104422500D01*
X101744407Y-104316000D01*
X101744406Y-104315996D01*
X101744061Y-104311348D01*
X101732725Y-104261248D01*
X101687408Y-104060980D01*
X101686377Y-104056423D01*
X101591647Y-103812823D01*
X101461951Y-103585902D01*
X101300138Y-103380643D01*
X101109763Y-103201557D01*
X100895009Y-103052576D01*
X100890816Y-103050508D01*
X100664781Y-102939040D01*
X100664778Y-102939039D01*
X100660593Y-102936975D01*
X100614449Y-102922204D01*
X100416123Y-102858720D01*
X100411665Y-102857293D01*
X100153693Y-102815279D01*
X100039942Y-102813790D01*
X99897022Y-102811919D01*
X99897019Y-102811919D01*
X99892345Y-102811858D01*
X99633362Y-102847104D01*
X99382433Y-102920243D01*
X99378180Y-102922203D01*
X99378179Y-102922204D01*
X99341659Y-102939040D01*
X99145072Y-103029668D01*
X99106067Y-103055241D01*
X98930404Y-103170410D01*
X98930399Y-103170414D01*
X98926491Y-103172976D01*
X98731494Y-103347018D01*
X98564363Y-103547970D01*
X98428771Y-103771419D01*
X98327697Y-104012455D01*
X98263359Y-104265783D01*
X98237173Y-104525839D01*
X91311500Y-104525839D01*
X91311500Y-96199595D01*
X91331502Y-96131474D01*
X91348405Y-96110499D01*
X91780676Y-95678229D01*
X92213258Y-95245647D01*
X92221537Y-95238113D01*
X92228018Y-95234000D01*
X92274644Y-95184348D01*
X92277398Y-95181507D01*
X92297135Y-95161770D01*
X92299615Y-95158573D01*
X92307320Y-95149551D01*
X92332159Y-95123100D01*
X92337586Y-95117321D01*
X92341405Y-95110375D01*
X92341407Y-95110372D01*
X92347348Y-95099566D01*
X92358199Y-95083047D01*
X92358559Y-95082583D01*
X92370614Y-95067041D01*
X92373759Y-95059772D01*
X92373762Y-95059768D01*
X92388174Y-95026463D01*
X92393391Y-95015813D01*
X92414695Y-94977060D01*
X92419733Y-94957437D01*
X92426137Y-94938734D01*
X92431033Y-94927420D01*
X92431033Y-94927419D01*
X92434181Y-94920145D01*
X92435420Y-94912322D01*
X92435423Y-94912312D01*
X92441099Y-94876476D01*
X92443505Y-94864856D01*
X92452528Y-94829711D01*
X92452528Y-94829710D01*
X92454500Y-94822030D01*
X92454500Y-94801776D01*
X92456051Y-94782065D01*
X92457980Y-94769886D01*
X92459220Y-94762057D01*
X92455059Y-94718038D01*
X92454500Y-94706181D01*
X92454500Y-94559477D01*
X92474502Y-94491356D01*
X92528158Y-94444863D01*
X92598432Y-94434759D01*
X92654561Y-94457541D01*
X92673248Y-94471118D01*
X92679276Y-94473802D01*
X92679278Y-94473803D01*
X92841681Y-94546109D01*
X92847712Y-94548794D01*
X92924623Y-94565142D01*
X93028056Y-94587128D01*
X93028061Y-94587128D01*
X93034513Y-94588500D01*
X93224996Y-94588500D01*
X93293117Y-94608502D01*
X93339610Y-94662158D01*
X93349714Y-94732432D01*
X93338551Y-94764164D01*
X93340386Y-94764958D01*
X93322826Y-94805537D01*
X93317609Y-94816187D01*
X93296305Y-94854940D01*
X93294334Y-94862615D01*
X93294334Y-94862616D01*
X93291267Y-94874562D01*
X93284863Y-94893266D01*
X93280418Y-94903539D01*
X93276819Y-94911855D01*
X93275580Y-94919678D01*
X93275577Y-94919688D01*
X93269901Y-94955524D01*
X93267495Y-94967144D01*
X93263167Y-94984001D01*
X93256500Y-95009970D01*
X93256500Y-95030224D01*
X93254949Y-95049934D01*
X93251780Y-95069943D01*
X93252526Y-95077835D01*
X93255941Y-95113961D01*
X93256500Y-95125819D01*
X93256500Y-96911233D01*
X93255973Y-96922416D01*
X93254298Y-96929909D01*
X93254547Y-96937835D01*
X93254547Y-96937836D01*
X93256438Y-96997986D01*
X93256500Y-97001945D01*
X93256500Y-97029856D01*
X93256997Y-97033790D01*
X93256997Y-97033791D01*
X93257005Y-97033856D01*
X93257938Y-97045693D01*
X93259327Y-97089889D01*
X93264978Y-97109339D01*
X93268987Y-97128700D01*
X93271526Y-97148797D01*
X93274445Y-97156168D01*
X93274445Y-97156170D01*
X93287804Y-97189912D01*
X93291649Y-97201142D01*
X93303982Y-97243593D01*
X93308015Y-97250412D01*
X93308017Y-97250417D01*
X93314293Y-97261028D01*
X93322988Y-97278776D01*
X93330448Y-97297617D01*
X93335110Y-97304033D01*
X93335110Y-97304034D01*
X93356436Y-97333387D01*
X93362952Y-97343307D01*
X93377828Y-97368460D01*
X93385458Y-97381362D01*
X93399779Y-97395683D01*
X93412619Y-97410716D01*
X93424528Y-97427107D01*
X93430634Y-97432158D01*
X93458605Y-97455298D01*
X93467384Y-97463288D01*
X94104586Y-98100490D01*
X94138612Y-98162802D01*
X94133547Y-98233617D01*
X94091000Y-98290453D01*
X94050750Y-98310551D01*
X93921433Y-98348243D01*
X93917180Y-98350203D01*
X93917179Y-98350204D01*
X93880659Y-98367040D01*
X93684072Y-98457668D01*
X93645067Y-98483241D01*
X93469404Y-98598410D01*
X93469399Y-98598414D01*
X93465491Y-98600976D01*
X93270494Y-98775018D01*
X93103363Y-98975970D01*
X93093646Y-98991983D01*
X92989895Y-99162960D01*
X92967771Y-99199419D01*
X92866697Y-99440455D01*
X92802359Y-99693783D01*
X92776173Y-99953839D01*
X92788713Y-100214908D01*
X92839704Y-100471256D01*
X92928026Y-100717252D01*
X92930242Y-100721376D01*
X92994753Y-100841437D01*
X93051737Y-100947491D01*
X93054532Y-100951234D01*
X93054534Y-100951237D01*
X93205330Y-101153177D01*
X93205335Y-101153183D01*
X93208122Y-101156915D01*
X93211431Y-101160195D01*
X93211436Y-101160201D01*
X93390426Y-101337635D01*
X93393743Y-101340923D01*
X93397505Y-101343681D01*
X93397508Y-101343684D01*
X93600750Y-101492707D01*
X93604524Y-101495474D01*
X93608667Y-101497654D01*
X93608669Y-101497655D01*
X93831684Y-101614989D01*
X93831689Y-101614991D01*
X93835834Y-101617172D01*
X94082590Y-101703344D01*
X94087183Y-101704216D01*
X94334785Y-101751224D01*
X94334788Y-101751224D01*
X94339374Y-101752095D01*
X94469959Y-101757226D01*
X94595875Y-101762174D01*
X94595881Y-101762174D01*
X94600543Y-101762357D01*
X94679977Y-101753657D01*
X94855707Y-101734412D01*
X94855712Y-101734411D01*
X94860360Y-101733902D01*
X94973116Y-101704216D01*
X95108594Y-101668548D01*
X95108596Y-101668547D01*
X95113117Y-101667357D01*
X95353262Y-101564182D01*
X95575519Y-101426646D01*
X95579082Y-101423629D01*
X95579087Y-101423626D01*
X95771439Y-101260787D01*
X95771440Y-101260786D01*
X95775005Y-101257768D01*
X95866729Y-101153177D01*
X95944257Y-101064774D01*
X95944261Y-101064769D01*
X95947339Y-101061259D01*
X96088733Y-100841437D01*
X96196083Y-100603129D01*
X96267030Y-100351572D01*
X96280773Y-100243540D01*
X96299616Y-100095421D01*
X96299616Y-100095417D01*
X96300014Y-100092291D01*
X96302431Y-100000000D01*
X96299001Y-99953839D01*
X103698173Y-99953839D01*
X103710713Y-100214908D01*
X103761704Y-100471256D01*
X103850026Y-100717252D01*
X103852242Y-100721376D01*
X103916753Y-100841437D01*
X103973737Y-100947491D01*
X103976532Y-100951234D01*
X103976534Y-100951237D01*
X104127330Y-101153177D01*
X104127335Y-101153183D01*
X104130122Y-101156915D01*
X104133431Y-101160195D01*
X104133436Y-101160201D01*
X104312426Y-101337635D01*
X104315743Y-101340923D01*
X104319505Y-101343681D01*
X104319508Y-101343684D01*
X104522750Y-101492707D01*
X104526524Y-101495474D01*
X104530667Y-101497654D01*
X104530669Y-101497655D01*
X104753684Y-101614989D01*
X104753689Y-101614991D01*
X104757834Y-101617172D01*
X105004590Y-101703344D01*
X105009183Y-101704216D01*
X105256785Y-101751224D01*
X105256788Y-101751224D01*
X105261374Y-101752095D01*
X105391959Y-101757226D01*
X105517875Y-101762174D01*
X105517881Y-101762174D01*
X105522543Y-101762357D01*
X105601977Y-101753657D01*
X105777707Y-101734412D01*
X105777712Y-101734411D01*
X105782360Y-101733902D01*
X105895116Y-101704216D01*
X106030594Y-101668548D01*
X106030596Y-101668547D01*
X106035117Y-101667357D01*
X106275262Y-101564182D01*
X106497519Y-101426646D01*
X106501082Y-101423629D01*
X106501087Y-101423626D01*
X106693439Y-101260787D01*
X106693440Y-101260786D01*
X106697005Y-101257768D01*
X106788729Y-101153177D01*
X106866257Y-101064774D01*
X106866261Y-101064769D01*
X106869339Y-101061259D01*
X107010733Y-100841437D01*
X107118083Y-100603129D01*
X107189030Y-100351572D01*
X107202773Y-100243540D01*
X107221616Y-100095421D01*
X107221616Y-100095417D01*
X107222014Y-100092291D01*
X107224431Y-100000000D01*
X107205061Y-99739348D01*
X107193725Y-99689248D01*
X107148408Y-99488980D01*
X107147377Y-99484423D01*
X107129421Y-99438249D01*
X107054340Y-99245176D01*
X107054339Y-99245173D01*
X107052647Y-99240823D01*
X106922951Y-99013902D01*
X106761138Y-98808643D01*
X106570763Y-98629557D01*
X106356009Y-98480576D01*
X106351816Y-98478508D01*
X106125781Y-98367040D01*
X106125778Y-98367039D01*
X106121593Y-98364975D01*
X106075449Y-98350204D01*
X105877123Y-98286720D01*
X105872665Y-98285293D01*
X105614693Y-98243279D01*
X105500942Y-98241790D01*
X105358022Y-98239919D01*
X105358019Y-98239919D01*
X105353345Y-98239858D01*
X105094362Y-98275104D01*
X104843433Y-98348243D01*
X104839180Y-98350203D01*
X104839179Y-98350204D01*
X104802659Y-98367040D01*
X104606072Y-98457668D01*
X104567067Y-98483241D01*
X104391404Y-98598410D01*
X104391399Y-98598414D01*
X104387491Y-98600976D01*
X104192494Y-98775018D01*
X104025363Y-98975970D01*
X104015646Y-98991983D01*
X103911895Y-99162960D01*
X103889771Y-99199419D01*
X103788697Y-99440455D01*
X103724359Y-99693783D01*
X103698173Y-99953839D01*
X96299001Y-99953839D01*
X96283061Y-99739348D01*
X96271725Y-99689248D01*
X96226408Y-99488980D01*
X96225377Y-99484423D01*
X96207421Y-99438249D01*
X96132340Y-99245176D01*
X96132339Y-99245173D01*
X96130647Y-99240823D01*
X96125619Y-99232025D01*
X96109180Y-99162960D01*
X96132691Y-99095969D01*
X96188688Y-99052324D01*
X96235010Y-99043500D01*
X101511233Y-99043500D01*
X101522416Y-99044027D01*
X101529909Y-99045702D01*
X101537835Y-99045453D01*
X101537836Y-99045453D01*
X101597986Y-99043562D01*
X101601945Y-99043500D01*
X101629856Y-99043500D01*
X101633791Y-99043003D01*
X101633856Y-99042995D01*
X101645693Y-99042062D01*
X101677951Y-99041048D01*
X101681970Y-99040922D01*
X101689889Y-99040673D01*
X101709343Y-99035021D01*
X101728700Y-99031013D01*
X101740930Y-99029468D01*
X101740931Y-99029468D01*
X101748797Y-99028474D01*
X101756168Y-99025555D01*
X101756170Y-99025555D01*
X101789912Y-99012196D01*
X101801142Y-99008351D01*
X101835983Y-98998229D01*
X101835984Y-98998229D01*
X101843593Y-98996018D01*
X101850412Y-98991985D01*
X101850417Y-98991983D01*
X101861028Y-98985707D01*
X101878776Y-98977012D01*
X101897617Y-98969552D01*
X101933387Y-98943564D01*
X101943307Y-98937048D01*
X101974535Y-98918580D01*
X101974538Y-98918578D01*
X101981362Y-98914542D01*
X101995683Y-98900221D01*
X102010717Y-98887380D01*
X102020694Y-98880131D01*
X102027107Y-98875472D01*
X102055298Y-98841395D01*
X102063288Y-98832616D01*
X103088984Y-97806920D01*
X103151296Y-97772894D01*
X103219620Y-97777060D01*
X103400685Y-97840291D01*
X103405101Y-97841833D01*
X103409694Y-97842705D01*
X103657296Y-97889713D01*
X103657299Y-97889713D01*
X103661885Y-97890584D01*
X103792470Y-97895715D01*
X103918386Y-97900663D01*
X103918392Y-97900663D01*
X103923054Y-97900846D01*
X104002488Y-97892146D01*
X104178218Y-97872901D01*
X104178223Y-97872900D01*
X104182871Y-97872391D01*
X104295627Y-97842705D01*
X104431105Y-97807037D01*
X104431107Y-97807036D01*
X104435628Y-97805846D01*
X104512326Y-97772894D01*
X104566962Y-97749420D01*
X104675773Y-97702671D01*
X104898030Y-97565135D01*
X104901593Y-97562118D01*
X104901598Y-97562115D01*
X105093950Y-97399276D01*
X105093951Y-97399275D01*
X105097516Y-97396257D01*
X105184021Y-97297617D01*
X105266768Y-97203263D01*
X105266772Y-97203258D01*
X105269850Y-97199748D01*
X105305447Y-97144407D01*
X105368937Y-97045699D01*
X105411244Y-96979926D01*
X105518594Y-96741618D01*
X105520542Y-96734711D01*
X105588271Y-96494565D01*
X105588272Y-96494562D01*
X105589541Y-96490061D01*
X105606343Y-96357985D01*
X105622127Y-96233910D01*
X105622127Y-96233906D01*
X105622525Y-96230780D01*
X105623226Y-96204037D01*
X105623933Y-96177016D01*
X105624942Y-96138489D01*
X105612250Y-95967700D01*
X105605918Y-95882489D01*
X105605917Y-95882485D01*
X105605572Y-95877837D01*
X105594236Y-95827737D01*
X105548919Y-95627469D01*
X105547888Y-95622912D01*
X105542067Y-95607942D01*
X105454851Y-95383665D01*
X105454850Y-95383662D01*
X105453158Y-95379312D01*
X105323462Y-95152391D01*
X105161649Y-94947132D01*
X104971274Y-94768046D01*
X104793725Y-94644875D01*
X104760362Y-94621730D01*
X104760359Y-94621728D01*
X104756520Y-94619065D01*
X104752327Y-94616997D01*
X104526292Y-94505529D01*
X104526289Y-94505528D01*
X104522104Y-94503464D01*
X104503545Y-94497523D01*
X104277634Y-94425209D01*
X104273176Y-94423782D01*
X104015204Y-94381768D01*
X103901453Y-94380279D01*
X103758533Y-94378408D01*
X103758530Y-94378408D01*
X103753856Y-94378347D01*
X103494873Y-94413593D01*
X103490387Y-94414901D01*
X103490385Y-94414901D01*
X103462499Y-94423029D01*
X103243944Y-94486732D01*
X103239691Y-94488692D01*
X103239690Y-94488693D01*
X103203170Y-94505529D01*
X103006583Y-94596157D01*
X102967578Y-94621730D01*
X102791915Y-94736899D01*
X102791910Y-94736903D01*
X102788002Y-94739465D01*
X102593005Y-94913507D01*
X102425874Y-95114459D01*
X102420631Y-95123100D01*
X102351115Y-95237659D01*
X102290282Y-95337908D01*
X102189208Y-95578944D01*
X102124870Y-95832272D01*
X102098684Y-96092328D01*
X102098908Y-96096994D01*
X102098908Y-96097000D01*
X102103836Y-96199595D01*
X102111224Y-96353397D01*
X102162215Y-96609745D01*
X102222966Y-96778951D01*
X102227160Y-96849822D01*
X102193473Y-96910622D01*
X101364500Y-97739595D01*
X101302188Y-97773621D01*
X101275405Y-97776500D01*
X97269180Y-97776500D01*
X97201059Y-97756498D01*
X97154566Y-97702842D01*
X97144462Y-97632568D01*
X97173956Y-97567988D01*
X97187768Y-97554333D01*
X97370928Y-97399276D01*
X97370929Y-97399275D01*
X97374494Y-97396257D01*
X97460999Y-97297617D01*
X97543746Y-97203263D01*
X97543750Y-97203258D01*
X97546828Y-97199748D01*
X97582425Y-97144407D01*
X97645915Y-97045699D01*
X97688222Y-96979926D01*
X97795572Y-96741618D01*
X97797520Y-96734711D01*
X97865249Y-96494565D01*
X97865250Y-96494562D01*
X97866519Y-96490061D01*
X97883321Y-96357985D01*
X97899105Y-96233910D01*
X97899105Y-96233906D01*
X97899503Y-96230780D01*
X97900204Y-96204037D01*
X97900911Y-96177016D01*
X97901920Y-96138489D01*
X97889228Y-95967700D01*
X97887774Y-95948133D01*
X98955612Y-95948133D01*
X98964325Y-95959653D01*
X99062018Y-96031284D01*
X99069928Y-96036227D01*
X99292890Y-96153533D01*
X99301453Y-96157256D01*
X99539304Y-96240318D01*
X99548313Y-96242732D01*
X99795842Y-96289727D01*
X99805098Y-96290781D01*
X100056857Y-96300673D01*
X100066171Y-96300347D01*
X100316615Y-96272920D01*
X100325792Y-96271219D01*
X100569431Y-96207074D01*
X100578251Y-96204037D01*
X100809736Y-96104583D01*
X100818008Y-96100276D01*
X101032249Y-95967700D01*
X101039188Y-95962658D01*
X101047518Y-95950019D01*
X101041456Y-95939666D01*
X100012812Y-94911022D01*
X99998868Y-94903408D01*
X99997035Y-94903539D01*
X99990420Y-94907790D01*
X98962270Y-95935940D01*
X98955612Y-95948133D01*
X97887774Y-95948133D01*
X97882896Y-95882489D01*
X97882895Y-95882485D01*
X97882550Y-95877837D01*
X97871214Y-95827737D01*
X97825897Y-95627469D01*
X97824866Y-95622912D01*
X97819045Y-95607942D01*
X97731829Y-95383665D01*
X97731828Y-95383662D01*
X97730136Y-95379312D01*
X97600440Y-95152391D01*
X97438627Y-94947132D01*
X97248252Y-94768046D01*
X97070703Y-94644875D01*
X97037340Y-94621730D01*
X97037337Y-94621728D01*
X97033498Y-94619065D01*
X96842260Y-94524757D01*
X96812658Y-94497523D01*
X98237898Y-94497523D01*
X98249987Y-94749175D01*
X98251124Y-94758435D01*
X98300274Y-95005535D01*
X98302768Y-95014528D01*
X98387900Y-95251639D01*
X98391700Y-95260174D01*
X98510946Y-95482101D01*
X98515957Y-95489968D01*
X98579446Y-95574990D01*
X98590704Y-95583439D01*
X98603123Y-95576667D01*
X99627978Y-94551812D01*
X99634356Y-94540132D01*
X100364408Y-94540132D01*
X100364539Y-94541965D01*
X100368790Y-94548580D01*
X101399913Y-95579703D01*
X101412293Y-95586463D01*
X101420634Y-95580219D01*
X101546765Y-95384127D01*
X101551212Y-95375936D01*
X101654691Y-95146222D01*
X101657882Y-95137455D01*
X101726269Y-94894976D01*
X101728129Y-94885834D01*
X101760116Y-94634396D01*
X101760597Y-94628108D01*
X101762847Y-94542160D01*
X101762696Y-94535851D01*
X101743912Y-94283074D01*
X101742536Y-94273868D01*
X101686929Y-94028126D01*
X101684205Y-94019215D01*
X101592888Y-93784392D01*
X101588877Y-93775983D01*
X101463854Y-93557240D01*
X101458643Y-93549514D01*
X101421391Y-93502261D01*
X101409466Y-93493790D01*
X101397934Y-93500276D01*
X100372022Y-94526188D01*
X100364408Y-94540132D01*
X99634356Y-94540132D01*
X99635592Y-94537868D01*
X99635461Y-94536035D01*
X99631210Y-94529420D01*
X98601321Y-93499531D01*
X98588013Y-93492264D01*
X98577974Y-93499386D01*
X98567761Y-93511666D01*
X98562346Y-93519258D01*
X98431646Y-93734646D01*
X98427408Y-93742963D01*
X98329981Y-93975299D01*
X98327020Y-93984149D01*
X98265006Y-94228331D01*
X98263384Y-94237528D01*
X98238143Y-94488198D01*
X98237898Y-94497523D01*
X96812658Y-94497523D01*
X96790012Y-94476688D01*
X96771989Y-94411751D01*
X96771989Y-94168106D01*
X96791991Y-94099985D01*
X96808894Y-94079010D01*
X97224524Y-93663381D01*
X97650758Y-93237147D01*
X97659037Y-93229613D01*
X97665518Y-93225500D01*
X97712144Y-93175848D01*
X97714898Y-93173007D01*
X97734635Y-93153270D01*
X97737115Y-93150073D01*
X97744820Y-93141051D01*
X97748055Y-93137606D01*
X97757261Y-93127803D01*
X98953216Y-93127803D01*
X98957789Y-93137579D01*
X99987188Y-94166978D01*
X100001132Y-94174592D01*
X100002965Y-94174461D01*
X100009580Y-94170210D01*
X101038419Y-93141371D01*
X101044803Y-93129681D01*
X101035391Y-93117570D01*
X100898593Y-93022670D01*
X100890565Y-93017942D01*
X100664593Y-92906505D01*
X100655960Y-92903017D01*
X100415998Y-92826205D01*
X100406938Y-92824029D01*
X100158260Y-92783529D01*
X100148973Y-92782717D01*
X99897053Y-92779419D01*
X99887742Y-92779989D01*
X99638097Y-92813964D01*
X99628978Y-92815902D01*
X99387098Y-92886404D01*
X99378367Y-92889667D01*
X99149558Y-92995151D01*
X99141406Y-92999670D01*
X98962353Y-93117062D01*
X98953216Y-93127803D01*
X97757261Y-93127803D01*
X97775086Y-93108821D01*
X97778905Y-93101875D01*
X97778907Y-93101872D01*
X97784848Y-93091066D01*
X97795699Y-93074547D01*
X97803258Y-93064801D01*
X97808114Y-93058541D01*
X97811259Y-93051272D01*
X97811262Y-93051268D01*
X97825674Y-93017963D01*
X97830891Y-93007313D01*
X97852195Y-92968560D01*
X97857233Y-92948937D01*
X97863637Y-92930234D01*
X97868533Y-92918920D01*
X97868533Y-92918919D01*
X97871681Y-92911645D01*
X97872920Y-92903822D01*
X97872923Y-92903812D01*
X97878599Y-92867976D01*
X97881005Y-92856356D01*
X97890028Y-92821211D01*
X97890028Y-92821210D01*
X97892000Y-92813530D01*
X97892000Y-92793276D01*
X97893551Y-92773565D01*
X97895480Y-92761386D01*
X97896720Y-92753557D01*
X97892559Y-92709538D01*
X97892000Y-92697681D01*
X97892000Y-91606634D01*
X97912002Y-91538513D01*
X97951697Y-91499490D01*
X97989120Y-91476332D01*
X97995348Y-91472478D01*
X98081784Y-91385891D01*
X98144066Y-91351812D01*
X98214886Y-91356815D01*
X98259976Y-91385736D01*
X98347697Y-91473305D01*
X98353927Y-91477145D01*
X98353928Y-91477146D01*
X98491090Y-91561694D01*
X98498262Y-91566115D01*
X98578005Y-91592564D01*
X98659611Y-91619632D01*
X98659613Y-91619632D01*
X98666139Y-91621797D01*
X98672975Y-91622497D01*
X98672978Y-91622498D01*
X98716031Y-91626909D01*
X98770600Y-91632500D01*
X99396400Y-91632500D01*
X99399646Y-91632163D01*
X99399650Y-91632163D01*
X99495308Y-91622238D01*
X99495312Y-91622237D01*
X99502166Y-91621526D01*
X99508702Y-91619345D01*
X99508704Y-91619345D01*
X99640806Y-91575272D01*
X99669946Y-91565550D01*
X99820348Y-91472478D01*
X99945305Y-91347303D01*
X99957056Y-91328239D01*
X100034275Y-91202968D01*
X100034276Y-91202966D01*
X100038115Y-91196738D01*
X100093797Y-91028861D01*
X100104500Y-90924400D01*
X100104500Y-89923600D01*
X100104163Y-89920350D01*
X100094238Y-89824692D01*
X100094237Y-89824688D01*
X100093526Y-89817834D01*
X100075471Y-89763715D01*
X100039868Y-89657002D01*
X100037550Y-89650054D01*
X99944478Y-89499652D01*
X99819303Y-89374695D01*
X99813069Y-89370852D01*
X99776883Y-89348546D01*
X99729390Y-89295774D01*
X99717000Y-89241287D01*
X99717000Y-87351268D01*
X99717527Y-87340085D01*
X99719202Y-87332592D01*
X99717062Y-87264501D01*
X99717000Y-87260544D01*
X99717000Y-87232644D01*
X99716496Y-87228653D01*
X99715563Y-87216811D01*
X99715462Y-87213576D01*
X99714174Y-87172611D01*
X99711961Y-87164993D01*
X99708521Y-87153152D01*
X99704512Y-87133793D01*
X99704346Y-87132483D01*
X99701974Y-87113703D01*
X99699058Y-87106337D01*
X99699056Y-87106331D01*
X99685700Y-87072598D01*
X99681855Y-87061368D01*
X99671730Y-87026517D01*
X99671730Y-87026516D01*
X99669519Y-87018907D01*
X99659205Y-87001466D01*
X99650508Y-86983713D01*
X99645972Y-86972258D01*
X99643052Y-86964883D01*
X99617063Y-86929112D01*
X99610547Y-86919192D01*
X99592078Y-86887963D01*
X99588042Y-86881138D01*
X99573721Y-86866817D01*
X99560880Y-86851783D01*
X99553631Y-86841806D01*
X99548972Y-86835393D01*
X99514895Y-86807202D01*
X99506116Y-86799212D01*
X98356122Y-85649217D01*
X98322096Y-85586905D01*
X98319907Y-85573292D01*
X98303232Y-85414635D01*
X98303232Y-85414633D01*
X98302542Y-85408072D01*
X98243527Y-85226444D01*
X98148040Y-85061056D01*
X98094264Y-85001331D01*
X98024675Y-84924045D01*
X98024674Y-84924044D01*
X98020253Y-84919134D01*
X97865752Y-84806882D01*
X97859724Y-84804198D01*
X97859722Y-84804197D01*
X97697319Y-84731891D01*
X97697318Y-84731891D01*
X97691288Y-84729206D01*
X97684833Y-84727834D01*
X97684824Y-84727831D01*
X97642069Y-84718743D01*
X97579596Y-84685015D01*
X97545275Y-84622865D01*
X97550003Y-84552026D01*
X97592280Y-84494989D01*
X97642068Y-84472251D01*
X97818288Y-84434794D01*
X97824321Y-84432108D01*
X97986722Y-84359803D01*
X97986724Y-84359802D01*
X97992752Y-84357118D01*
X98014692Y-84341178D01*
X98124229Y-84261594D01*
X98147253Y-84244866D01*
X98188101Y-84199500D01*
X98270621Y-84107852D01*
X98270622Y-84107851D01*
X98275040Y-84102944D01*
X98370527Y-83937556D01*
X98382730Y-83900000D01*
X111424647Y-83900000D01*
X111444022Y-84121463D01*
X111501560Y-84336196D01*
X111503882Y-84341177D01*
X111503883Y-84341178D01*
X111593186Y-84532689D01*
X111593189Y-84532694D01*
X111595512Y-84537676D01*
X111598668Y-84542183D01*
X111598669Y-84542185D01*
X111703396Y-84691750D01*
X111723023Y-84719781D01*
X111880219Y-84876977D01*
X111884727Y-84880134D01*
X111884730Y-84880136D01*
X111934880Y-84915251D01*
X112062323Y-85004488D01*
X112067305Y-85006811D01*
X112067310Y-85006814D01*
X112258822Y-85096117D01*
X112263804Y-85098440D01*
X112269112Y-85099862D01*
X112269114Y-85099863D01*
X112334949Y-85117503D01*
X112478537Y-85155978D01*
X112700000Y-85175353D01*
X112921463Y-85155978D01*
X113065051Y-85117503D01*
X113130886Y-85099863D01*
X113130888Y-85099862D01*
X113136196Y-85098440D01*
X113141178Y-85096117D01*
X113332690Y-85006814D01*
X113332695Y-85006811D01*
X113337677Y-85004488D01*
X113465120Y-84915251D01*
X113515270Y-84880136D01*
X113515273Y-84880134D01*
X113519781Y-84876977D01*
X113676977Y-84719781D01*
X113696605Y-84691750D01*
X113801331Y-84542185D01*
X113801332Y-84542183D01*
X113804488Y-84537676D01*
X113806811Y-84532694D01*
X113806814Y-84532689D01*
X113896117Y-84341178D01*
X113896118Y-84341177D01*
X113898440Y-84336196D01*
X113955978Y-84121463D01*
X113975353Y-83900000D01*
X113955978Y-83678537D01*
X113898440Y-83463804D01*
X113874709Y-83412912D01*
X113806814Y-83267311D01*
X113806811Y-83267306D01*
X113804488Y-83262324D01*
X113801331Y-83257815D01*
X113680136Y-83084730D01*
X113680134Y-83084727D01*
X113676977Y-83080219D01*
X113519781Y-82923023D01*
X113515273Y-82919866D01*
X113515270Y-82919864D01*
X113419752Y-82852982D01*
X113337677Y-82795512D01*
X113332695Y-82793189D01*
X113332690Y-82793186D01*
X113141178Y-82703883D01*
X113141177Y-82703882D01*
X113136196Y-82701560D01*
X113130888Y-82700138D01*
X113130886Y-82700137D01*
X113053868Y-82679500D01*
X112921463Y-82644022D01*
X112700000Y-82624647D01*
X112478537Y-82644022D01*
X112346132Y-82679500D01*
X112269114Y-82700137D01*
X112269112Y-82700138D01*
X112263804Y-82701560D01*
X112258823Y-82703882D01*
X112258822Y-82703883D01*
X112067311Y-82793186D01*
X112067306Y-82793189D01*
X112062324Y-82795512D01*
X112057817Y-82798668D01*
X112057815Y-82798669D01*
X111884730Y-82919864D01*
X111884727Y-82919866D01*
X111880219Y-82923023D01*
X111723023Y-83080219D01*
X111719866Y-83084727D01*
X111719864Y-83084730D01*
X111598669Y-83257815D01*
X111595512Y-83262324D01*
X111593189Y-83267306D01*
X111593186Y-83267311D01*
X111525291Y-83412912D01*
X111501560Y-83463804D01*
X111444022Y-83678537D01*
X111424647Y-83900000D01*
X98382730Y-83900000D01*
X98429542Y-83755928D01*
X98430349Y-83748255D01*
X98448814Y-83572565D01*
X98449504Y-83566000D01*
X98441338Y-83488306D01*
X98430232Y-83382635D01*
X98430232Y-83382633D01*
X98429542Y-83376072D01*
X98370527Y-83194444D01*
X98361693Y-83179142D01*
X98278341Y-83034774D01*
X98275040Y-83029056D01*
X98225043Y-82973528D01*
X98151675Y-82892045D01*
X98151674Y-82892044D01*
X98147253Y-82887134D01*
X98038442Y-82808078D01*
X97998094Y-82778763D01*
X97998093Y-82778762D01*
X97992752Y-82774882D01*
X97986724Y-82772198D01*
X97986722Y-82772197D01*
X97824319Y-82699891D01*
X97824318Y-82699891D01*
X97818288Y-82697206D01*
X97724888Y-82677353D01*
X97637944Y-82658872D01*
X97637939Y-82658872D01*
X97631487Y-82657500D01*
X97440513Y-82657500D01*
X97434061Y-82658872D01*
X97434056Y-82658872D01*
X97347112Y-82677353D01*
X97253712Y-82697206D01*
X97247685Y-82699889D01*
X97247677Y-82699892D01*
X97095748Y-82767535D01*
X97025381Y-82776969D01*
X96961084Y-82746862D01*
X96923271Y-82686773D01*
X96918500Y-82652428D01*
X96918500Y-82332703D01*
X115690743Y-82332703D01*
X115728268Y-82617734D01*
X115729401Y-82621874D01*
X115729401Y-82621876D01*
X115735849Y-82645446D01*
X115804129Y-82895036D01*
X115805813Y-82898984D01*
X115881455Y-83076322D01*
X115916923Y-83159476D01*
X115969689Y-83247641D01*
X116056122Y-83392060D01*
X116064561Y-83406161D01*
X116244313Y-83630528D01*
X116300678Y-83684016D01*
X116436700Y-83813096D01*
X116452851Y-83828423D01*
X116686317Y-83996186D01*
X116690112Y-83998195D01*
X116690113Y-83998196D01*
X116711869Y-84009715D01*
X116940392Y-84130712D01*
X116964699Y-84139607D01*
X117111895Y-84193473D01*
X117210373Y-84229511D01*
X117491264Y-84290755D01*
X117519841Y-84293004D01*
X117714282Y-84308307D01*
X117714291Y-84308307D01*
X117716739Y-84308500D01*
X117872271Y-84308500D01*
X117874407Y-84308354D01*
X117874418Y-84308354D01*
X118082548Y-84294165D01*
X118082554Y-84294164D01*
X118086825Y-84293873D01*
X118091020Y-84293004D01*
X118091022Y-84293004D01*
X118323472Y-84244866D01*
X118368342Y-84235574D01*
X118639343Y-84139607D01*
X118894812Y-84007750D01*
X118898313Y-84005289D01*
X118898317Y-84005287D01*
X119055915Y-83894525D01*
X119130023Y-83842441D01*
X119255513Y-83725828D01*
X119337479Y-83649661D01*
X119337481Y-83649658D01*
X119340622Y-83646740D01*
X119522713Y-83424268D01*
X119672927Y-83179142D01*
X119788483Y-82915898D01*
X119791466Y-82905428D01*
X119862090Y-82657500D01*
X119867244Y-82639406D01*
X119907751Y-82354784D01*
X119907845Y-82336951D01*
X119909235Y-82071583D01*
X119909235Y-82071576D01*
X119909257Y-82067297D01*
X119905715Y-82040389D01*
X119885196Y-81884537D01*
X119871732Y-81782266D01*
X119795871Y-81504964D01*
X119683077Y-81240524D01*
X119570996Y-81053250D01*
X119537643Y-80997521D01*
X119537640Y-80997517D01*
X119535439Y-80993839D01*
X119355687Y-80769472D01*
X119188214Y-80610546D01*
X119150258Y-80574527D01*
X119150255Y-80574525D01*
X119147149Y-80571577D01*
X118940152Y-80422834D01*
X118917172Y-80406321D01*
X118917171Y-80406320D01*
X118913683Y-80403814D01*
X118891843Y-80392250D01*
X118868654Y-80379972D01*
X118659608Y-80269288D01*
X118389627Y-80170489D01*
X118108736Y-80109245D01*
X118077685Y-80106801D01*
X117885718Y-80091693D01*
X117885709Y-80091693D01*
X117883261Y-80091500D01*
X117727729Y-80091500D01*
X117725593Y-80091646D01*
X117725582Y-80091646D01*
X117517452Y-80105835D01*
X117517446Y-80105836D01*
X117513175Y-80106127D01*
X117508980Y-80106996D01*
X117508978Y-80106996D01*
X117486249Y-80111703D01*
X117231658Y-80164426D01*
X116960657Y-80260393D01*
X116705188Y-80392250D01*
X116701687Y-80394711D01*
X116701683Y-80394713D01*
X116685167Y-80406321D01*
X116469977Y-80557559D01*
X116259378Y-80753260D01*
X116077287Y-80975732D01*
X115927073Y-81220858D01*
X115811517Y-81484102D01*
X115732756Y-81760594D01*
X115692249Y-82045216D01*
X115692227Y-82049505D01*
X115692226Y-82049512D01*
X115690765Y-82328417D01*
X115690743Y-82332703D01*
X96918500Y-82332703D01*
X96918500Y-80301866D01*
X96911745Y-80239684D01*
X96860615Y-80103295D01*
X96773261Y-79986739D01*
X96704661Y-79935326D01*
X96662146Y-79878467D01*
X96657120Y-79807648D01*
X96691180Y-79745355D01*
X96753511Y-79711365D01*
X96780226Y-79708500D01*
X118950633Y-79708500D01*
X118970018Y-79710000D01*
G37*
%TD.AperFunction*%
%TA.AperFunction,Conductor*%
G36*
X88704526Y-79728502D02*
G01*
X88751019Y-79782158D01*
X88761123Y-79852432D01*
X88731629Y-79917012D01*
X88725500Y-79923595D01*
X86983747Y-81665348D01*
X86975461Y-81672888D01*
X86968982Y-81677000D01*
X86963557Y-81682777D01*
X86922357Y-81726651D01*
X86919602Y-81729493D01*
X86899865Y-81749230D01*
X86897385Y-81752427D01*
X86889682Y-81761447D01*
X86859414Y-81793679D01*
X86855595Y-81800625D01*
X86855593Y-81800628D01*
X86849652Y-81811434D01*
X86838801Y-81827953D01*
X86826386Y-81843959D01*
X86823241Y-81851228D01*
X86823238Y-81851232D01*
X86808826Y-81884537D01*
X86803609Y-81895187D01*
X86782305Y-81933940D01*
X86780334Y-81941615D01*
X86780334Y-81941616D01*
X86777267Y-81953562D01*
X86770863Y-81972266D01*
X86762819Y-81990855D01*
X86761580Y-81998678D01*
X86761577Y-81998688D01*
X86755901Y-82034524D01*
X86753495Y-82046144D01*
X86749155Y-82063049D01*
X86742500Y-82088970D01*
X86742500Y-82109224D01*
X86740949Y-82128934D01*
X86737780Y-82148943D01*
X86738526Y-82156835D01*
X86741941Y-82192961D01*
X86742500Y-82204819D01*
X86742500Y-89213476D01*
X86722498Y-89281597D01*
X86710142Y-89297779D01*
X86636960Y-89379056D01*
X86541473Y-89544444D01*
X86482458Y-89726072D01*
X86481768Y-89732633D01*
X86481768Y-89732635D01*
X86472676Y-89819139D01*
X86462496Y-89916000D01*
X86463186Y-89922565D01*
X86467220Y-89960942D01*
X86482458Y-90105928D01*
X86541473Y-90287556D01*
X86636960Y-90452944D01*
X86764747Y-90594866D01*
X86919248Y-90707118D01*
X86925276Y-90709802D01*
X86925278Y-90709803D01*
X87087681Y-90782109D01*
X87093712Y-90784794D01*
X87187112Y-90804647D01*
X87274056Y-90823128D01*
X87274061Y-90823128D01*
X87280513Y-90824500D01*
X87426405Y-90824500D01*
X87494526Y-90844502D01*
X87541019Y-90898158D01*
X87551123Y-90968432D01*
X87521629Y-91033012D01*
X87515500Y-91039595D01*
X85499500Y-93055595D01*
X85437188Y-93089621D01*
X85410405Y-93092500D01*
X84930500Y-93092500D01*
X84862379Y-93072498D01*
X84815886Y-93018842D01*
X84804500Y-92966500D01*
X84804500Y-92677866D01*
X84797745Y-92615684D01*
X84754196Y-92499517D01*
X84749013Y-92428711D01*
X84754196Y-92411058D01*
X84794478Y-92303606D01*
X84798105Y-92288351D01*
X84803631Y-92237486D01*
X84804000Y-92230672D01*
X84804000Y-91458115D01*
X84799525Y-91442876D01*
X84798135Y-91441671D01*
X84790452Y-91440000D01*
X82168000Y-91440000D01*
X82099879Y-91419998D01*
X82053386Y-91366342D01*
X82042000Y-91314000D01*
X82042000Y-91058000D01*
X82062002Y-90989879D01*
X82115658Y-90943386D01*
X82168000Y-90932000D01*
X84785884Y-90932000D01*
X84801123Y-90927525D01*
X84802328Y-90926135D01*
X84803999Y-90918452D01*
X84803999Y-90141331D01*
X84803629Y-90134510D01*
X84798105Y-90083648D01*
X84794479Y-90068396D01*
X84754196Y-89960942D01*
X84749013Y-89890135D01*
X84754196Y-89872482D01*
X84774194Y-89819139D01*
X84797745Y-89756316D01*
X84804500Y-89694134D01*
X84804500Y-87597866D01*
X84797745Y-87535684D01*
X84746615Y-87399295D01*
X84659261Y-87282739D01*
X84542705Y-87195385D01*
X84406316Y-87144255D01*
X84344134Y-87137500D01*
X80247866Y-87137500D01*
X80185684Y-87144255D01*
X80049295Y-87195385D01*
X79932739Y-87282739D01*
X79927358Y-87289919D01*
X79923595Y-87293682D01*
X79861283Y-87327708D01*
X79790468Y-87322643D01*
X79733632Y-87280096D01*
X79708821Y-87213576D01*
X79708500Y-87204587D01*
X79708500Y-82332703D01*
X80090743Y-82332703D01*
X80128268Y-82617734D01*
X80129401Y-82621874D01*
X80129401Y-82621876D01*
X80135849Y-82645446D01*
X80204129Y-82895036D01*
X80205813Y-82898984D01*
X80281455Y-83076322D01*
X80316923Y-83159476D01*
X80369689Y-83247641D01*
X80456122Y-83392060D01*
X80464561Y-83406161D01*
X80644313Y-83630528D01*
X80700678Y-83684016D01*
X80836700Y-83813096D01*
X80852851Y-83828423D01*
X81086317Y-83996186D01*
X81090112Y-83998195D01*
X81090113Y-83998196D01*
X81111869Y-84009715D01*
X81340392Y-84130712D01*
X81364699Y-84139607D01*
X81511895Y-84193473D01*
X81610373Y-84229511D01*
X81891264Y-84290755D01*
X81919841Y-84293004D01*
X82114282Y-84308307D01*
X82114291Y-84308307D01*
X82116739Y-84308500D01*
X82272271Y-84308500D01*
X82274407Y-84308354D01*
X82274418Y-84308354D01*
X82482548Y-84294165D01*
X82482554Y-84294164D01*
X82486825Y-84293873D01*
X82491020Y-84293004D01*
X82491022Y-84293004D01*
X82723472Y-84244866D01*
X82768342Y-84235574D01*
X83039343Y-84139607D01*
X83294812Y-84007750D01*
X83298313Y-84005289D01*
X83298317Y-84005287D01*
X83455915Y-83894525D01*
X83530023Y-83842441D01*
X83655513Y-83725828D01*
X83737479Y-83649661D01*
X83737481Y-83649658D01*
X83740622Y-83646740D01*
X83922713Y-83424268D01*
X84072927Y-83179142D01*
X84188483Y-82915898D01*
X84191466Y-82905428D01*
X84262090Y-82657500D01*
X84267244Y-82639406D01*
X84307751Y-82354784D01*
X84307845Y-82336951D01*
X84309235Y-82071583D01*
X84309235Y-82071576D01*
X84309257Y-82067297D01*
X84305715Y-82040389D01*
X84285196Y-81884537D01*
X84271732Y-81782266D01*
X84195871Y-81504964D01*
X84083077Y-81240524D01*
X83970996Y-81053250D01*
X83937643Y-80997521D01*
X83937640Y-80997517D01*
X83935439Y-80993839D01*
X83755687Y-80769472D01*
X83588214Y-80610546D01*
X83550258Y-80574527D01*
X83550255Y-80574525D01*
X83547149Y-80571577D01*
X83340152Y-80422834D01*
X83317172Y-80406321D01*
X83317171Y-80406320D01*
X83313683Y-80403814D01*
X83291843Y-80392250D01*
X83268654Y-80379972D01*
X83059608Y-80269288D01*
X82789627Y-80170489D01*
X82508736Y-80109245D01*
X82477685Y-80106801D01*
X82285718Y-80091693D01*
X82285709Y-80091693D01*
X82283261Y-80091500D01*
X82127729Y-80091500D01*
X82125593Y-80091646D01*
X82125582Y-80091646D01*
X81917452Y-80105835D01*
X81917446Y-80105836D01*
X81913175Y-80106127D01*
X81908980Y-80106996D01*
X81908978Y-80106996D01*
X81886249Y-80111703D01*
X81631658Y-80164426D01*
X81360657Y-80260393D01*
X81105188Y-80392250D01*
X81101687Y-80394711D01*
X81101683Y-80394713D01*
X81085167Y-80406321D01*
X80869977Y-80557559D01*
X80659378Y-80753260D01*
X80477287Y-80975732D01*
X80327073Y-81220858D01*
X80211517Y-81484102D01*
X80132756Y-81760594D01*
X80092249Y-82045216D01*
X80092227Y-82049505D01*
X80092226Y-82049512D01*
X80090765Y-82328417D01*
X80090743Y-82332703D01*
X79708500Y-82332703D01*
X79708500Y-81053250D01*
X79710246Y-81032345D01*
X79712770Y-81017344D01*
X79712770Y-81017341D01*
X79713576Y-81012552D01*
X79713729Y-81000000D01*
X79712334Y-80990257D01*
X79711451Y-80962517D01*
X79723623Y-80807851D01*
X79726716Y-80788322D01*
X79730439Y-80772814D01*
X79769398Y-80610541D01*
X79775506Y-80591742D01*
X79784896Y-80569074D01*
X79845470Y-80422834D01*
X79854446Y-80405217D01*
X79949974Y-80249330D01*
X79961596Y-80233335D01*
X80080332Y-80094313D01*
X80094313Y-80080332D01*
X80233335Y-79961596D01*
X80249330Y-79949974D01*
X80405217Y-79854446D01*
X80422834Y-79845470D01*
X80575683Y-79782158D01*
X80591746Y-79775505D01*
X80610541Y-79769398D01*
X80788323Y-79726716D01*
X80807850Y-79723623D01*
X80958987Y-79711728D01*
X80975875Y-79712370D01*
X80975877Y-79712200D01*
X80984853Y-79712310D01*
X80993724Y-79713691D01*
X81002626Y-79712527D01*
X81002628Y-79712527D01*
X81020864Y-79710142D01*
X81025286Y-79709564D01*
X81041621Y-79708500D01*
X88636405Y-79708500D01*
X88704526Y-79728502D01*
G37*
%TD.AperFunction*%
%TA.AperFunction,Conductor*%
G36*
X96236121Y-85216002D02*
G01*
X96282614Y-85269658D01*
X96294000Y-85322000D01*
X96294000Y-87139884D01*
X96298475Y-87155123D01*
X96299865Y-87156328D01*
X96307548Y-87157999D01*
X96454669Y-87157999D01*
X96461490Y-87157629D01*
X96512352Y-87152105D01*
X96527604Y-87148479D01*
X96648054Y-87103324D01*
X96663649Y-87094786D01*
X96765724Y-87018285D01*
X96778285Y-87005724D01*
X96854786Y-86903649D01*
X96863324Y-86888054D01*
X96908478Y-86767606D01*
X96912105Y-86752351D01*
X96917631Y-86701486D01*
X96918000Y-86694672D01*
X96918000Y-86567893D01*
X96938002Y-86499772D01*
X96991658Y-86453279D01*
X97061932Y-86443175D01*
X97095248Y-86452786D01*
X97120677Y-86464108D01*
X97120685Y-86464111D01*
X97126712Y-86466794D01*
X97220112Y-86486647D01*
X97307056Y-86505128D01*
X97307061Y-86505128D01*
X97313513Y-86506500D01*
X97369406Y-86506500D01*
X97437527Y-86526502D01*
X97458501Y-86543405D01*
X98413095Y-87497999D01*
X98447121Y-87560311D01*
X98450000Y-87587094D01*
X98450000Y-89241366D01*
X98429998Y-89309487D01*
X98390304Y-89348509D01*
X98346652Y-89375522D01*
X98341479Y-89380704D01*
X98260216Y-89462109D01*
X98197934Y-89496188D01*
X98127114Y-89491185D01*
X98082025Y-89462264D01*
X97999483Y-89379866D01*
X97994303Y-89374695D01*
X97951882Y-89348546D01*
X97849968Y-89285725D01*
X97849966Y-89285724D01*
X97843738Y-89281885D01*
X97763995Y-89255436D01*
X97682389Y-89228368D01*
X97682387Y-89228368D01*
X97675861Y-89226203D01*
X97669025Y-89225503D01*
X97669022Y-89225502D01*
X97625969Y-89221091D01*
X97571400Y-89215500D01*
X96945600Y-89215500D01*
X96942354Y-89215837D01*
X96942350Y-89215837D01*
X96846692Y-89225762D01*
X96846688Y-89225763D01*
X96839834Y-89226474D01*
X96833298Y-89228655D01*
X96833296Y-89228655D01*
X96701194Y-89272728D01*
X96672054Y-89282450D01*
X96521652Y-89375522D01*
X96396695Y-89500697D01*
X96392855Y-89506927D01*
X96392854Y-89506928D01*
X96384944Y-89519761D01*
X96332173Y-89567255D01*
X96262101Y-89578680D01*
X96196977Y-89550407D01*
X96170539Y-89519951D01*
X96157978Y-89499652D01*
X96032803Y-89374695D01*
X95990382Y-89348546D01*
X95888468Y-89285725D01*
X95888466Y-89285724D01*
X95882238Y-89281885D01*
X95802495Y-89255436D01*
X95720889Y-89228368D01*
X95720887Y-89228368D01*
X95714361Y-89226203D01*
X95707525Y-89225503D01*
X95707522Y-89225502D01*
X95664469Y-89221091D01*
X95609900Y-89215500D01*
X94984100Y-89215500D01*
X94980854Y-89215837D01*
X94980850Y-89215837D01*
X94885192Y-89225762D01*
X94885188Y-89225763D01*
X94878334Y-89226474D01*
X94871798Y-89228655D01*
X94871796Y-89228655D01*
X94739694Y-89272728D01*
X94710554Y-89282450D01*
X94560152Y-89375522D01*
X94554979Y-89380704D01*
X94473716Y-89462109D01*
X94411434Y-89496188D01*
X94340614Y-89491185D01*
X94295525Y-89462264D01*
X94212983Y-89379866D01*
X94207803Y-89374695D01*
X94201569Y-89370852D01*
X94193384Y-89365807D01*
X94145891Y-89313035D01*
X94133500Y-89258547D01*
X94133500Y-88858122D01*
X94153502Y-88790001D01*
X94207158Y-88743508D01*
X94277432Y-88733404D01*
X94310749Y-88743015D01*
X94332712Y-88752794D01*
X94426112Y-88772647D01*
X94513056Y-88791128D01*
X94513061Y-88791128D01*
X94519513Y-88792500D01*
X94710487Y-88792500D01*
X94716939Y-88791128D01*
X94716944Y-88791128D01*
X94803888Y-88772647D01*
X94897288Y-88752794D01*
X94940839Y-88733404D01*
X95065722Y-88677803D01*
X95065724Y-88677802D01*
X95071752Y-88675118D01*
X95226253Y-88562866D01*
X95354040Y-88420944D01*
X95412314Y-88320010D01*
X95446223Y-88261279D01*
X95446224Y-88261278D01*
X95449527Y-88255556D01*
X95508542Y-88073928D01*
X95512321Y-88037978D01*
X95527814Y-87890565D01*
X95528504Y-87884000D01*
X95510916Y-87716659D01*
X95509232Y-87700635D01*
X95509232Y-87700633D01*
X95508542Y-87694072D01*
X95449527Y-87512444D01*
X95420381Y-87461961D01*
X95403500Y-87398962D01*
X95403500Y-87272548D01*
X95423502Y-87204427D01*
X95477158Y-87157934D01*
X95547432Y-87147830D01*
X95558645Y-87149965D01*
X95567646Y-87152105D01*
X95618514Y-87157631D01*
X95625328Y-87158000D01*
X95767885Y-87158000D01*
X95783124Y-87153525D01*
X95784329Y-87152135D01*
X95786000Y-87144452D01*
X95786000Y-85322000D01*
X95806002Y-85253879D01*
X95859658Y-85207386D01*
X95912000Y-85196000D01*
X96168000Y-85196000D01*
X96236121Y-85216002D01*
G37*
%TD.AperFunction*%
%TD*%
M02*
